<?xml version="1.0" encoding="utf-8" standalone="no"?>
<!DOCTYPE svg PUBLIC "-//W3C//DTD SVG 1.1//EN"
  "http://www.w3.org/Graphics/SVG/1.1/DTD/svg11.dtd">
<svg xmlns:xlink="http://www.w3.org/1999/xlink" width="554.987875pt" height="215.391613pt" viewBox="0 0 554.987875 215.391613" xmlns="http://www.w3.org/2000/svg" version="1.1">
 <metadata>
  <rdf:RDF xmlns:dc="http://purl.org/dc/elements/1.1/" xmlns:cc="http://creativecommons.org/ns#" xmlns:rdf="http://www.w3.org/1999/02/22-rdf-syntax-ns#">
   <cc:Work>
    <dc:type rdf:resource="http://purl.org/dc/dcmitype/StillImage"/>
    <dc:format>image/svg+xml</dc:format>
    <dc:creator>
     <cc:Agent>
      <dc:title>Matplotlib v3.11.2, https://matplotlib.org/</dc:title>
     </cc:Agent>
    </dc:creator>
   </cc:Work>
  </rdf:RDF>
 </metadata>
 <defs>
  <style type="text/css">*{stroke-linejoin: round; stroke-linecap: butt}</style>
 </defs>
 <g id="figure_1">
  <g id="patch_1">
   <path d="M 0 215.391613 
L 554.987875 215.391613 
L 554.987875 0 
L 0 0 
z
" style="fill: #ffffff"/>
  </g>
  <g id="axes_1">
   <g id="patch_2">
    <path d="M 7.2 207.403099 
L 254.025964 207.403099 
L 254.025964 26.9 
L 7.2 26.9 
z
" style="fill: #ffffff"/>
   </g>
   <g id="line2d_1">
    <path d="M 153.467238 207.403099 
L 153.467238 26.9 
" clip-path="url(#p4e1bab38d8)" style="fill: none; stroke: #e9e8e3; stroke-width: 0.7; stroke-linecap: round"/>
   </g>
   <g id="line2d_2">
    <path d="M 7.2 92.999726 
L 254.025964 92.999726 
" clip-path="url(#p4e1bab38d8)" style="fill: none; stroke: #e9e8e3; stroke-width: 0.7; stroke-linecap: round"/>
   </g>
   <g id="patch_3">
    <path d="M 62.050214 207.403099 
L 62.050214 26.9 
" style="fill: none; stroke: #52514e; stroke-width: 0.9; stroke-linejoin: miter; stroke-linecap: square"/>
   </g>
   <g id="patch_4">
    <path d="M 7.2 194.691613 
L 254.025964 194.691613 
" style="fill: none; stroke: #52514e; stroke-width: 0.9; stroke-linejoin: miter; stroke-linecap: square"/>
   </g>
   <g id="matplotlib.axis_1">
    <g id="xtick_1">
     <g id="line2d_3">
      <defs>
       <path id="mea416f7c7a" d="M 0 0 
L 0 3 
" style="stroke: #52514e; stroke-width: 0.8"/>
      </defs>
      <g>
       <use xlink:href="#mea416f7c7a" x="153.467238" y="194.691613" style="fill: #52514e; stroke: #52514e; stroke-width: 0.8"/>
      </g>
     </g>
     <g id="text_1">
      <g id="patch_5">
       <path d="M 150.168175 208.786613 
L 156.7663 208.786613 
L 156.7663 199.096613 
L 150.168175 199.096613 
z
" style="fill: #ffffff; opacity: 0.85"/>
      </g>
      <!-- 2 -->
      <g style="fill: #52514e" transform="translate(150.763175 206.149621) scale(0.085 -0.085)">
       <defs>
        <path id="DejaVuSans-15" d="M 1228 531 
L 3431 531 
L 3431 0 
L 469 0 
L 469 531 
Q 828 903 1448 1529 
Q 2069 2156 2228 2338 
Q 2531 2678 2651 2914 
Q 2772 3150 2772 3378 
Q 2772 3750 2511 3984 
Q 2250 4219 1831 4219 
Q 1534 4219 1204 4116 
Q 875 4013 500 3803 
L 500 4441 
Q 881 4594 1212 4672 
Q 1544 4750 1819 4750 
Q 2544 4750 2975 4387 
Q 3406 4025 3406 3419 
Q 3406 3131 3298 2873 
Q 3191 2616 2906 2266 
Q 2828 2175 2409 1742 
Q 1991 1309 1228 531 
z
" transform="scale(0.015625)"/>
       </defs>
       <use xlink:href="#DejaVuSans-15"/>
      </g>
     </g>
    </g>
   </g>
   <g id="matplotlib.axis_2">
    <g id="ytick_1">
     <g id="line2d_4">
      <defs>
       <path id="mfd0566a3cc" d="M 0 0 
L -3 0 
" style="stroke: #52514e; stroke-width: 0.8"/>
      </defs>
      <g>
       <use xlink:href="#mfd0566a3cc" x="62.050214" y="92.999726" style="fill: #52514e; stroke: #52514e; stroke-width: 0.8"/>
      </g>
     </g>
     <g id="text_2">
      <g id="patch_6">
       <path d="M 51.047089 98.865722 
L 57.645214 98.865722 
L 57.645214 89.175722 
L 51.047089 89.175722 
z
" style="fill: #ffffff; opacity: 0.85"/>
      </g>
      <!-- 4 -->
      <g style="fill: #52514e" transform="translate(51.642089 96.22873) scale(0.085 -0.085)">
       <defs>
        <path id="DejaVuSans-17" d="M 2419 4116 
L 825 1625 
L 2419 1625 
L 2419 4116 
z
M 2253 4666 
L 3047 4666 
L 3047 1625 
L 3713 1625 
L 3713 1100 
L 3047 1100 
L 3047 0 
L 2419 0 
L 2419 1100 
L 313 1100 
L 313 1709 
L 2253 4666 
z
" transform="scale(0.015625)"/>
       </defs>
       <use xlink:href="#DejaVuSans-17"/>
      </g>
     </g>
    </g>
   </g>
   <g id="line2d_5">
    <defs>
     <path id="m4fe79a03d0" d="M 2.25 0 
L -2.25 -2.25 
L -2.25 2.25 
z
" style="stroke: #52514e; stroke-linejoin: miter"/>
    </defs>
    <g>
     <use xlink:href="#m4fe79a03d0" x="254.025964" y="194.691613" style="fill: #52514e; stroke: #52514e; stroke-linejoin: miter"/>
    </g>
   </g>
   <g id="line2d_6">
    <defs>
     <path id="m0e7391c8de" d="M 0 -2.25 
L -2.25 2.25 
L 2.25 2.25 
z
" style="stroke: #52514e; stroke-linejoin: miter"/>
    </defs>
    <g>
     <use xlink:href="#m0e7391c8de" x="62.050214" y="26.9" style="fill: #52514e; stroke: #52514e; stroke-linejoin: miter"/>
    </g>
   </g>
   <g id="line2d_7">
    <path d="M 7.2 174.353235 
L 249.455112 39.611486 
L 249.455112 39.611486 
" clip-path="url(#p4e1bab38d8)" style="fill: none; stroke: #2a78d6; stroke-width: 2; stroke-linecap: round"/>
   </g>
   <g id="text_3">
    <!-- $x$ -->
    <g style="fill: #0b0b0b" transform="translate(256.987875 197.289269) scale(0.1 -0.1)">
     <defs>
      <path id="Cmmi10-3f" d="M 500 184 
Q 613 97 819 97 
Q 1019 97 1172 289 
Q 1325 481 1381 709 
L 1672 1844 
Q 1741 2153 1741 2266 
Q 1741 2425 1652 2544 
Q 1563 2663 1403 2663 
Q 1200 2663 1022 2536 
Q 844 2409 722 2214 
Q 600 2019 550 1819 
Q 538 1778 500 1778 
L 422 1778 
Q 372 1778 372 1838 
L 372 1856 
Q 434 2094 584 2320 
Q 734 2547 951 2687 
Q 1169 2828 1416 2828 
Q 1650 2828 1839 2703 
Q 2028 2578 2106 2363 
Q 2216 2559 2386 2693 
Q 2556 2828 2759 2828 
Q 2897 2828 3040 2779 
Q 3184 2731 3275 2631 
Q 3366 2531 3366 2381 
Q 3366 2219 3261 2101 
Q 3156 1984 2994 1984 
Q 2891 1984 2822 2050 
Q 2753 2116 2753 2216 
Q 2753 2350 2845 2451 
Q 2938 2553 3066 2572 
Q 2950 2663 2747 2663 
Q 2541 2663 2389 2472 
Q 2238 2281 2175 2047 
L 1894 916 
Q 1825 659 1825 494 
Q 1825 331 1917 214 
Q 2009 97 2163 97 
Q 2463 97 2698 361 
Q 2934 625 3009 941 
Q 3022 978 3059 978 
L 3138 978 
Q 3163 978 3178 961 
Q 3194 944 3194 922 
Q 3194 916 3188 903 
Q 3097 522 2806 225 
Q 2516 -72 2150 -72 
Q 1916 -72 1727 54 
Q 1538 181 1459 397 
Q 1359 209 1182 68 
Q 1006 -72 806 -72 
Q 669 -72 523 -23 
Q 378 25 287 125 
Q 197 225 197 378 
Q 197 528 301 651 
Q 406 775 563 775 
Q 669 775 741 711 
Q 813 647 813 544 
Q 813 409 723 309 
Q 634 209 500 184 
z
" transform="scale(0.015625)"/>
     </defs>
     <use xlink:href="#Cmmi10-3f" transform="translate(0 0.8125)"/>
    </g>
   </g>
   <g id="text_4">
    <!-- $y$ -->
    <g style="fill: #0b0b0b" transform="translate(68.050214 36.497656) scale(0.1 -0.1)">
     <defs>
      <path id="Cmmi10-72" d="M 538 -916 
Q 672 -1147 1006 -1147 
Q 1309 -1147 1531 -934 
Q 1753 -722 1889 -420 
Q 2025 -119 2100 197 
Q 1816 -72 1484 -72 
Q 1231 -72 1053 15 
Q 875 103 776 276 
Q 678 450 678 697 
Q 678 906 734 1126 
Q 791 1347 892 1617 
Q 994 1888 1069 2088 
Q 1153 2322 1153 2472 
Q 1153 2663 1013 2663 
Q 759 2663 595 2402 
Q 431 2141 353 1819 
Q 341 1778 300 1778 
L 225 1778 
Q 172 1778 172 1838 
L 172 1856 
Q 275 2238 487 2533 
Q 700 2828 1025 2828 
Q 1253 2828 1411 2678 
Q 1569 2528 1569 2297 
Q 1569 2178 1516 2047 
Q 1488 1969 1388 1706 
Q 1288 1444 1234 1272 
Q 1181 1100 1147 934 
Q 1113 769 1113 603 
Q 1113 391 1203 244 
Q 1294 97 1491 97 
Q 1888 97 2203 581 
L 2688 2553 
Q 2709 2638 2787 2698 
Q 2866 2759 2956 2759 
Q 3034 2759 3092 2709 
Q 3150 2659 3150 2578 
Q 3150 2541 3144 2528 
L 2509 -19 
Q 2425 -347 2200 -647 
Q 1975 -947 1658 -1130 
Q 1341 -1313 997 -1313 
Q 831 -1313 668 -1248 
Q 506 -1184 406 -1056 
Q 306 -928 306 -756 
Q 306 -581 409 -453 
Q 513 -325 684 -325 
Q 788 -325 858 -389 
Q 928 -453 928 -556 
Q 928 -703 818 -812 
Q 709 -922 563 -922 
Q 556 -919 550 -917 
Q 544 -916 538 -916 
z
" transform="scale(0.015625)"/>
     </defs>
     <use xlink:href="#Cmmi10-72" transform="translate(0 0.8125)"/>
    </g>
   </g>
   <g id="text_5">
    <!-- $\frac{x^2 - 4}{x - 2}$: ο παράγοντας φεύγει ⇒ τρύπα -->
    <g style="fill: #0b0b0b" transform="translate(40.962982 16.9) scale(0.1 -0.1)">
     <defs>
      <path id="Cmr10-31" d="M 319 0 
L 319 172 
Q 319 188 331 206 
L 1325 1306 
Q 1550 1550 1690 1715 
Q 1831 1881 1968 2097 
Q 2106 2313 2186 2536 
Q 2266 2759 2266 3009 
Q 2266 3272 2169 3511 
Q 2072 3750 1880 3894 
Q 1688 4038 1416 4038 
Q 1138 4038 916 3870 
Q 694 3703 603 3438 
Q 628 3444 672 3444 
Q 816 3444 917 3347 
Q 1019 3250 1019 3097 
Q 1019 2950 917 2848 
Q 816 2747 672 2747 
Q 522 2747 420 2851 
Q 319 2956 319 3097 
Q 319 3338 409 3548 
Q 500 3759 670 3923 
Q 841 4088 1055 4175 
Q 1269 4263 1509 4263 
Q 1875 4263 2190 4108 
Q 2506 3953 2690 3670 
Q 2875 3388 2875 3009 
Q 2875 2731 2753 2481 
Q 2631 2231 2440 2026 
Q 2250 1822 1953 1562 
Q 1656 1303 1563 1216 
L 838 519 
L 1453 519 
Q 1906 519 2211 526 
Q 2516 534 2534 550 
Q 2609 631 2688 1141 
L 2875 1141 
L 2694 0 
L 319 0 
z
" transform="scale(0.015625)"/>
      <path id="Cmsy10-11" d="M 653 1472 
Q 600 1472 565 1512 
Q 531 1553 531 1600 
Q 531 1647 565 1687 
Q 600 1728 653 1728 
L 4325 1728 
Q 4375 1728 4408 1687 
Q 4441 1647 4441 1600 
Q 4441 1553 4408 1512 
Q 4375 1472 4325 1472 
L 653 1472 
z
" transform="scale(0.015625)"/>
      <path id="Cmr10-3b" d="M 178 1056 
L 178 1281 
L 2156 4231 
Q 2178 4263 2222 4263 
L 2316 4263 
Q 2388 4263 2388 4191 
L 2388 1281 
L 3016 1281 
L 3016 1056 
L 2388 1056 
L 2388 428 
Q 2388 297 2575 261 
Q 2763 225 3009 225 
L 3009 0 
L 1247 0 
L 1247 225 
Q 1494 225 1681 261 
Q 1869 297 1869 428 
L 1869 1056 
L 178 1056 
z
M 391 1281 
L 1906 1281 
L 1906 3547 
L 391 1281 
z
" transform="scale(0.015625)"/>
      <path id="DejaVuSans-1d" d="M 750 794 
L 1409 794 
L 1409 0 
L 750 0 
L 750 794 
z
M 750 3309 
L 1409 3309 
L 1409 2516 
L 750 2516 
L 750 3309 
z
" transform="scale(0.015625)"/>
      <path id="DejaVuSans-3" transform="scale(0.015625)"/>
      <path id="DejaVuSans-353" d="M 1959 3097 
Q 1497 3097 1228 2736 
Q 959 2375 959 1747 
Q 959 1119 1226 758 
Q 1494 397 1959 397 
Q 2419 397 2687 759 
Q 2956 1122 2956 1747 
Q 2956 2369 2687 2733 
Q 2419 3097 1959 3097 
z
M 1959 3584 
Q 2709 3584 3137 3096 
Q 3566 2609 3566 1747 
Q 3566 888 3137 398 
Q 2709 -91 1959 -91 
Q 1206 -91 779 398 
Q 353 888 353 1747 
Q 353 2609 779 3096 
Q 1206 3584 1959 3584 
z
" transform="scale(0.015625)"/>
      <path id="DejaVuSans-354" d="M 231 3500 
L 3584 3500 
L 3584 2925 
L 3144 2925 
L 3144 775 
Q 3144 550 3220 451 
Q 3297 353 3469 353 
Q 3516 353 3584 361 
Q 3653 369 3675 372 
L 3675 -44 
Q 3566 -84 3450 -103 
Q 3334 -122 3219 -122 
Q 2844 -122 2700 83 
Q 2556 288 2556 838 
L 2556 2925 
L 1266 2925 
L 1266 0 
L 678 0 
L 678 2925 
L 231 2925 
L 231 3500 
z
" transform="scale(0.015625)"/>
      <path id="DejaVuSans-345" d="M 2644 1628 
L 2506 2350 
Q 2366 3091 1809 3091 
Q 1391 3091 1200 2747 
Q 959 2316 959 1747 
Q 959 1059 1194 731 
Q 1431 397 1809 397 
Q 2228 397 2453 1063 
L 2644 1628 
z
M 2966 2584 
L 3275 3500 
L 3788 3500 
L 3147 1603 
L 3272 919 
Q 3300 766 3409 638 
Q 3538 488 3638 488 
L 3913 488 
L 3913 0 
L 3569 0 
Q 3275 0 3013 263 
Q 2884 394 2831 669 
Q 2688 322 2394 50 
Q 2256 -78 1809 -78 
Q 1075 -78 719 397 
Q 353 888 353 1747 
Q 353 2666 750 3097 
Q 1191 3578 1809 3578 
Q 2781 3578 2966 2584 
z
" transform="scale(0.015625)"/>
      <path id="DejaVuSans-355" d="M 863 2875 
Q 1053 3194 1525 3475 
Q 1709 3584 2278 3584 
Q 2916 3584 3314 3078 
Q 3713 2572 3713 1747 
Q 3713 922 3314 415 
Q 2916 -91 2278 -91 
Q 1894 -91 1617 61 
Q 1341 213 1159 525 
L 1159 -1331 
L 581 -1331 
L 581 1716 
Q 581 2438 863 2875 
z
M 3116 1747 
Q 3116 2381 2855 2742 
Q 2594 3103 2138 3103 
Q 1681 3103 1420 2742 
Q 1159 2381 1159 1747 
Q 1159 1113 1420 752 
Q 1681 391 2138 391 
Q 2594 391 2855 752 
Q 3116 1113 3116 1747 
z
" transform="scale(0.015625)"/>
      <path id="DejaVuSans-340" d="M 2644 1628 
L 2506 2350 
Q 2366 3091 1809 3091 
Q 1391 3091 1200 2747 
Q 959 2316 959 1747 
Q 959 1059 1194 731 
Q 1431 397 1809 397 
Q 2228 397 2453 1063 
L 2644 1628 
z
M 2966 2584 
L 3275 3500 
L 3788 3500 
L 3147 1603 
L 3272 919 
Q 3300 766 3409 638 
Q 3538 488 3638 488 
L 3913 488 
L 3913 0 
L 3569 0 
Q 3275 0 3013 263 
Q 2884 394 2831 669 
Q 2688 322 2394 50 
Q 2256 -78 1809 -78 
Q 1075 -78 719 397 
Q 353 888 353 1747 
Q 353 2666 750 3097 
Q 1191 3578 1809 3578 
Q 2781 3578 2966 2584 
z
M 2378 5119 
L 3000 5119 
L 1982 3944 
L 1503 3944 
L 2378 5119 
z
" transform="scale(0.015625)"/>
      <path id="DejaVuSans-347" d="M 1128 2950 
L 1894 788 
L 2988 3500 
L 3597 3500 
L 2181 0 
L 2181 -1331 
L 1606 -1331 
L 1606 0 
L 688 2613 
Q 550 3006 253 3006 
L 100 3006 
L 100 3500 
L 319 3500 
Q 934 3500 1128 2950 
z
" transform="scale(0.015625)"/>
      <path id="DejaVuSans-351" d="M 1300 0 
L 231 3500 
L 850 3500 
L 1753 563 
Q 2128 950 2441 1488 
Q 2678 1891 2691 2241 
Q 2697 2406 2622 2719 
Q 2534 3091 2203 3500 
L 2784 3500 
L 2784 3500 
Q 3000 3222 3144 2834 
Q 3275 2478 3275 2234 
Q 3275 1622 2850 1075 
Q 2297 363 1913 0 
L 1300 0 
z
" transform="scale(0.015625)"/>
      <path id="DejaVuSans-358" d="M 2319 638 
Q 2431 488 2769 488 
L 3047 488 
L 3047 0 
L 2700 0 
Q 2138 0 1881 300 
Q 1625 606 1625 1269 
L 1625 2925 
L 313 2925 
L 313 3500 
L 3541 3500 
L 3541 2925 
L 2213 2925 
L 2213 1234 
Q 2213 781 2319 638 
z
" transform="scale(0.015625)"/>
      <path id="DejaVuSans-356" d="M 2125 -91 
Q 1284 -91 818 406 
Q 353 903 353 1747 
Q 353 2603 823 3093 
Q 1294 3584 2113 3584 
Q 2378 3584 2631 3529 
Q 2884 3475 3122 3366 
L 3122 2828 
Q 2878 2963 2633 3030 
Q 2388 3097 2138 3097 
Q 1578 3097 1268 2742 
Q 959 2388 959 1747 
Q 959 1106 1268 751 
Q 1578 397 2125 397 
Q 2534 397 2784 159 
Q 3047 -88 3047 -463 
Q 3047 -822 2816 -1072 
Q 2566 -1344 2056 -1344 
Q 2056 -1109 2056 -872 
Q 2272 -888 2403 -750 
Q 2503 -641 2503 -525 
Q 2503 -359 2403 -222 
Q 2306 -91 2125 -91 
z
" transform="scale(0.015625)"/>
      <path id="DejaVuSans-35a" d="M 2591 3034 
Q 2388 3034 2388 2581 
L 2388 438 
Q 2684 438 2981 763 
Q 3247 1053 3247 1750 
Q 3247 2400 2978 2750 
Q 2759 3034 2591 3034 
z
M 2591 3525 
Q 3028 3525 3425 3113 
Q 3853 2672 3853 1750 
Q 3853 903 3425 400 
Q 3022 -75 2388 -75 
L 2388 -1331 
L 1816 -1331 
L 1816 -78 
Q 1194 -78 775 400 
Q 350 888 350 1747 
Q 350 2641 775 3097 
Q 1094 3438 1613 3525 
L 1613 3016 
Q 1406 2944 1225 2700 
Q 956 2341 956 1747 
Q 956 1116 1225 756 
Q 1466 434 1816 434 
L 1816 2581 
Q 1816 3525 2591 3525 
z
" transform="scale(0.015625)"/>
      <path id="DejaVuSans-349" d="M 1234 1888 
Q 884 1963 697 2166 
Q 509 2366 509 2656 
Q 509 3097 866 3344 
Q 1219 3588 1831 3588 
Q 2069 3588 2334 3550 
Q 2600 3513 2906 3438 
L 2906 2916 
Q 2603 3006 2353 3047 
Q 2100 3088 1878 3088 
Q 1506 3088 1291 2944 
Q 1072 2800 1072 2600 
Q 1072 2381 1284 2241 
Q 1494 2103 1856 2103 
L 2341 2103 
L 2341 1628 
L 1878 1628 
Q 1450 1628 1225 1469 
Q 981 1294 981 1019 
Q 981 738 1244 563 
Q 1509 388 1981 388 
Q 2272 388 2538 444 
Q 2803 503 3025 619 
L 3025 84 
Q 2744 -3 2481 -47 
Q 2216 -91 1966 -91 
Q 1222 -91 819 194 
Q 416 478 416 1019 
Q 416 1356 631 1584 
Q 847 1813 1234 1888 
z
" transform="scale(0.015625)"/>
      <path id="DejaVuSans-361" d="M 2140 5119 
L 2762 5119 
L 1744 3944 
L 1265 3944 
L 2140 5119 
z
M 1056 3500 
L 1056 1234 
Q 1056 813 1213 613 
Q 1384 397 1719 397 
Q 2188 397 2516 1047 
Q 2700 1416 2747 2000 
Q 2772 2319 2678 2719 
Q 2591 3091 2259 3500 
L 2841 3500 
L 2841 3500 
Q 3059 3219 3200 2834 
Q 3331 2475 3331 1994 
Q 3331 1203 2931 619 
Q 2444 -94 1650 -91 
Q 1091 -91 775 284 
Q 469 653 469 1269 
L 466 3500 
L 1056 3500 
z
" transform="scale(0.015625)"/>
      <path id="DejaVuSans-34d" d="M 1109 3500 
L 1109 1234 
Q 1109 781 1216 638 
Q 1328 488 1666 488 
L 1944 488 
L 1944 0 
L 1597 0 
Q 1034 0 778 300 
Q 522 606 522 1269 
L 519 3500 
L 1109 3500 
z
" transform="scale(0.015625)"/>
      <path id="DejaVuSans-c5c" d="M 4113 1678 
L 4441 2006 
L 4113 2334 
L 366 2334 
L 366 2709 
L 3738 2709 
L 3447 3000 
L 3822 3375 
L 5050 2147 
L 5050 1866 
L 3822 638 
L 3447 1013 
L 3738 1303 
L 366 1303 
L 366 1678 
L 4113 1678 
z
" transform="scale(0.015625)"/>
     </defs>
     <use xlink:href="#Cmmi10-3f" transform="translate(6.25 35.458942) scale(0.7)"/>
     <use xlink:href="#Cmr10-31" transform="translate(54.088182 64.361406) scale(0.49)"/>
     <use xlink:href="#Cmsy10-11" transform="translate(96.592513 35.458942) scale(0.7)"/>
     <use xlink:href="#Cmr10-3b" transform="translate(164.972436 35.458942) scale(0.7)"/>
     <use xlink:href="#Cmmi10-3f" transform="translate(24.25 -30.70512) scale(0.7)"/>
     <use xlink:href="#Cmsy10-11" transform="translate(78.206095 -30.70512) scale(0.7)"/>
     <use xlink:href="#Cmr10-31" transform="translate(146.586018 -30.70512) scale(0.7)"/>
     <use xlink:href="#DejaVuSans-1d" transform="translate(206.222436 0.296442)"/>
     <use xlink:href="#DejaVuSans-3" transform="translate(239.913842 0.296442)"/>
     <use xlink:href="#DejaVuSans-353" transform="translate(271.700951 0.296442)"/>
     <use xlink:href="#DejaVuSans-3" transform="translate(332.882592 0.296442)"/>
     <use xlink:href="#DejaVuSans-354" transform="translate(364.669701 0.296442)"/>
     <use xlink:href="#DejaVuSans-345" transform="translate(424.874779 0.296442)"/>
     <use xlink:href="#DejaVuSans-355" transform="translate(490.792748 0.296442)"/>
     <use xlink:href="#DejaVuSans-340" transform="translate(554.269311 0.296442)"/>
     <use xlink:href="#DejaVuSans-347" transform="translate(620.187279 0.296442)"/>
     <use xlink:href="#DejaVuSans-353" transform="translate(679.366967 0.296442)"/>
     <use xlink:href="#DejaVuSans-351" transform="translate(740.548608 0.296442)"/>
     <use xlink:href="#DejaVuSans-358" transform="translate(796.407983 0.296442)"/>
     <use xlink:href="#DejaVuSans-345" transform="translate(856.613061 0.296442)"/>
     <use xlink:href="#DejaVuSans-356" transform="translate(922.531029 0.296442)"/>
     <use xlink:href="#DejaVuSans-3" transform="translate(981.222436 0.296442)"/>
     <use xlink:href="#DejaVuSans-35a" transform="translate(1013.009545 0.296442)"/>
     <use xlink:href="#DejaVuSans-349" transform="translate(1078.976342 0.296442)"/>
     <use xlink:href="#DejaVuSans-361" transform="translate(1133.029076 0.296442)"/>
     <use xlink:href="#DejaVuSans-347" transform="translate(1190.890404 0.296442)"/>
     <use xlink:href="#DejaVuSans-349" transform="translate(1250.070092 0.296442)"/>
     <use xlink:href="#DejaVuSans-34d" transform="translate(1304.122826 0.296442)"/>
     <use xlink:href="#DejaVuSans-3" transform="translate(1337.960717 0.296442)"/>
     <use xlink:href="#DejaVuSans-c5c" transform="translate(1369.747826 0.296442)"/>
     <use xlink:href="#DejaVuSans-3" transform="translate(1453.536889 0.296442)"/>
     <use xlink:href="#DejaVuSans-358" transform="translate(1485.323998 0.296442)"/>
     <use xlink:href="#DejaVuSans-355" transform="translate(1545.529076 0.296442)"/>
     <use xlink:href="#DejaVuSans-361" transform="translate(1609.005639 0.296442)"/>
     <use xlink:href="#DejaVuSans-354" transform="translate(1666.866967 0.296442)"/>
     <use xlink:href="#DejaVuSans-345" transform="translate(1727.072045 0.296442)"/>
     <path d="M 6.25 22.171442 
L 6.25 28.421442 
L 199.972436 28.421442 
L 199.972436 22.171442 
L 6.25 22.171442 
z
"/>
    </g>
   </g>
   <g id="line2d_8">
    <defs>
     <path id="m684d7f8ae3" d="M 0 3.25 
C 0.86191 3.25 1.688635 2.907559 2.298097 2.298097 
C 2.907559 1.688635 3.25 0.86191 3.25 0 
C 3.25 -0.86191 2.907559 -1.688635 2.298097 -2.298097 
C 1.688635 -2.907559 0.86191 -3.25 0 -3.25 
C -0.86191 -3.25 -1.688635 -2.907559 -2.298097 -2.298097 
C -2.907559 -1.688635 -3.25 -0.86191 -3.25 0 
C -3.25 0.86191 -2.907559 1.688635 -2.298097 2.298097 
C -1.688635 2.907559 -0.86191 3.25 0 3.25 
z
" style="stroke: #2a78d6; stroke-width: 1.7"/>
    </defs>
    <g>
     <use xlink:href="#m684d7f8ae3" x="153.467238" y="92.999726" style="fill: #ffffff; stroke: #2a78d6; stroke-width: 1.7"/>
    </g>
   </g>
  </g>
  <g id="axes_2">
   <g id="patch_7">
    <path d="M 292.2 207.403099 
L 539.025964 207.403099 
L 539.025964 26.9 
L 292.2 26.9 
z
" style="fill: #ffffff"/>
   </g>
   <g id="line2d_9">
    <path d="M 415.612982 207.403099 
L 415.612982 26.9 
" clip-path="url(#p6324e07a2a)" style="fill: none; stroke: #e9e8e3; stroke-width: 0.7; stroke-linecap: round"/>
   </g>
   <g id="line2d_10">
    <path d="M 292.2 153.252169 
L 539.025964 153.252169 
" clip-path="url(#p6324e07a2a)" style="fill: none; stroke: #e9e8e3; stroke-width: 0.7; stroke-linecap: round"/>
   </g>
   <g id="line2d_11">
    <path d="M 292.2 81.05093 
L 539.025964 81.05093 
" clip-path="url(#p6324e07a2a)" style="fill: none; stroke: #e9e8e3; stroke-width: 0.7; stroke-linecap: round"/>
   </g>
   <g id="line2d_12">
    <path d="M 415.612982 207.403099 
L 415.612982 26.9 
" clip-path="url(#p6324e07a2a)" style="fill: none; stroke-dasharray: 4.4,3.3; stroke-dashoffset: 0; stroke: #8a8984; stroke-width: 1.1"/>
   </g>
   <g id="patch_8">
    <path d="M 374.475321 207.403099 
L 374.475321 26.9 
" style="fill: none; stroke: #52514e; stroke-width: 0.9; stroke-linejoin: miter; stroke-linecap: square"/>
   </g>
   <g id="patch_9">
    <path d="M 292.2 117.151549 
L 539.025964 117.151549 
" style="fill: none; stroke: #52514e; stroke-width: 0.9; stroke-linejoin: miter; stroke-linecap: square"/>
   </g>
   <g id="matplotlib.axis_3">
    <g id="xtick_2">
     <g id="line2d_13">
      <g>
       <use xlink:href="#mea416f7c7a" x="415.612982" y="117.151549" style="fill: #52514e; stroke: #52514e; stroke-width: 0.8"/>
      </g>
     </g>
     <g id="text_6">
      <g id="patch_10">
       <path d="M 412.313919 131.246549 
L 418.912044 131.246549 
L 418.912044 121.556549 
L 412.313919 121.556549 
z
" style="fill: #ffffff; opacity: 0.85"/>
      </g>
      <!-- 1 -->
      <g style="fill: #52514e" transform="translate(412.908919 128.609557) scale(0.085 -0.085)">
       <defs>
        <path id="DejaVuSans-14" d="M 794 531 
L 1825 531 
L 1825 4091 
L 703 3866 
L 703 4441 
L 1819 4666 
L 2450 4666 
L 2450 531 
L 3481 531 
L 3481 0 
L 794 0 
L 794 531 
z
" transform="scale(0.015625)"/>
       </defs>
       <use xlink:href="#DejaVuSans-14"/>
      </g>
     </g>
    </g>
   </g>
   <g id="matplotlib.axis_4">
    <g id="ytick_2">
     <g id="line2d_14">
      <g>
       <use xlink:href="#mfd0566a3cc" x="374.475321" y="153.252169" style="fill: #52514e; stroke: #52514e; stroke-width: 0.8"/>
      </g>
     </g>
     <g id="text_7">
      <g id="patch_11">
       <path d="M 356.349462 159.118165 
L 370.070321 159.118165 
L 370.070321 149.428165 
L 356.349462 149.428165 
z
" style="fill: #ffffff; opacity: 0.85"/>
      </g>
      <!-- −2 -->
      <g style="fill: #52514e" transform="translate(356.944462 156.481173) scale(0.085 -0.085)">
       <defs>
        <path id="DejaVuSans-c9c" d="M 678 2272 
L 4684 2272 
L 4684 1741 
L 678 1741 
L 678 2272 
z
" transform="scale(0.015625)"/>
       </defs>
       <use xlink:href="#DejaVuSans-c9c"/>
       <use xlink:href="#DejaVuSans-15" transform="translate(83.796875 0)"/>
      </g>
     </g>
    </g>
    <g id="ytick_3">
     <g id="line2d_15">
      <g>
       <use xlink:href="#mfd0566a3cc" x="374.475321" y="81.05093" style="fill: #52514e; stroke: #52514e; stroke-width: 0.8"/>
      </g>
     </g>
     <g id="text_8">
      <g id="patch_12">
       <path d="M 363.472196 86.916926 
L 370.070321 86.916926 
L 370.070321 77.226926 
L 363.472196 77.226926 
z
" style="fill: #ffffff; opacity: 0.85"/>
      </g>
      <!-- 2 -->
      <g style="fill: #52514e" transform="translate(364.067196 84.279933) scale(0.085 -0.085)">
       <use xlink:href="#DejaVuSans-15"/>
      </g>
     </g>
    </g>
   </g>
   <g id="line2d_16">
    <g>
     <use xlink:href="#m4fe79a03d0" x="539.025964" y="117.151549" style="fill: #52514e; stroke: #52514e; stroke-linejoin: miter"/>
    </g>
   </g>
   <g id="line2d_17">
    <g>
     <use xlink:href="#m0e7391c8de" x="374.475321" y="26.9" style="fill: #52514e; stroke: #52514e; stroke-linejoin: miter"/>
    </g>
   </g>
   <g id="line2d_18">
    <path d="M 292.2 123.168319 
L 307.892697 124.044843 
L 320.732176 124.977658 
L 331.431741 125.972369 
L 340.398997 127.024015 
L 347.939643 128.124076 
L 354.461283 129.294262 
L 360.065818 130.519424 
L 364.957048 131.810198 
L 369.236874 133.162973 
L 373.007197 134.579876 
L 376.369918 136.073301 
L 379.426937 137.671822 
L 382.178254 139.360419 
L 384.623869 141.11311 
L 386.865683 142.981716 
L 389.005596 145.059121 
L 390.941708 147.249205 
L 392.775919 149.666568 
L 394.50823 152.335451 
L 396.13864 155.28108 
L 397.667149 158.528705 
L 399.093758 162.102058 
L 400.418466 166.020992 
L 401.641274 170.298059 
L 402.864081 175.395592 
L 403.984988 181.010159 
L 405.105895 187.822662 
L 406.124901 195.412638 
L 407.143907 204.829079 
L 408.061013 215.476576 
L 408.130345 216.391613 
L 408.130345 216.391613 
" clip-path="url(#p6324e07a2a)" style="fill: none; stroke: #2a78d6; stroke-width: 2; stroke-linecap: round"/>
   </g>
   <g id="line2d_19">
    <path d="M 421.898092 -1 
L 422.757348 13.216854 
L 423.674454 25.040886 
L 424.69346 35.377494 
L 425.712466 43.628239 
L 426.833373 50.973151 
L 428.056181 57.476579 
L 429.278988 62.816179 
L 430.603696 67.617718 
L 432.030305 71.922037 
L 433.456914 75.538102 
L 434.985423 78.821454 
L 436.615833 81.796944 
L 438.348144 84.490796 
L 440.182355 86.929064 
L 442.118467 89.136687 
L 444.25838 91.229497 
L 446.500194 93.110936 
L 448.945809 94.874786 
L 451.595226 96.515051 
L 454.550344 98.08124 
L 457.811164 99.554878 
L 461.479586 100.962265 
L 465.555611 102.283539 
L 470.14114 103.53386 
L 475.338072 104.718792 
L 481.350209 105.855856 
L 488.279451 106.932978 
L 496.329601 107.952111 
L 505.704459 108.909399 
L 516.811627 109.814025 
L 530.058708 110.663343 
L 539.025964 111.134779 
L 539.025964 111.134779 
" clip-path="url(#p6324e07a2a)" style="fill: none; stroke: #2a78d6; stroke-width: 2; stroke-linecap: round"/>
   </g>
   <g id="text_9">
    <!-- $x$ -->
    <g style="fill: #0b0b0b" transform="translate(541.987875 119.749206) scale(0.1 -0.1)">
     <use xlink:href="#Cmmi10-3f" transform="translate(0 0.8125)"/>
    </g>
   </g>
   <g id="text_10">
    <!-- $y$ -->
    <g style="fill: #0b0b0b" transform="translate(380.475321 36.497656) scale(0.1 -0.1)">
     <use xlink:href="#Cmmi10-72" transform="translate(0 0.8125)"/>
    </g>
   </g>
   <g id="text_11">
    <!-- $\frac{x - 1}{(x - 1)^2}$: μένει κάτω ⇒ ασύμπτωτη -->
    <g style="fill: #0b0b0b" transform="translate(335.162982 16.9) scale(0.1 -0.1)">
     <defs>
      <path id="Cmr10-64" d="M 594 0 
L 594 225 
Q 1394 225 1394 428 
L 1394 3788 
Q 1063 3628 556 3628 
L 556 3853 
Q 1341 3853 1741 4263 
L 1831 4263 
Q 1853 4263 1873 4245 
Q 1894 4228 1894 4206 
L 1894 428 
Q 1894 225 2694 225 
L 2694 0 
L 594 0 
z
" transform="scale(0.015625)"/>
      <path id="Cmr10-77" d="M 1984 -1588 
Q 1628 -1306 1370 -942 
Q 1113 -578 948 -165 
Q 784 247 703 697 
Q 622 1147 622 1600 
Q 622 2059 703 2509 
Q 784 2959 951 3375 
Q 1119 3791 1378 4153 
Q 1638 4516 1984 4788 
Q 1984 4800 2016 4800 
L 2075 4800 
Q 2094 4800 2109 4783 
Q 2125 4766 2125 4744 
Q 2125 4716 2113 4703 
Q 1800 4397 1592 4047 
Q 1384 3697 1257 3301 
Q 1131 2906 1075 2482 
Q 1019 2059 1019 1600 
Q 1019 -434 2106 -1491 
Q 2125 -1509 2125 -1544 
Q 2125 -1559 2108 -1579 
Q 2091 -1600 2075 -1600 
L 2016 -1600 
Q 1984 -1600 1984 -1588 
z
" transform="scale(0.015625)"/>
      <path id="Cmr10-44" d="M 416 -1600 
Q 359 -1600 359 -1544 
Q 359 -1516 372 -1503 
Q 1466 -434 1466 1600 
Q 1466 3634 384 4691 
Q 359 4706 359 4744 
Q 359 4766 376 4783 
Q 394 4800 416 4800 
L 475 4800 
Q 494 4800 506 4788 
Q 966 4425 1272 3906 
Q 1578 3388 1720 2800 
Q 1863 2213 1863 1600 
Q 1863 1147 1786 708 
Q 1709 269 1542 -157 
Q 1375 -584 1119 -945 
Q 863 -1306 506 -1588 
Q 494 -1600 475 -1600 
L 416 -1600 
z
" transform="scale(0.015625)"/>
      <path id="DejaVuSans-350" d="M 544 -1331 
L 544 3500 
L 1119 3500 
L 1119 1325 
Q 1119 872 1334 640 
Q 1550 409 1972 409 
Q 2434 409 2667 671 
Q 2900 934 2900 1459 
L 2900 3500 
L 3475 3500 
L 3475 806 
Q 3475 619 3529 530 
Q 3584 441 3700 441 
Q 3728 441 3778 458 
Q 3828 475 3916 513 
L 3916 50 
Q 3788 -22 3673 -56 
Q 3559 -91 3450 -91 
Q 3234 -91 3106 31 
Q 2978 153 2931 403 
Q 2775 156 2548 32 
Q 2322 -91 2016 -91 
Q 1697 -91 1473 31 
Q 1250 153 1119 397 
L 1119 -1331 
L 544 -1331 
z
" transform="scale(0.015625)"/>
      <path id="DejaVuSans-341" d="M 2284 5119 
L 2906 5119 
L 1888 3944 
L 1409 3944 
L 2284 5119 
z
M 1234 1888 
Q 884 1963 697 2166 
Q 509 2366 509 2656 
Q 509 3097 866 3344 
Q 1219 3588 1831 3588 
Q 2069 3588 2334 3550 
Q 2600 3513 2906 3438 
L 2906 2916 
Q 2603 3006 2353 3047 
Q 2100 3088 1878 3088 
Q 1506 3088 1291 2944 
Q 1072 2800 1072 2600 
Q 1072 2381 1284 2241 
Q 1494 2103 1856 2103 
L 2341 2103 
L 2341 1628 
L 1878 1628 
Q 1450 1628 1225 1469 
Q 981 1294 981 1019 
Q 981 738 1244 563 
Q 1509 388 1981 388 
Q 2272 388 2538 444 
Q 2803 503 3025 619 
L 3025 84 
Q 2744 -3 2481 -47 
Q 2216 -91 1966 -91 
Q 1222 -91 819 194 
Q 416 478 416 1019 
Q 416 1356 631 1584 
Q 847 1813 1234 1888 
z
" transform="scale(0.015625)"/>
      <path id="DejaVuSans-34e" d="M 597 3500 
L 1191 3500 
L 1191 2047 
L 2700 3500 
L 3400 3500 
L 2022 2181 
L 3616 0 
L 2913 0 
L 1619 1806 
L 1191 1403 
L 1191 0 
L 597 0 
L 597 3500 
z
" transform="scale(0.015625)"/>
      <path id="DejaVuSans-35d" d="M 1719 -91 
Q 422 -91 422 1766 
Q 422 2500 906 3500 
L 1525 3500 
Q 1078 2500 1078 1750 
Q 1078 397 1772 397 
Q 2406 397 2406 2078 
L 2938 2078 
Q 2938 397 3572 397 
Q 4266 397 4266 1750 
Q 4266 2500 3819 3500 
L 4438 3500 
Q 4922 2500 4922 1766 
Q 4922 -91 3625 -91 
Q 2775 -91 2672 844 
Q 2544 -91 1719 -91 
z
" transform="scale(0.015625)"/>
      <path id="DejaVuSans-357" d="M 1959 3044 
Q 1484 3044 1228 2700 
Q 959 2341 959 1747 
Q 959 1119 1226 758 
Q 1494 397 1959 397 
Q 2419 397 2687 759 
Q 2956 1122 2956 1747 
Q 2956 2319 2688 2700 
Q 2441 3044 1959 3044 
z
M 1959 3500 
L 3869 3500 
L 3869 2925 
L 3225 2925 
Q 3566 2438 3566 1747 
Q 3566 888 3138 400 
Q 2709 -91 1959 -91 
Q 1206 -91 781 400 
Q 353 888 353 1747 
Q 353 2613 781 3097 
Q 1134 3500 1959 3500 
z
" transform="scale(0.015625)"/>
      <path id="DejaVuSans-34b" d="M 3513 2113 
L 3513 -1331 
L 2938 -1331 
L 2938 2094 
Q 2938 2591 2744 2837 
Q 2550 3084 2163 3084 
Q 1697 3084 1428 2787 
Q 1159 2491 1159 1978 
L 1159 0 
L 581 0 
L 581 3500 
L 1159 3500 
L 1159 2956 
Q 1366 3272 1644 3428 
Q 1925 3584 2291 3584 
Q 2894 3584 3203 3213 
Q 3513 2838 3513 2113 
z
" transform="scale(0.015625)"/>
     </defs>
     <use xlink:href="#Cmmi10-3f" transform="translate(49.25 35.373438) scale(0.7)"/>
     <use xlink:href="#Cmsy10-11" transform="translate(103.206095 35.373438) scale(0.7)"/>
     <use xlink:href="#Cmr10-64" transform="translate(171.586018 35.373438) scale(0.7)"/>
     <use xlink:href="#Cmr10-77" transform="translate(6.25 -45.70512) scale(0.7)"/>
     <use xlink:href="#Cmmi10-3f" transform="translate(33.422852 -45.70512) scale(0.7)"/>
     <use xlink:href="#Cmsy10-11" transform="translate(87.378946 -45.70512) scale(0.7)"/>
     <use xlink:href="#Cmr10-64" transform="translate(155.758869 -45.70512) scale(0.7)"/>
     <use xlink:href="#Cmr10-44" transform="translate(190.758869 -45.70512) scale(0.7)"/>
     <use xlink:href="#Cmr10-31" transform="translate(220.734724 -16.802656) scale(0.49)"/>
     <use xlink:href="#DejaVuSans-1d" transform="translate(255.489015 0.210938)"/>
     <use xlink:href="#DejaVuSans-3" transform="translate(289.180421 0.210938)"/>
     <use xlink:href="#DejaVuSans-350" transform="translate(320.967531 0.210938)"/>
     <use xlink:href="#DejaVuSans-341" transform="translate(384.590578 0.210938)"/>
     <use xlink:href="#DejaVuSans-351" transform="translate(438.643312 0.210938)"/>
     <use xlink:href="#DejaVuSans-349" transform="translate(494.502687 0.210938)"/>
     <use xlink:href="#DejaVuSans-34d" transform="translate(548.555421 0.210938)"/>
     <use xlink:href="#DejaVuSans-3" transform="translate(582.393312 0.210938)"/>
     <use xlink:href="#DejaVuSans-34e" transform="translate(614.180421 0.210938)"/>
     <use xlink:href="#DejaVuSans-340" transform="translate(673.115968 0.210938)"/>
     <use xlink:href="#DejaVuSans-358" transform="translate(739.033937 0.210938)"/>
     <use xlink:href="#DejaVuSans-35d" transform="translate(799.239015 0.210938)"/>
     <use xlink:href="#DejaVuSans-3" transform="translate(882.97925 0.210938)"/>
     <use xlink:href="#DejaVuSans-c5c" transform="translate(914.766359 0.210938)"/>
     <use xlink:href="#DejaVuSans-3" transform="translate(998.555421 0.210938)"/>
     <use xlink:href="#DejaVuSans-345" transform="translate(1030.342531 0.210938)"/>
     <use xlink:href="#DejaVuSans-357" transform="translate(1096.2605 0.210938)"/>
     <use xlink:href="#DejaVuSans-361" transform="translate(1159.639406 0.210938)"/>
     <use xlink:href="#DejaVuSans-350" transform="translate(1217.500734 0.210938)"/>
     <use xlink:href="#DejaVuSans-354" transform="translate(1281.123781 0.210938)"/>
     <use xlink:href="#DejaVuSans-358" transform="translate(1341.328859 0.210938)"/>
     <use xlink:href="#DejaVuSans-35d" transform="translate(1401.533937 0.210938)"/>
     <use xlink:href="#DejaVuSans-358" transform="translate(1485.274171 0.210938)"/>
     <use xlink:href="#DejaVuSans-34b" transform="translate(1545.47925 0.210938)"/>
     <path d="M 6.25 22.085938 
L 6.25 28.335938 
L 249.239015 28.335938 
L 249.239015 22.085938 
L 6.25 22.085938 
z
"/>
    </g>
   </g>
  </g>
 </g>
 <defs>
  <clipPath id="p4e1bab38d8">
   <rect x="7.2" y="26.9" width="246.825964" height="180.503099"/>
  </clipPath>
  <clipPath id="p6324e07a2a">
   <rect x="292.2" y="26.9" width="246.825964" height="180.503099"/>
  </clipPath>
 </defs>
</svg>
