<?xml version="1.0" encoding="utf-8" standalone="no"?>
<!DOCTYPE svg PUBLIC "-//W3C//DTD SVG 1.1//EN"
  "http://www.w3.org/Graphics/SVG/1.1/DTD/svg11.dtd">
<svg xmlns:xlink="http://www.w3.org/1999/xlink" width="612.497267pt" height="223.2pt" viewBox="0 0 612.497267 223.2" xmlns="http://www.w3.org/2000/svg" version="1.1">
 <metadata>
  <rdf:RDF xmlns:dc="http://purl.org/dc/elements/1.1/" xmlns:cc="http://creativecommons.org/ns#" xmlns:rdf="http://www.w3.org/1999/02/22-rdf-syntax-ns#">
   <cc:Work>
    <dc:type rdf:resource="http://purl.org/dc/dcmitype/StillImage"/>
    <dc:format>image/svg+xml</dc:format>
    <dc:creator>
     <cc:Agent>
      <dc:title>Matplotlib v3.11.2, https://matplotlib.org/</dc:title>
     </cc:Agent>
    </dc:creator>
   </cc:Work>
  </rdf:RDF>
 </metadata>
 <defs>
  <style type="text/css">*{stroke-linejoin: round; stroke-linecap: butt}</style>
 </defs>
 <g id="figure_1">
  <g id="patch_1">
   <path d="M 0 223.2 
L 612.497267 223.2 
L 612.497267 0 
L 0 0 
z
" style="fill: #ffffff"/>
  </g>
  <g id="axes_1">
   <g id="patch_2">
    <path d="M 28.424375 202.5 
L 287.990598 202.5 
L 287.990598 25.4 
L 28.424375 25.4 
z
" style="fill: #ffffff"/>
   </g>
   <g id="line2d_1">
    <path d="M 112.155415 202.5 
L 112.155415 25.4 
" clip-path="url(#p57430425c8)" style="fill: none; stroke: #e9e8e3; stroke-width: 0.7; stroke-linecap: round"/>
   </g>
   <g id="line2d_2">
    <path d="M 195.886454 202.5 
L 195.886454 25.4 
" clip-path="url(#p57430425c8)" style="fill: none; stroke: #e9e8e3; stroke-width: 0.7; stroke-linecap: round"/>
   </g>
   <g id="line2d_3">
    <path d="M 279.617494 202.5 
L 279.617494 25.4 
" clip-path="url(#p57430425c8)" style="fill: none; stroke: #e9e8e3; stroke-width: 0.7; stroke-linecap: round"/>
   </g>
   <g id="line2d_4">
    <path d="M 28.424375 134.384615 
L 287.990598 134.384615 
" clip-path="url(#p57430425c8)" style="fill: none; stroke: #e9e8e3; stroke-width: 0.7; stroke-linecap: round"/>
   </g>
   <g id="line2d_5">
    <path d="M 28.424375 66.269231 
L 287.990598 66.269231 
" clip-path="url(#p57430425c8)" style="fill: none; stroke: #e9e8e3; stroke-width: 0.7; stroke-linecap: round"/>
   </g>
   <g id="patch_3">
    <path d="M 28.424375 202.5 
L 28.424375 25.4 
" style="fill: none; stroke: #52514e; stroke-width: 0.9; stroke-linejoin: miter; stroke-linecap: square"/>
   </g>
   <g id="patch_4">
    <path d="M 28.424375 202.5 
L 287.990598 202.5 
" style="fill: none; stroke: #52514e; stroke-width: 0.9; stroke-linejoin: miter; stroke-linecap: square"/>
   </g>
   <g id="matplotlib.axis_1">
    <g id="xtick_1">
     <g id="line2d_6">
      <defs>
       <path id="mea416f7c7a" d="M 0 0 
L 0 3 
" style="stroke: #52514e; stroke-width: 0.8"/>
      </defs>
      <g>
       <use xlink:href="#mea416f7c7a" x="112.155415" y="202.5" style="fill: #52514e; stroke: #52514e; stroke-width: 0.8"/>
      </g>
     </g>
     <g id="text_1">
      <g id="patch_5">
       <path d="M 108.856352 216.595 
L 115.454477 216.595 
L 115.454477 206.905 
L 108.856352 206.905 
z
" style="fill: #ffffff; opacity: 0.85"/>
      </g>
      <!-- 2 -->
      <g style="fill: #52514e" transform="translate(109.451352 213.958008) scale(0.085 -0.085)">
       <defs>
        <path id="DejaVuSans-15" d="M 1228 531 
L 3431 531 
L 3431 0 
L 469 0 
L 469 531 
Q 828 903 1448 1529 
Q 2069 2156 2228 2338 
Q 2531 2678 2651 2914 
Q 2772 3150 2772 3378 
Q 2772 3750 2511 3984 
Q 2250 4219 1831 4219 
Q 1534 4219 1204 4116 
Q 875 4013 500 3803 
L 500 4441 
Q 881 4594 1212 4672 
Q 1544 4750 1819 4750 
Q 2544 4750 2975 4387 
Q 3406 4025 3406 3419 
Q 3406 3131 3298 2873 
Q 3191 2616 2906 2266 
Q 2828 2175 2409 1742 
Q 1991 1309 1228 531 
z
" transform="scale(0.015625)"/>
       </defs>
       <use xlink:href="#DejaVuSans-15"/>
      </g>
     </g>
    </g>
    <g id="xtick_2">
     <g id="line2d_7">
      <g>
       <use xlink:href="#mea416f7c7a" x="195.886454" y="202.5" style="fill: #52514e; stroke: #52514e; stroke-width: 0.8"/>
      </g>
     </g>
     <g id="text_2">
      <g id="patch_6">
       <path d="M 192.587392 216.595 
L 199.185517 216.595 
L 199.185517 206.905 
L 192.587392 206.905 
z
" style="fill: #ffffff; opacity: 0.85"/>
      </g>
      <!-- 4 -->
      <g style="fill: #52514e" transform="translate(193.182392 213.958008) scale(0.085 -0.085)">
       <defs>
        <path id="DejaVuSans-17" d="M 2419 4116 
L 825 1625 
L 2419 1625 
L 2419 4116 
z
M 2253 4666 
L 3047 4666 
L 3047 1625 
L 3713 1625 
L 3713 1100 
L 3047 1100 
L 3047 0 
L 2419 0 
L 2419 1100 
L 313 1100 
L 313 1709 
L 2253 4666 
z
" transform="scale(0.015625)"/>
       </defs>
       <use xlink:href="#DejaVuSans-17"/>
      </g>
     </g>
    </g>
    <g id="xtick_3">
     <g id="line2d_8">
      <g>
       <use xlink:href="#mea416f7c7a" x="279.617494" y="202.5" style="fill: #52514e; stroke: #52514e; stroke-width: 0.8"/>
      </g>
     </g>
     <g id="text_3">
      <g id="patch_7">
       <path d="M 276.318431 216.595 
L 282.916556 216.595 
L 282.916556 206.905 
L 276.318431 206.905 
z
" style="fill: #ffffff; opacity: 0.85"/>
      </g>
      <!-- 6 -->
      <g style="fill: #52514e" transform="translate(276.913431 213.958008) scale(0.085 -0.085)">
       <defs>
        <path id="DejaVuSans-19" d="M 2113 2584 
Q 1688 2584 1439 2293 
Q 1191 2003 1191 1497 
Q 1191 994 1439 701 
Q 1688 409 2113 409 
Q 2538 409 2786 701 
Q 3034 994 3034 1497 
Q 3034 2003 2786 2293 
Q 2538 2584 2113 2584 
z
M 3366 4563 
L 3366 3988 
Q 3128 4100 2886 4159 
Q 2644 4219 2406 4219 
Q 1781 4219 1451 3797 
Q 1122 3375 1075 2522 
Q 1259 2794 1537 2939 
Q 1816 3084 2150 3084 
Q 2853 3084 3261 2657 
Q 3669 2231 3669 1497 
Q 3669 778 3244 343 
Q 2819 -91 2113 -91 
Q 1303 -91 875 529 
Q 447 1150 447 2328 
Q 447 3434 972 4092 
Q 1497 4750 2381 4750 
Q 2619 4750 2861 4703 
Q 3103 4656 3366 4563 
z
" transform="scale(0.015625)"/>
       </defs>
       <use xlink:href="#DejaVuSans-19"/>
      </g>
     </g>
    </g>
   </g>
   <g id="matplotlib.axis_2">
    <g id="ytick_1">
     <g id="line2d_9">
      <defs>
       <path id="mfd0566a3cc" d="M 0 0 
L -3 0 
" style="stroke: #52514e; stroke-width: 0.8"/>
      </defs>
      <g>
       <use xlink:href="#mfd0566a3cc" x="28.424375" y="134.384615" style="fill: #52514e; stroke: #52514e; stroke-width: 0.8"/>
      </g>
     </g>
     <g id="text_4">
      <g id="patch_8">
       <path d="M 6.605 140.250611 
L 24.019375 140.250611 
L 24.019375 130.560611 
L 6.605 130.560611 
z
" style="fill: #ffffff; opacity: 0.85"/>
      </g>
      <!-- 100 -->
      <g style="fill: #52514e" transform="translate(7.2 137.613619) scale(0.085 -0.085)">
       <defs>
        <path id="DejaVuSans-14" d="M 794 531 
L 1825 531 
L 1825 4091 
L 703 3866 
L 703 4441 
L 1819 4666 
L 2450 4666 
L 2450 531 
L 3481 531 
L 3481 0 
L 794 0 
L 794 531 
z
" transform="scale(0.015625)"/>
        <path id="DejaVuSans-13" d="M 2034 4250 
Q 1547 4250 1301 3770 
Q 1056 3291 1056 2328 
Q 1056 1369 1301 889 
Q 1547 409 2034 409 
Q 2525 409 2770 889 
Q 3016 1369 3016 2328 
Q 3016 3291 2770 3770 
Q 2525 4250 2034 4250 
z
M 2034 4750 
Q 2819 4750 3233 4129 
Q 3647 3509 3647 2328 
Q 3647 1150 3233 529 
Q 2819 -91 2034 -91 
Q 1250 -91 836 529 
Q 422 1150 422 2328 
Q 422 3509 836 4129 
Q 1250 4750 2034 4750 
z
" transform="scale(0.015625)"/>
       </defs>
       <use xlink:href="#DejaVuSans-14"/>
       <use xlink:href="#DejaVuSans-13" transform="translate(63.625 0)"/>
       <use xlink:href="#DejaVuSans-13" transform="translate(127.25 0)"/>
      </g>
     </g>
    </g>
    <g id="ytick_2">
     <g id="line2d_10">
      <g>
       <use xlink:href="#mfd0566a3cc" x="28.424375" y="66.269231" style="fill: #52514e; stroke: #52514e; stroke-width: 0.8"/>
      </g>
     </g>
     <g id="text_5">
      <g id="patch_9">
       <path d="M 6.605 72.135227 
L 24.019375 72.135227 
L 24.019375 62.445227 
L 6.605 62.445227 
z
" style="fill: #ffffff; opacity: 0.85"/>
      </g>
      <!-- 200 -->
      <g style="fill: #52514e" transform="translate(7.2 69.498235) scale(0.085 -0.085)">
       <use xlink:href="#DejaVuSans-15"/>
       <use xlink:href="#DejaVuSans-13" transform="translate(63.625 0)"/>
       <use xlink:href="#DejaVuSans-13" transform="translate(127.25 0)"/>
      </g>
     </g>
    </g>
   </g>
   <g id="line2d_11">
    <defs>
     <path id="m4fe79a03d0" d="M 2.25 0 
L -2.25 -2.25 
L -2.25 2.25 
z
" style="stroke: #52514e; stroke-linejoin: miter"/>
    </defs>
    <g>
     <use xlink:href="#m4fe79a03d0" x="287.990598" y="202.5" style="fill: #52514e; stroke: #52514e; stroke-linejoin: miter"/>
    </g>
   </g>
   <g id="line2d_12">
    <defs>
     <path id="m0e7391c8de" d="M 0 -2.25 
L -2.25 2.25 
L 2.25 2.25 
z
" style="stroke: #52514e; stroke-linejoin: miter"/>
    </defs>
    <g>
     <use xlink:href="#m0e7391c8de" x="28.424375" y="25.4" style="fill: #52514e; stroke: #52514e; stroke-linejoin: miter"/>
    </g>
   </g>
   <g id="line2d_13">
    <path d="M 28.424375 202.5 
L 51.214721 202.390118 
L 63.355373 202.104352 
L 73.579079 201.645357 
L 82.737816 201.012703 
L 91.044578 200.220607 
L 98.925352 199.247172 
L 106.380138 198.102352 
L 113.408936 196.802349 
L 120.22474 195.318602 
L 126.827551 193.654893 
L 133.217368 191.81751 
L 139.39419 189.815004 
L 145.571013 187.576687 
L 151.534842 185.17949 
L 157.498671 182.538414 
L 163.249506 179.749639 
L 169.000341 176.712516 
L 174.751176 173.416452 
L 180.289017 169.987845 
L 185.826858 166.29984 
L 191.364699 162.34298 
L 196.90254 158.107805 
L 202.440381 153.584856 
L 207.978222 148.764673 
L 213.516063 143.637799 
L 219.053904 138.194773 
L 224.591745 132.426137 
L 230.129586 126.322432 
L 235.667427 119.874198 
L 241.205268 113.071976 
L 246.743109 105.906308 
L 252.28095 98.367734 
L 257.818792 90.446796 
L 263.356633 82.134034 
L 268.894474 73.419989 
L 274.432315 64.295202 
L 279.970156 54.750214 
L 283.804046 47.891019 
L 283.804046 47.891019 
" clip-path="url(#p57430425c8)" style="fill: none; stroke-dasharray: 10,5; stroke-dashoffset: 0; stroke: #eb6834; stroke-width: 2"/>
   </g>
   <g id="line2d_14">
    <path d="M 28.424375 201.818846 
L 50.149751 201.355503 
L 67.402256 200.771837 
L 81.459853 200.082247 
L 93.600504 199.268875 
L 104.037205 198.354094 
L 113.408936 197.313939 
L 121.715698 196.17576 
L 129.383478 194.904602 
L 136.412276 193.516115 
L 142.802092 192.034757 
L 148.765921 190.432551 
L 154.516756 188.655665 
L 159.841603 186.77793 
L 164.953457 184.73612 
L 169.639322 182.63233 
L 174.112194 180.392148 
L 178.585065 177.899375 
L 182.844943 175.264444 
L 186.891827 172.500305 
L 190.725717 169.623322 
L 194.559607 166.470436 
L 198.180503 163.215557 
L 201.801399 159.666637 
L 205.422295 155.797109 
L 208.830197 151.836424 
L 212.2381 147.539849 
L 215.646002 142.878899 
L 219.053904 137.822672 
L 222.248812 132.693696 
L 225.443721 127.157987 
L 228.638629 121.183291 
L 231.833537 114.734796 
L 235.028446 107.774929 
L 238.223354 100.263138 
L 241.418262 92.155654 
L 244.613171 83.405239 
L 247.808079 73.960907 
L 251.002987 63.767631 
L 253.984902 53.525865 
L 256.966816 42.528013 
L 259.94873 30.718256 
L 262.930645 18.036657 
L 265.912559 4.418852 
L 267.042362 -1 
L 267.042362 -1 
" clip-path="url(#p57430425c8)" style="fill: none; stroke: #2a78d6; stroke-width: 2; stroke-linecap: round"/>
   </g>
   <g id="text_6">
    <!-- $x$ -->
    <g style="fill: #0b0b0b" transform="translate(291.105392 205.097656) scale(0.1 -0.1)">
     <defs>
      <path id="Cmmi10-3f" d="M 500 184 
Q 613 97 819 97 
Q 1019 97 1172 289 
Q 1325 481 1381 709 
L 1672 1844 
Q 1741 2153 1741 2266 
Q 1741 2425 1652 2544 
Q 1563 2663 1403 2663 
Q 1200 2663 1022 2536 
Q 844 2409 722 2214 
Q 600 2019 550 1819 
Q 538 1778 500 1778 
L 422 1778 
Q 372 1778 372 1838 
L 372 1856 
Q 434 2094 584 2320 
Q 734 2547 951 2687 
Q 1169 2828 1416 2828 
Q 1650 2828 1839 2703 
Q 2028 2578 2106 2363 
Q 2216 2559 2386 2693 
Q 2556 2828 2759 2828 
Q 2897 2828 3040 2779 
Q 3184 2731 3275 2631 
Q 3366 2531 3366 2381 
Q 3366 2219 3261 2101 
Q 3156 1984 2994 1984 
Q 2891 1984 2822 2050 
Q 2753 2116 2753 2216 
Q 2753 2350 2845 2451 
Q 2938 2553 3066 2572 
Q 2950 2663 2747 2663 
Q 2541 2663 2389 2472 
Q 2238 2281 2175 2047 
L 1894 916 
Q 1825 659 1825 494 
Q 1825 331 1917 214 
Q 2009 97 2163 97 
Q 2463 97 2698 361 
Q 2934 625 3009 941 
Q 3022 978 3059 978 
L 3138 978 
Q 3163 978 3178 961 
Q 3194 944 3194 922 
Q 3194 916 3188 903 
Q 3097 522 2806 225 
Q 2516 -72 2150 -72 
Q 1916 -72 1727 54 
Q 1538 181 1459 397 
Q 1359 209 1182 68 
Q 1006 -72 806 -72 
Q 669 -72 523 -23 
Q 378 25 287 125 
Q 197 225 197 378 
Q 197 528 301 651 
Q 406 775 563 775 
Q 669 775 741 711 
Q 813 647 813 544 
Q 813 409 723 309 
Q 634 209 500 184 
z
" transform="scale(0.015625)"/>
     </defs>
     <use xlink:href="#Cmmi10-3f" transform="translate(0 0.8125)"/>
    </g>
   </g>
   <g id="text_7">
    <!-- $y$ -->
    <g style="fill: #0b0b0b" transform="translate(34.424375 34.997656) scale(0.1 -0.1)">
     <defs>
      <path id="Cmmi10-72" d="M 538 -916 
Q 672 -1147 1006 -1147 
Q 1309 -1147 1531 -934 
Q 1753 -722 1889 -420 
Q 2025 -119 2100 197 
Q 1816 -72 1484 -72 
Q 1231 -72 1053 15 
Q 875 103 776 276 
Q 678 450 678 697 
Q 678 906 734 1126 
Q 791 1347 892 1617 
Q 994 1888 1069 2088 
Q 1153 2322 1153 2472 
Q 1153 2663 1013 2663 
Q 759 2663 595 2402 
Q 431 2141 353 1819 
Q 341 1778 300 1778 
L 225 1778 
Q 172 1778 172 1838 
L 172 1856 
Q 275 2238 487 2533 
Q 700 2828 1025 2828 
Q 1253 2828 1411 2678 
Q 1569 2528 1569 2297 
Q 1569 2178 1516 2047 
Q 1488 1969 1388 1706 
Q 1288 1444 1234 1272 
Q 1181 1100 1147 934 
Q 1113 769 1113 603 
Q 1113 391 1203 244 
Q 1294 97 1491 97 
Q 1888 97 2203 581 
L 2688 2553 
Q 2709 2638 2787 2698 
Q 2866 2759 2956 2759 
Q 3034 2759 3092 2709 
Q 3150 2659 3150 2578 
Q 3150 2541 3144 2528 
L 2509 -19 
Q 2425 -347 2200 -647 
Q 1975 -947 1658 -1130 
Q 1341 -1313 997 -1313 
Q 831 -1313 668 -1248 
Q 506 -1184 406 -1056 
Q 306 -928 306 -756 
Q 306 -581 409 -453 
Q 513 -325 684 -325 
Q 788 -325 858 -389 
Q 928 -453 928 -556 
Q 928 -703 818 -812 
Q 709 -922 563 -922 
Q 556 -919 550 -917 
Q 544 -916 538 -916 
z
" transform="scale(0.015625)"/>
     </defs>
     <use xlink:href="#Cmmi10-72" transform="translate(0 0.8125)"/>
    </g>
   </g>
   <g id="patch_10">
    <path d="M 117.487566 93.939635 
Q 166.088628 115.59596 213.770578 136.842735 
" style="fill: none; stroke: #8a8984; stroke-width: 0.9; stroke-linecap: round"/>
    <path d="M 211.498853 134.078813 
L 213.770578 136.842735 
L 210.196405 137.001762 
z
" style="fill: #8a8984; stroke: #8a8984; stroke-width: 0.9; stroke-linecap: round"/>
   </g>
   <g id="text_8">
    <!-- $x \approx 4.54$: η $e^x$ περνά μπροστά -->
    <g style="fill: #52514e" transform="translate(40.984031 89.08285) scale(0.085 -0.085)">
     <defs>
      <path id="Cmsy10-17" d="M 447 359 
Q 378 359 359 519 
L 359 556 
Q 359 847 501 1087 
Q 644 1328 891 1464 
Q 1138 1600 1422 1600 
Q 1766 1600 2130 1379 
Q 2494 1159 2853 937 
Q 3213 716 3553 716 
Q 3881 716 4157 919 
Q 4434 1122 4434 1441 
Q 4453 1600 4525 1600 
Q 4597 1600 4616 1441 
L 4616 1403 
Q 4616 1113 4472 872 
Q 4328 631 4083 495 
Q 3838 359 3553 359 
Q 3284 359 3048 470 
Q 2813 581 2495 795 
Q 2178 1009 1937 1125 
Q 1697 1241 1422 1241 
Q 1219 1241 1009 1150 
Q 800 1059 669 895 
Q 538 731 538 519 
Q 519 359 447 359 
z
M 447 1850 
Q 378 1850 359 2009 
L 359 2047 
Q 359 2338 501 2578 
Q 644 2819 891 2955 
Q 1138 3091 1422 3091 
Q 1766 3091 2130 2870 
Q 2494 2650 2853 2429 
Q 3213 2209 3553 2209 
Q 3881 2209 4157 2412 
Q 4434 2616 4434 2931 
Q 4453 3091 4525 3091 
Q 4597 3091 4616 2931 
L 4616 2894 
Q 4616 2603 4472 2362 
Q 4328 2122 4083 1986 
Q 3838 1850 3553 1850 
Q 3284 1850 3048 1961 
Q 2813 2072 2495 2286 
Q 2178 2500 1937 2615 
Q 1697 2731 1422 2731 
Q 1219 2731 1009 2640 
Q 800 2550 669 2386 
Q 538 2222 538 2009 
Q 519 1850 447 1850 
z
" transform="scale(0.015625)"/>
      <path id="Cmr10-3b" d="M 178 1056 
L 178 1281 
L 2156 4231 
Q 2178 4263 2222 4263 
L 2316 4263 
Q 2388 4263 2388 4191 
L 2388 1281 
L 3016 1281 
L 3016 1056 
L 2388 1056 
L 2388 428 
Q 2388 297 2575 261 
Q 2763 225 3009 225 
L 3009 0 
L 1247 0 
L 1247 225 
Q 1494 225 1681 261 
Q 1869 297 1869 428 
L 1869 1056 
L 178 1056 
z
M 391 1281 
L 1906 1281 
L 1906 3547 
L 391 1281 
z
" transform="scale(0.015625)"/>
      <path id="Cmmi10-33" d="M 538 353 
Q 538 497 644 600 
Q 750 703 891 703 
Q 978 703 1062 656 
Q 1147 609 1194 525 
Q 1241 441 1241 353 
Q 1241 213 1137 106 
Q 1034 0 891 0 
Q 750 0 644 106 
Q 538 213 538 353 
z
" transform="scale(0.015625)"/>
      <path id="Cmr10-78" d="M 556 728 
Q 622 541 758 387 
Q 894 234 1080 148 
Q 1266 63 1466 63 
Q 1928 63 2103 422 
Q 2278 781 2278 1294 
Q 2278 1516 2270 1667 
Q 2263 1819 2228 1959 
Q 2169 2184 2020 2353 
Q 1872 2522 1656 2522 
Q 1441 2522 1286 2456 
Q 1131 2391 1034 2303 
Q 938 2216 863 2119 
Q 788 2022 769 2016 
L 697 2016 
Q 681 2016 657 2036 
Q 634 2056 634 2075 
L 634 4213 
Q 634 4228 654 4245 
Q 675 4263 697 4263 
L 716 4263 
Q 1147 4056 1631 4056 
Q 2106 4056 2547 4263 
L 2566 4263 
Q 2588 4263 2606 4247 
Q 2625 4231 2625 4213 
L 2625 4153 
Q 2625 4122 2613 4122 
Q 2394 3831 2064 3668 
Q 1734 3506 1381 3506 
Q 1125 3506 856 3578 
L 856 2369 
Q 1069 2541 1236 2614 
Q 1403 2688 1663 2688 
Q 2016 2688 2295 2484 
Q 2575 2281 2725 1954 
Q 2875 1628 2875 1288 
Q 2875 903 2686 575 
Q 2497 247 2172 53 
Q 1847 -141 1466 -141 
Q 1150 -141 886 21 
Q 622 184 470 459 
Q 319 734 319 1044 
Q 319 1188 412 1278 
Q 506 1369 647 1369 
Q 788 1369 883 1276 
Q 978 1184 978 1044 
Q 978 906 883 811 
Q 788 716 647 716 
Q 625 716 597 720 
Q 569 725 556 728 
z
" transform="scale(0.015625)"/>
      <path id="DejaVuSans-1d" d="M 750 794 
L 1409 794 
L 1409 0 
L 750 0 
L 750 794 
z
M 750 3309 
L 1409 3309 
L 1409 2516 
L 750 2516 
L 750 3309 
z
" transform="scale(0.015625)"/>
      <path id="DejaVuSans-3" transform="scale(0.015625)"/>
      <path id="DejaVuSans-34b" d="M 3513 2113 
L 3513 -1331 
L 2938 -1331 
L 2938 2094 
Q 2938 2591 2744 2837 
Q 2550 3084 2163 3084 
Q 1697 3084 1428 2787 
Q 1159 2491 1159 1978 
L 1159 0 
L 581 0 
L 581 3500 
L 1159 3500 
L 1159 2956 
Q 1366 3272 1644 3428 
Q 1925 3584 2291 3584 
Q 2894 3584 3203 3213 
Q 3513 2838 3513 2113 
z
" transform="scale(0.015625)"/>
      <path id="Cmmi10-3" d="M 1288 -72 
Q 981 -72 751 87 
Q 522 247 401 517 
Q 281 788 281 1088 
Q 281 1544 511 1945 
Q 741 2347 1134 2587 
Q 1528 2828 1978 2828 
Q 2253 2828 2458 2686 
Q 2663 2544 2663 2278 
Q 2663 1909 2369 1729 
Q 2075 1550 1706 1508 
Q 1338 1466 891 1466 
L 872 1466 
Q 769 1084 769 813 
Q 769 528 900 312 
Q 1031 97 1300 97 
Q 1681 97 2032 272 
Q 2384 447 2606 756 
Q 2625 775 2656 775 
Q 2688 775 2720 739 
Q 2753 703 2753 672 
Q 2753 647 2741 634 
Q 2506 306 2109 117 
Q 1713 -72 1288 -72 
z
M 909 1631 
Q 1281 1631 1597 1665 
Q 1913 1700 2169 1839 
Q 2425 1978 2425 2272 
Q 2425 2391 2359 2480 
Q 2294 2569 2189 2616 
Q 2084 2663 1972 2663 
Q 1700 2663 1483 2516 
Q 1266 2369 1125 2133 
Q 984 1897 909 1631 
z
" transform="scale(0.015625)"/>
      <path id="DejaVuSans-354" d="M 231 3500 
L 3584 3500 
L 3584 2925 
L 3144 2925 
L 3144 775 
Q 3144 550 3220 451 
Q 3297 353 3469 353 
Q 3516 353 3584 361 
Q 3653 369 3675 372 
L 3675 -44 
Q 3566 -84 3450 -103 
Q 3334 -122 3219 -122 
Q 2844 -122 2700 83 
Q 2556 288 2556 838 
L 2556 2925 
L 1266 2925 
L 1266 0 
L 678 0 
L 678 2925 
L 231 2925 
L 231 3500 
z
" transform="scale(0.015625)"/>
      <path id="DejaVuSans-349" d="M 1234 1888 
Q 884 1963 697 2166 
Q 509 2366 509 2656 
Q 509 3097 866 3344 
Q 1219 3588 1831 3588 
Q 2069 3588 2334 3550 
Q 2600 3513 2906 3438 
L 2906 2916 
Q 2603 3006 2353 3047 
Q 2100 3088 1878 3088 
Q 1506 3088 1291 2944 
Q 1072 2800 1072 2600 
Q 1072 2381 1284 2241 
Q 1494 2103 1856 2103 
L 2341 2103 
L 2341 1628 
L 1878 1628 
Q 1450 1628 1225 1469 
Q 981 1294 981 1019 
Q 981 738 1244 563 
Q 1509 388 1981 388 
Q 2272 388 2538 444 
Q 2803 503 3025 619 
L 3025 84 
Q 2744 -3 2481 -47 
Q 2216 -91 1966 -91 
Q 1222 -91 819 194 
Q 416 478 416 1019 
Q 416 1356 631 1584 
Q 847 1813 1234 1888 
z
" transform="scale(0.015625)"/>
      <path id="DejaVuSans-355" d="M 863 2875 
Q 1053 3194 1525 3475 
Q 1709 3584 2278 3584 
Q 2916 3584 3314 3078 
Q 3713 2572 3713 1747 
Q 3713 922 3314 415 
Q 2916 -91 2278 -91 
Q 1894 -91 1617 61 
Q 1341 213 1159 525 
L 1159 -1331 
L 581 -1331 
L 581 1716 
Q 581 2438 863 2875 
z
M 3116 1747 
Q 3116 2381 2855 2742 
Q 2594 3103 2138 3103 
Q 1681 3103 1420 2742 
Q 1159 2381 1159 1747 
Q 1159 1113 1420 752 
Q 1681 391 2138 391 
Q 2594 391 2855 752 
Q 3116 1113 3116 1747 
z
" transform="scale(0.015625)"/>
      <path id="DejaVuSans-351" d="M 1300 0 
L 231 3500 
L 850 3500 
L 1753 563 
Q 2128 950 2441 1488 
Q 2678 1891 2691 2241 
Q 2697 2406 2622 2719 
Q 2534 3091 2203 3500 
L 2784 3500 
L 2784 3500 
Q 3000 3222 3144 2834 
Q 3275 2478 3275 2234 
Q 3275 1622 2850 1075 
Q 2297 363 1913 0 
L 1300 0 
z
" transform="scale(0.015625)"/>
      <path id="DejaVuSans-340" d="M 2644 1628 
L 2506 2350 
Q 2366 3091 1809 3091 
Q 1391 3091 1200 2747 
Q 959 2316 959 1747 
Q 959 1059 1194 731 
Q 1431 397 1809 397 
Q 2228 397 2453 1063 
L 2644 1628 
z
M 2966 2584 
L 3275 3500 
L 3788 3500 
L 3147 1603 
L 3272 919 
Q 3300 766 3409 638 
Q 3538 488 3638 488 
L 3913 488 
L 3913 0 
L 3569 0 
Q 3275 0 3013 263 
Q 2884 394 2831 669 
Q 2688 322 2394 50 
Q 2256 -78 1809 -78 
Q 1075 -78 719 397 
Q 353 888 353 1747 
Q 353 2666 750 3097 
Q 1191 3578 1809 3578 
Q 2781 3578 2966 2584 
z
M 2378 5119 
L 3000 5119 
L 1982 3944 
L 1503 3944 
L 2378 5119 
z
" transform="scale(0.015625)"/>
      <path id="DejaVuSans-350" d="M 544 -1331 
L 544 3500 
L 1119 3500 
L 1119 1325 
Q 1119 872 1334 640 
Q 1550 409 1972 409 
Q 2434 409 2667 671 
Q 2900 934 2900 1459 
L 2900 3500 
L 3475 3500 
L 3475 806 
Q 3475 619 3529 530 
Q 3584 441 3700 441 
Q 3728 441 3778 458 
Q 3828 475 3916 513 
L 3916 50 
Q 3788 -22 3673 -56 
Q 3559 -91 3450 -91 
Q 3234 -91 3106 31 
Q 2978 153 2931 403 
Q 2775 156 2548 32 
Q 2322 -91 2016 -91 
Q 1697 -91 1473 31 
Q 1250 153 1119 397 
L 1119 -1331 
L 544 -1331 
z
" transform="scale(0.015625)"/>
      <path id="DejaVuSans-353" d="M 1959 3097 
Q 1497 3097 1228 2736 
Q 959 2375 959 1747 
Q 959 1119 1226 758 
Q 1494 397 1959 397 
Q 2419 397 2687 759 
Q 2956 1122 2956 1747 
Q 2956 2369 2687 2733 
Q 2419 3097 1959 3097 
z
M 1959 3584 
Q 2709 3584 3137 3096 
Q 3566 2609 3566 1747 
Q 3566 888 3137 398 
Q 2709 -91 1959 -91 
Q 1206 -91 779 398 
Q 353 888 353 1747 
Q 353 2609 779 3096 
Q 1206 3584 1959 3584 
z
" transform="scale(0.015625)"/>
      <path id="DejaVuSans-357" d="M 1959 3044 
Q 1484 3044 1228 2700 
Q 959 2341 959 1747 
Q 959 1119 1226 758 
Q 1494 397 1959 397 
Q 2419 397 2687 759 
Q 2956 1122 2956 1747 
Q 2956 2319 2688 2700 
Q 2441 3044 1959 3044 
z
M 1959 3500 
L 3869 3500 
L 3869 2925 
L 3225 2925 
Q 3566 2438 3566 1747 
Q 3566 888 3138 400 
Q 2709 -91 1959 -91 
Q 1206 -91 781 400 
Q 353 888 353 1747 
Q 353 2613 781 3097 
Q 1134 3500 1959 3500 
z
" transform="scale(0.015625)"/>
      <path id="DejaVuSans-358" d="M 2319 638 
Q 2431 488 2769 488 
L 3047 488 
L 3047 0 
L 2700 0 
Q 2138 0 1881 300 
Q 1625 606 1625 1269 
L 1625 2925 
L 313 2925 
L 313 3500 
L 3541 3500 
L 3541 2925 
L 2213 2925 
L 2213 1234 
Q 2213 781 2319 638 
z
" transform="scale(0.015625)"/>
     </defs>
     <use xlink:href="#Cmmi10-3f" transform="translate(0 0.015625)"/>
     <use xlink:href="#Cmsy10-17" transform="translate(77.080135 0.015625)"/>
     <use xlink:href="#Cmr10-3b" transform="translate(174.765739 0.015625)"/>
     <use xlink:href="#Cmmi10-33" transform="translate(224.765739 0.015625)"/>
     <use xlink:href="#Cmr10-78" transform="translate(252.451286 0.015625)"/>
     <use xlink:href="#Cmr10-3b" transform="translate(302.451286 0.015625)"/>
     <use xlink:href="#DejaVuSans-1d" transform="translate(352.451286 0.015625)"/>
     <use xlink:href="#DejaVuSans-3" transform="translate(386.142693 0.015625)"/>
     <use xlink:href="#DejaVuSans-34b" transform="translate(417.929802 0.015625)"/>
     <use xlink:href="#DejaVuSans-3" transform="translate(481.308708 0.015625)"/>
     <use xlink:href="#Cmmi10-3" transform="translate(513.095818 0.015625)"/>
     <use xlink:href="#Cmmi10-3f" transform="translate(570.840374 41.304859) scale(0.7)"/>
     <use xlink:href="#DejaVuSans-3" transform="translate(616.516845 0.015625)"/>
     <use xlink:href="#DejaVuSans-354" transform="translate(648.303954 0.015625)"/>
     <use xlink:href="#DejaVuSans-349" transform="translate(708.509032 0.015625)"/>
     <use xlink:href="#DejaVuSans-355" transform="translate(762.561766 0.015625)"/>
     <use xlink:href="#DejaVuSans-351" transform="translate(826.038329 0.015625)"/>
     <use xlink:href="#DejaVuSans-340" transform="translate(881.897704 0.015625)"/>
     <use xlink:href="#DejaVuSans-3" transform="translate(947.815673 0.015625)"/>
     <use xlink:href="#DejaVuSans-350" transform="translate(979.602782 0.015625)"/>
     <use xlink:href="#DejaVuSans-354" transform="translate(1043.225829 0.015625)"/>
     <use xlink:href="#DejaVuSans-355" transform="translate(1103.430907 0.015625)"/>
     <use xlink:href="#DejaVuSans-353" transform="translate(1166.90747 0.015625)"/>
     <use xlink:href="#DejaVuSans-357" transform="translate(1228.08911 0.015625)"/>
     <use xlink:href="#DejaVuSans-358" transform="translate(1291.468016 0.015625)"/>
     <use xlink:href="#DejaVuSans-340" transform="translate(1351.673095 0.015625)"/>
    </g>
   </g>
   <g id="text_9">
    <!-- $x^n \ll e^x$: τελικά κερδίζει η $e^x$ -->
    <g style="fill: #0b0b0b" transform="translate(86.507486 15.4) scale(0.1 -0.1)">
     <defs>
      <path id="Cmmi10-7a" d="M 494 109 
Q 494 147 500 166 
L 978 2075 
Q 1025 2253 1025 2388 
Q 1025 2663 838 2663 
Q 638 2663 541 2423 
Q 444 2184 353 1819 
Q 353 1800 334 1789 
Q 316 1778 300 1778 
L 225 1778 
Q 203 1778 187 1801 
Q 172 1825 172 1844 
Q 241 2122 305 2315 
Q 369 2509 505 2668 
Q 641 2828 844 2828 
Q 1084 2828 1268 2676 
Q 1453 2525 1453 2291 
Q 1644 2541 1900 2684 
Q 2156 2828 2444 2828 
Q 2672 2828 2837 2750 
Q 3003 2672 3095 2514 
Q 3188 2356 3188 2138 
Q 3188 1875 3070 1503 
Q 2953 1131 2778 672 
Q 2688 463 2688 288 
Q 2688 97 2834 97 
Q 3084 97 3251 365 
Q 3419 634 3488 941 
Q 3500 978 3541 978 
L 3616 978 
Q 3641 978 3658 962 
Q 3675 947 3675 922 
Q 3675 916 3669 903 
Q 3581 541 3364 234 
Q 3147 -72 2822 -72 
Q 2597 -72 2437 83 
Q 2278 238 2278 459 
Q 2278 578 2328 709 
Q 2409 919 2514 1209 
Q 2619 1500 2686 1765 
Q 2753 2031 2753 2234 
Q 2753 2413 2679 2538 
Q 2606 2663 2431 2663 
Q 2197 2663 2000 2559 
Q 1803 2456 1656 2286 
Q 1509 2116 1388 1881 
L 953 141 
Q 931 53 854 -9 
Q 778 -72 684 -72 
Q 606 -72 550 -22 
Q 494 28 494 109 
z
" transform="scale(0.015625)"/>
      <path id="Cmsy10-55" d="M 422 1491 
Q 359 1522 359 1600 
Q 359 1678 422 1709 
L 3891 3609 
Q 3947 3628 3956 3628 
Q 4006 3628 4045 3589 
Q 4084 3550 4084 3500 
Q 4084 3431 4025 3391 
L 756 1600 
L 4025 -191 
Q 4084 -231 4084 -300 
Q 4084 -350 4045 -389 
Q 4006 -428 3956 -428 
Q 3944 -428 3926 -422 
Q 3909 -416 3891 -409 
L 422 1491 
z
M 2375 1491 
Q 2309 1522 2309 1600 
Q 2309 1675 2375 1709 
L 5844 3609 
Q 5900 3628 5906 3628 
Q 5963 3628 5998 3592 
Q 6034 3556 6034 3500 
Q 6034 3431 5978 3391 
L 2706 1600 
L 5978 -191 
Q 6034 -231 6034 -300 
Q 6034 -353 5998 -390 
Q 5963 -428 5906 -428 
Q 5897 -428 5880 -422 
Q 5863 -416 5844 -409 
L 2375 1491 
z
" transform="scale(0.015625)"/>
      <path id="DejaVuSans-34f" d="M 1981 4316 
L 3597 0 
L 2988 0 
L 2006 2588 
L 800 0 
L 191 0 
L 1725 3356 
L 1494 3975 
Q 1347 4369 1013 4369 
L 713 4369 
L 713 4863 
L 1078 4856 
Q 1784 4847 1981 4316 
z
" transform="scale(0.015625)"/>
      <path id="DejaVuSans-34d" d="M 1109 3500 
L 1109 1234 
Q 1109 781 1216 638 
Q 1328 488 1666 488 
L 1944 488 
L 1944 0 
L 1597 0 
Q 1034 0 778 300 
Q 522 606 522 1269 
L 519 3500 
L 1109 3500 
z
" transform="scale(0.015625)"/>
      <path id="DejaVuSans-34e" d="M 597 3500 
L 1191 3500 
L 1191 2047 
L 2700 3500 
L 3400 3500 
L 2022 2181 
L 3616 0 
L 2913 0 
L 1619 1806 
L 1191 1403 
L 1191 0 
L 597 0 
L 597 3500 
z
" transform="scale(0.015625)"/>
      <path id="DejaVuSans-348" d="M 3138 4053 
Q 2819 4272 2072 4272 
Q 1281 4272 1281 3906 
Q 1281 3619 2106 3469 
Q 2756 3353 3122 3003 
Q 3566 2581 3566 1716 
Q 3566 888 3138 400 
Q 2709 -91 1959 -91 
Q 1213 -91 781 400 
Q 353 888 353 1747 
Q 353 2384 781 2900 
Q 947 3100 1181 3213 
Q 694 3459 694 3900 
Q 694 4750 2072 4750 
Q 2763 4750 3138 4531 
L 3138 4053 
z
M 1613 3056 
Q 1400 2966 1228 2738 
Q 959 2384 959 1747 
Q 959 1113 1225 756 
Q 1494 397 1959 397 
Q 2419 397 2687 759 
Q 2956 1122 2956 1716 
Q 2956 2338 2672 2638 
Q 2369 2959 1975 2994 
Q 1775 3013 1613 3056 
z
" transform="scale(0.015625)"/>
      <path id="DejaVuSans-343" d="M 1109 3500 
L 1109 1234 
Q 1109 781 1216 638 
Q 1328 488 1666 488 
L 1944 488 
L 1944 0 
L 1597 0 
Q 1034 0 778 300 
Q 522 606 522 1269 
L 519 3500 
L 1109 3500 
z
M 1453 5119 
L 2075 5119 
L 1057 3944 
L 578 3944 
L 1453 5119 
z
" transform="scale(0.015625)"/>
      <path id="DejaVuSans-34a" d="M 2231 397 
Q 2644 394 2891 159 
Q 3153 -88 3153 -463 
Q 3153 -822 2922 -1072 
Q 2672 -1344 2163 -1344 
Q 2163 -1109 2163 -872 
Q 2378 -888 2509 -750 
Q 2609 -641 2609 -525 
Q 2609 -359 2509 -222 
Q 2413 -91 2231 -91 
Q 338 -91 334 1669 
Q 334 3206 2119 4284 
L 456 4284 
L 456 4863 
L 3175 4863 
L 3175 4284 
Q 913 3147 913 1669 
Q 913 397 2231 397 
z
" transform="scale(0.015625)"/>
     </defs>
     <use xlink:href="#Cmmi10-3f" transform="translate(0 0.015625)"/>
     <use xlink:href="#Cmmi10-7a" transform="translate(68.34026 41.304859) scale(0.7)"/>
     <use xlink:href="#Cmsy10-55" transform="translate(136.067569 0.015625)"/>
     <use xlink:href="#Cmmi10-3" transform="translate(256.067626 0.015625)"/>
     <use xlink:href="#Cmmi10-3f" transform="translate(313.812183 41.304859) scale(0.7)"/>
     <use xlink:href="#DejaVuSans-1d" transform="translate(359.488653 0.015625)"/>
     <use xlink:href="#DejaVuSans-3" transform="translate(393.180059 0.015625)"/>
     <use xlink:href="#DejaVuSans-358" transform="translate(424.967168 0.015625)"/>
     <use xlink:href="#DejaVuSans-349" transform="translate(485.172247 0.015625)"/>
     <use xlink:href="#DejaVuSans-34f" transform="translate(539.224981 0.015625)"/>
     <use xlink:href="#DejaVuSans-34d" transform="translate(598.404668 0.015625)"/>
     <use xlink:href="#DejaVuSans-34e" transform="translate(632.242559 0.015625)"/>
     <use xlink:href="#DejaVuSans-340" transform="translate(691.178106 0.015625)"/>
     <use xlink:href="#DejaVuSans-3" transform="translate(757.096075 0.015625)"/>
     <use xlink:href="#DejaVuSans-34e" transform="translate(788.883184 0.015625)"/>
     <use xlink:href="#DejaVuSans-349" transform="translate(847.818731 0.015625)"/>
     <use xlink:href="#DejaVuSans-355" transform="translate(901.871465 0.015625)"/>
     <use xlink:href="#DejaVuSans-348" transform="translate(965.348028 0.015625)"/>
     <use xlink:href="#DejaVuSans-343" transform="translate(1026.529668 0.015625)"/>
     <use xlink:href="#DejaVuSans-34a" transform="translate(1060.367559 0.015625)"/>
     <use xlink:href="#DejaVuSans-349" transform="translate(1114.76209 0.015625)"/>
     <use xlink:href="#DejaVuSans-34d" transform="translate(1168.814825 0.015625)"/>
     <use xlink:href="#DejaVuSans-3" transform="translate(1202.652715 0.015625)"/>
     <use xlink:href="#DejaVuSans-34b" transform="translate(1234.439825 0.015625)"/>
     <use xlink:href="#DejaVuSans-3" transform="translate(1297.818731 0.015625)"/>
     <use xlink:href="#Cmmi10-3" transform="translate(1329.60584 0.015625)"/>
     <use xlink:href="#Cmmi10-3f" transform="translate(1387.350397 41.304859) scale(0.7)"/>
    </g>
   </g>
   <g id="legend_1">
    <g id="line2d_15">
     <path d="M 52.098348 38.27 
L 60.198348 38.27 
L 68.298348 38.27 
" style="fill: none; stroke-dasharray: 10,5; stroke-dashoffset: 0; stroke: #eb6834; stroke-width: 2"/>
    </g>
    <g id="text_10">
     <!-- $x^3$ -->
     <g style="fill: #0b0b0b" transform="translate(75.498348 41.42) scale(0.09 -0.09)">
      <defs>
       <path id="Cmr10-6e" d="M 609 494 
Q 759 275 1012 169 
Q 1266 63 1556 63 
Q 1928 63 2084 380 
Q 2241 697 2241 1100 
Q 2241 1281 2208 1462 
Q 2175 1644 2097 1800 
Q 2019 1956 1883 2050 
Q 1747 2144 1550 2144 
L 1125 2144 
Q 1069 2144 1069 2203 
L 1069 2259 
Q 1069 2309 1125 2309 
L 1478 2338 
Q 1703 2338 1851 2506 
Q 2000 2675 2069 2917 
Q 2138 3159 2138 3378 
Q 2138 3684 1994 3881 
Q 1850 4078 1556 4078 
Q 1313 4078 1091 3986 
Q 869 3894 738 3706 
Q 750 3709 759 3711 
Q 769 3713 781 3713 
Q 925 3713 1022 3613 
Q 1119 3513 1119 3372 
Q 1119 3234 1022 3134 
Q 925 3034 781 3034 
Q 641 3034 541 3134 
Q 441 3234 441 3372 
Q 441 3647 606 3850 
Q 772 4053 1033 4158 
Q 1294 4263 1556 4263 
Q 1750 4263 1965 4205 
Q 2181 4147 2356 4039 
Q 2531 3931 2642 3762 
Q 2753 3594 2753 3378 
Q 2753 3109 2633 2881 
Q 2513 2653 2303 2487 
Q 2094 2322 1844 2241 
Q 2122 2188 2372 2031 
Q 2622 1875 2773 1631 
Q 2925 1388 2925 1106 
Q 2925 753 2731 467 
Q 2538 181 2222 20 
Q 1906 -141 1556 -141 
Q 1256 -141 954 -26 
Q 653 88 461 316 
Q 269 544 269 863 
Q 269 1022 375 1128 
Q 481 1234 641 1234 
Q 744 1234 830 1186 
Q 916 1138 964 1050 
Q 1013 963 1013 863 
Q 1013 706 903 600 
Q 794 494 641 494 
L 609 494 
z
" transform="scale(0.015625)"/>
      </defs>
      <use xlink:href="#Cmmi10-3f" transform="translate(0 0.084203)"/>
      <use xlink:href="#Cmr10-6e" transform="translate(68.34026 41.373437) scale(0.7)"/>
     </g>
    </g>
    <g id="line2d_16">
     <path d="M 52.098348 51.770703 
L 60.198348 51.770703 
L 68.298348 51.770703 
" style="fill: none; stroke: #2a78d6; stroke-width: 2; stroke-linecap: round"/>
    </g>
    <g id="text_11">
     <!-- $e^x$ -->
     <g style="fill: #0b0b0b" transform="translate(75.498348 54.920703) scale(0.09 -0.09)">
      <use xlink:href="#Cmmi10-3" transform="translate(0 0.779516)"/>
      <use xlink:href="#Cmmi10-3f" transform="translate(57.744557 42.06875) scale(0.7)"/>
     </g>
    </g>
   </g>
   <g id="line2d_17">
    <defs>
     <path id="m60e1d20c4c" d="M 0 2.5 
C 0.663008 2.5 1.29895 2.236584 1.767767 1.767767 
C 2.236584 1.29895 2.5 0.663008 2.5 0 
C 2.5 -0.663008 2.236584 -1.29895 1.767767 -1.767767 
C 1.29895 -2.236584 0.663008 -2.5 0 -2.5 
C -0.663008 -2.5 -1.29895 -2.236584 -1.767767 -1.767767 
C -2.236584 -1.29895 -2.5 -0.663008 -2.5 0 
C -2.5 0.663008 -2.236584 1.29895 -1.767767 1.767767 
C -1.29895 2.236584 -0.663008 2.5 0 2.5 
z
" style="stroke: #0b0b0b; stroke-width: 1.7"/>
    </defs>
    <g>
     <use xlink:href="#m60e1d20c4c" x="218.343119" y="138.911404" style="fill: #0b0b0b; stroke: #0b0b0b; stroke-width: 1.7"/>
    </g>
   </g>
  </g>
  <g id="axes_2">
   <g id="patch_11">
    <path d="M 336.81625 202.5 
L 596.382473 202.5 
L 596.382473 25.4 
L 336.81625 25.4 
z
" style="fill: #ffffff"/>
   </g>
   <g id="line2d_18">
    <path d="M 401.707806 202.5 
L 401.707806 25.4 
" clip-path="url(#p84d8dc958c)" style="fill: none; stroke: #e9e8e3; stroke-width: 0.7; stroke-linecap: round"/>
   </g>
   <g id="line2d_19">
    <path d="M 466.599361 202.5 
L 466.599361 25.4 
" clip-path="url(#p84d8dc958c)" style="fill: none; stroke: #e9e8e3; stroke-width: 0.7; stroke-linecap: round"/>
   </g>
   <g id="line2d_20">
    <path d="M 531.490917 202.5 
L 531.490917 25.4 
" clip-path="url(#p84d8dc958c)" style="fill: none; stroke: #e9e8e3; stroke-width: 0.7; stroke-linecap: round"/>
   </g>
   <g id="line2d_21">
    <path d="M 336.81625 118.610526 
L 596.382473 118.610526 
" clip-path="url(#p84d8dc958c)" style="fill: none; stroke: #e9e8e3; stroke-width: 0.7; stroke-linecap: round"/>
   </g>
   <g id="line2d_22">
    <path d="M 336.81625 81.326316 
L 596.382473 81.326316 
" clip-path="url(#p84d8dc958c)" style="fill: none; stroke: #e9e8e3; stroke-width: 0.7; stroke-linecap: round"/>
   </g>
   <g id="line2d_23">
    <path d="M 336.81625 44.042105 
L 596.382473 44.042105 
" clip-path="url(#p84d8dc958c)" style="fill: none; stroke: #e9e8e3; stroke-width: 0.7; stroke-linecap: round"/>
   </g>
   <g id="patch_12">
    <path d="M 336.81625 202.5 
L 336.81625 25.4 
" style="fill: none; stroke: #52514e; stroke-width: 0.9; stroke-linejoin: miter; stroke-linecap: square"/>
   </g>
   <g id="patch_13">
    <path d="M 336.81625 155.894737 
L 596.382473 155.894737 
" style="fill: none; stroke: #52514e; stroke-width: 0.9; stroke-linejoin: miter; stroke-linecap: square"/>
   </g>
   <g id="matplotlib.axis_3">
    <g id="xtick_4">
     <g id="line2d_24">
      <g>
       <use xlink:href="#mea416f7c7a" x="401.707806" y="155.894737" style="fill: #52514e; stroke: #52514e; stroke-width: 0.8"/>
      </g>
     </g>
     <g id="text_12">
      <g id="patch_14">
       <path d="M 395.704681 169.989737 
L 407.710931 169.989737 
L 407.710931 160.299737 
L 395.704681 160.299737 
z
" style="fill: #ffffff; opacity: 0.85"/>
      </g>
      <!-- 10 -->
      <g style="fill: #52514e" transform="translate(396.299681 167.352745) scale(0.085 -0.085)">
       <use xlink:href="#DejaVuSans-14"/>
       <use xlink:href="#DejaVuSans-13" transform="translate(63.625 0)"/>
      </g>
     </g>
    </g>
    <g id="xtick_5">
     <g id="line2d_25">
      <g>
       <use xlink:href="#mea416f7c7a" x="466.599361" y="155.894737" style="fill: #52514e; stroke: #52514e; stroke-width: 0.8"/>
      </g>
     </g>
     <g id="text_13">
      <g id="patch_15">
       <path d="M 460.596236 169.989737 
L 472.602486 169.989737 
L 472.602486 160.299737 
L 460.596236 160.299737 
z
" style="fill: #ffffff; opacity: 0.85"/>
      </g>
      <!-- 20 -->
      <g style="fill: #52514e" transform="translate(461.191236 167.352745) scale(0.085 -0.085)">
       <use xlink:href="#DejaVuSans-15"/>
       <use xlink:href="#DejaVuSans-13" transform="translate(63.625 0)"/>
      </g>
     </g>
    </g>
    <g id="xtick_6">
     <g id="line2d_26">
      <g>
       <use xlink:href="#mea416f7c7a" x="531.490917" y="155.894737" style="fill: #52514e; stroke: #52514e; stroke-width: 0.8"/>
      </g>
     </g>
     <g id="text_14">
      <g id="patch_16">
       <path d="M 525.487792 169.989737 
L 537.494042 169.989737 
L 537.494042 160.299737 
L 525.487792 160.299737 
z
" style="fill: #ffffff; opacity: 0.85"/>
      </g>
      <!-- 30 -->
      <g style="fill: #52514e" transform="translate(526.082792 167.352745) scale(0.085 -0.085)">
       <defs>
        <path id="DejaVuSans-16" d="M 2597 2516 
Q 3050 2419 3304 2112 
Q 3559 1806 3559 1356 
Q 3559 666 3084 287 
Q 2609 -91 1734 -91 
Q 1441 -91 1130 -33 
Q 819 25 488 141 
L 488 750 
Q 750 597 1062 519 
Q 1375 441 1716 441 
Q 2309 441 2620 675 
Q 2931 909 2931 1356 
Q 2931 1769 2642 2001 
Q 2353 2234 1838 2234 
L 1294 2234 
L 1294 2753 
L 1863 2753 
Q 2328 2753 2575 2939 
Q 2822 3125 2822 3475 
Q 2822 3834 2567 4026 
Q 2313 4219 1838 4219 
Q 1578 4219 1281 4162 
Q 984 4106 628 3988 
L 628 4550 
Q 988 4650 1302 4700 
Q 1616 4750 1894 4750 
Q 2613 4750 3031 4423 
Q 3450 4097 3450 3541 
Q 3450 3153 3228 2886 
Q 3006 2619 2597 2516 
z
" transform="scale(0.015625)"/>
       </defs>
       <use xlink:href="#DejaVuSans-16"/>
       <use xlink:href="#DejaVuSans-13" transform="translate(63.625 0)"/>
      </g>
     </g>
    </g>
   </g>
   <g id="matplotlib.axis_4">
    <g id="ytick_3">
     <g id="line2d_27">
      <g>
       <use xlink:href="#mfd0566a3cc" x="336.81625" y="118.610526" style="fill: #52514e; stroke: #52514e; stroke-width: 0.8"/>
      </g>
     </g>
     <g id="text_15">
      <g id="patch_17">
       <path d="M 325.813125 124.476522 
L 332.41125 124.476522 
L 332.41125 114.786522 
L 325.813125 114.786522 
z
" style="fill: #ffffff; opacity: 0.85"/>
      </g>
      <!-- 2 -->
      <g style="fill: #52514e" transform="translate(326.408125 121.83953) scale(0.085 -0.085)">
       <use xlink:href="#DejaVuSans-15"/>
      </g>
     </g>
    </g>
    <g id="ytick_4">
     <g id="line2d_28">
      <g>
       <use xlink:href="#mfd0566a3cc" x="336.81625" y="81.326316" style="fill: #52514e; stroke: #52514e; stroke-width: 0.8"/>
      </g>
     </g>
     <g id="text_16">
      <g id="patch_18">
       <path d="M 325.813125 87.192312 
L 332.41125 87.192312 
L 332.41125 77.502312 
L 325.813125 77.502312 
z
" style="fill: #ffffff; opacity: 0.85"/>
      </g>
      <!-- 4 -->
      <g style="fill: #52514e" transform="translate(326.408125 84.55532) scale(0.085 -0.085)">
       <use xlink:href="#DejaVuSans-17"/>
      </g>
     </g>
    </g>
    <g id="ytick_5">
     <g id="line2d_29">
      <g>
       <use xlink:href="#mfd0566a3cc" x="336.81625" y="44.042105" style="fill: #52514e; stroke: #52514e; stroke-width: 0.8"/>
      </g>
     </g>
     <g id="text_17">
      <g id="patch_19">
       <path d="M 325.813125 49.908101 
L 332.41125 49.908101 
L 332.41125 40.218101 
L 325.813125 40.218101 
z
" style="fill: #ffffff; opacity: 0.85"/>
      </g>
      <!-- 6 -->
      <g style="fill: #52514e" transform="translate(326.408125 47.271109) scale(0.085 -0.085)">
       <use xlink:href="#DejaVuSans-19"/>
      </g>
     </g>
    </g>
   </g>
   <g id="line2d_30">
    <g>
     <use xlink:href="#m4fe79a03d0" x="596.382473" y="155.894737" style="fill: #52514e; stroke: #52514e; stroke-linejoin: miter"/>
    </g>
   </g>
   <g id="line2d_31">
    <g>
     <use xlink:href="#m0e7391c8de" x="336.81625" y="25.4" style="fill: #52514e; stroke: #52514e; stroke-linejoin: miter"/>
    </g>
   </g>
   <g id="line2d_32">
    <path d="M 337.010925 152.665829 
L 337.529927 149.712412 
L 338.308431 146.95527 
L 339.346436 144.25409 
L 340.643943 141.577164 
L 342.200951 138.913018 
L 344.01746 136.25645 
L 346.223221 133.449419 
L 348.688483 130.679267 
L 351.542997 127.81104 
L 354.786764 124.871929 
L 358.419782 121.880303 
L 362.571803 118.755216 
L 367.242826 115.52765 
L 372.432852 112.220321 
L 378.141881 108.850047 
L 384.499662 105.360638 
L 391.506197 101.775132 
L 399.161486 98.111416 
L 407.595278 94.327004 
L 416.807574 90.44283 
L 426.798374 86.475636 
L 437.697429 82.391589 
L 449.504738 78.209116 
L 462.220301 73.943286 
L 475.97387 69.566204 
L 490.765444 65.093958 
L 506.724774 60.503507 
L 523.85186 55.811115 
L 542.276452 50.997338 
L 561.998551 46.078138 
L 583.018156 41.067063 
L 596.382473 37.991711 
L 596.382473 37.991711 
" clip-path="url(#p84d8dc958c)" style="fill: none; stroke-dasharray: 10,5; stroke-dashoffset: 0; stroke: #eb6834; stroke-width: 2"/>
   </g>
   <g id="line2d_33">
    <path d="M 337.010925 221.264358 
L 337.400177 200.787021 
L 337.919179 188.931583 
L 338.567932 180.307612 
L 339.346436 173.452607 
L 340.12494 168.451686 
L 341.033195 163.929885 
L 342.0712 159.827511 
L 343.238956 156.086618 
L 344.536462 152.656427 
L 345.963719 149.494066 
L 347.520727 146.56381 
L 349.207486 143.83596 
L 351.153745 141.116287 
L 353.229756 138.595383 
L 355.565268 136.115296 
L 358.160281 133.698706 
L 361.014795 131.358742 
L 364.12881 129.102037 
L 367.502327 126.930934 
L 371.265096 124.774667 
L 375.417117 122.65321 
L 380.08814 120.52375 
L 385.278166 118.412065 
L 390.987195 116.335961 
L 397.344977 114.267183 
L 404.351512 112.22528 
L 412.136551 110.191429 
L 420.829844 108.155172 
L 430.431392 106.137844 
L 441.200696 104.107933 
L 453.137756 102.089416 
L 466.372322 100.080621 
L 481.163896 98.065208 
L 497.642229 96.050028 
L 515.93707 94.041571 
L 536.307922 92.033594 
L 558.884535 90.034928 
L 584.056161 88.033246 
L 596.382473 87.126258 
L 596.382473 87.126258 
" clip-path="url(#p84d8dc958c)" style="fill: none; stroke: #2a78d6; stroke-width: 2; stroke-linecap: round"/>
   </g>
   <g id="text_18">
    <!-- $x$ -->
    <g style="fill: #0b0b0b" transform="translate(599.497267 158.492393) scale(0.1 -0.1)">
     <use xlink:href="#Cmmi10-3f" transform="translate(0 0.8125)"/>
    </g>
   </g>
   <g id="text_19">
    <!-- $y$ -->
    <g style="fill: #0b0b0b" transform="translate(342.81625 34.997656) scale(0.1 -0.1)">
     <use xlink:href="#Cmmi10-72" transform="translate(0 0.8125)"/>
    </g>
   </g>
   <g id="text_20">
    <!-- $\ln x \ll x^n$: ακόμη και $\ln x &lt; \sqrt{x}$ -->
    <g style="fill: #0b0b0b" transform="translate(394.849361 15.4) scale(0.1 -0.1)">
     <defs>
      <path id="Cmr10-6a" d="M 197 0 
L 197 225 
Q 416 225 556 259 
Q 697 294 697 428 
L 697 3788 
Q 697 3959 645 4036 
Q 594 4113 497 4130 
Q 400 4147 197 4147 
L 197 4372 
L 1147 4441 
L 1147 428 
Q 1147 294 1287 259 
Q 1428 225 1644 225 
L 1644 0 
L 197 0 
z
" transform="scale(0.015625)"/>
      <path id="Cmr10-74" d="M 191 0 
L 191 225 
Q 409 225 550 259 
Q 691 294 691 428 
L 691 2175 
Q 691 2347 639 2423 
Q 588 2500 491 2517 
Q 394 2534 191 2534 
L 191 2759 
L 1119 2828 
L 1119 2203 
Q 1247 2478 1498 2653 
Q 1750 2828 2047 2828 
Q 2491 2828 2714 2615 
Q 2938 2403 2938 1966 
L 2938 428 
Q 2938 294 3078 259 
Q 3219 225 3438 225 
L 3438 0 
L 1972 0 
L 1972 225 
Q 2191 225 2331 259 
Q 2472 294 2472 428 
L 2472 1947 
Q 2472 2259 2381 2461 
Q 2291 2663 2009 2663 
Q 1638 2663 1398 2366 
Q 1159 2069 1159 1691 
L 1159 428 
Q 1159 294 1300 259 
Q 1441 225 1656 225 
L 1656 0 
L 191 0 
z
" transform="scale(0.015625)"/>
      <path id="DejaVuSans-345" d="M 2644 1628 
L 2506 2350 
Q 2366 3091 1809 3091 
Q 1391 3091 1200 2747 
Q 959 2316 959 1747 
Q 959 1059 1194 731 
Q 1431 397 1809 397 
Q 2228 397 2453 1063 
L 2644 1628 
z
M 2966 2584 
L 3275 3500 
L 3788 3500 
L 3147 1603 
L 3272 919 
Q 3300 766 3409 638 
Q 3538 488 3638 488 
L 3913 488 
L 3913 0 
L 3569 0 
Q 3275 0 3013 263 
Q 2884 394 2831 669 
Q 2688 322 2394 50 
Q 2256 -78 1809 -78 
Q 1075 -78 719 397 
Q 353 888 353 1747 
Q 353 2666 750 3097 
Q 1191 3578 1809 3578 
Q 2781 3578 2966 2584 
z
" transform="scale(0.015625)"/>
      <path id="DejaVuSans-360" d="M 2425 5119 
L 3047 5119 
L 2029 3944 
L 1550 3944 
L 2425 5119 
z
M 1959 3097 
Q 1497 3097 1228 2736 
Q 959 2375 959 1747 
Q 959 1119 1226 758 
Q 1494 397 1959 397 
Q 2419 397 2687 759 
Q 2956 1122 2956 1747 
Q 2956 2369 2687 2733 
Q 2419 3097 1959 3097 
z
M 1959 3584 
Q 2709 3584 3137 3096 
Q 3566 2609 3566 1747 
Q 3566 888 3137 398 
Q 2709 -91 1959 -91 
Q 1206 -91 779 398 
Q 353 888 353 1747 
Q 353 2609 779 3096 
Q 1206 3584 1959 3584 
z
" transform="scale(0.015625)"/>
      <path id="Cmmi10-63" d="M 594 1491 
Q 531 1519 531 1600 
Q 531 1681 616 1722 
L 4269 3444 
Q 4294 3456 4313 3456 
Q 4369 3456 4405 3417 
Q 4441 3378 4441 3328 
Q 4441 3250 4366 3206 
L 959 1600 
L 4384 -19 
Q 4441 -38 4441 -128 
Q 4441 -178 4405 -217 
Q 4369 -256 4313 -256 
Q 4294 -256 4269 -244 
L 594 1491 
z
" transform="scale(0.015625)"/>
      <path id="Cmex10-30" d="M 2713 -7425 
L 1269 -4063 
L 819 -4409 
L 703 -4294 
L 1619 -3584 
L 2969 -6725 
L 6291 197 
Q 6322 256 6400 256 
Q 6453 256 6490 218 
Q 6528 181 6528 128 
Q 6528 97 6522 84 
L 2950 -7366 
Q 2925 -7425 2853 -7425 
L 2713 -7425 
z
" transform="scale(0.015625)"/>
     </defs>
     <use xlink:href="#Cmr10-6a" transform="translate(0 0.578125)"/>
     <use xlink:href="#Cmr10-74" transform="translate(27.685547 0.578125)"/>
     <use xlink:href="#Cmmi10-3f" transform="translate(99.870173 0.578125)"/>
     <use xlink:href="#Cmsy10-55" transform="translate(176.950308 0.578125)"/>
     <use xlink:href="#Cmmi10-3f" transform="translate(296.950365 0.578125)"/>
     <use xlink:href="#Cmmi10-7a" transform="translate(365.290625 41.867359) scale(0.7)"/>
     <use xlink:href="#DejaVuSans-1d" transform="translate(413.017877 0.578125)"/>
     <use xlink:href="#DejaVuSans-3" transform="translate(446.709283 0.578125)"/>
     <use xlink:href="#DejaVuSans-345" transform="translate(478.496392 0.578125)"/>
     <use xlink:href="#DejaVuSans-34e" transform="translate(544.414361 0.578125)"/>
     <use xlink:href="#DejaVuSans-360" transform="translate(603.349908 0.578125)"/>
     <use xlink:href="#DejaVuSans-350" transform="translate(664.531549 0.578125)"/>
     <use xlink:href="#DejaVuSans-34b" transform="translate(728.154595 0.578125)"/>
     <use xlink:href="#DejaVuSans-3" transform="translate(791.533502 0.578125)"/>
     <use xlink:href="#DejaVuSans-34e" transform="translate(823.320611 0.578125)"/>
     <use xlink:href="#DejaVuSans-345" transform="translate(882.256158 0.578125)"/>
     <use xlink:href="#DejaVuSans-34d" transform="translate(948.174127 0.578125)"/>
     <use xlink:href="#DejaVuSans-3" transform="translate(982.012017 0.578125)"/>
     <use xlink:href="#Cmr10-6a" transform="translate(1013.799127 0.578125)"/>
     <use xlink:href="#Cmr10-74" transform="translate(1041.484674 0.578125)"/>
     <use xlink:href="#Cmmi10-3f" transform="translate(1113.669299 0.578125)"/>
     <use xlink:href="#Cmmi10-63" transform="translate(1190.749435 0.578125)"/>
     <use xlink:href="#Cmex10-30" transform="translate(1288.435039 73.453125) scale(0.637938)"/>
     <use xlink:href="#Cmmi10-3f" transform="translate(1364.716289 0.5625)"/>
     <path d="M 1352.216289 75.75 
L 1352.216289 82 
L 1434.296367 82 
L 1434.296367 75.75 
L 1352.216289 75.75 
z
"/>
    </g>
   </g>
   <g id="legend_2">
    <g id="line2d_34">
     <path d="M 360.490223 37.73 
L 368.590223 37.73 
L 376.690223 37.73 
" style="fill: none; stroke-dasharray: 10,5; stroke-dashoffset: 0; stroke: #eb6834; stroke-width: 2"/>
    </g>
    <g id="text_21">
     <!-- $\sqrt{x}$ -->
     <g style="fill: #0b0b0b" transform="translate(383.890223 40.88) scale(0.09 -0.09)">
      <use xlink:href="#Cmex10-30" transform="translate(0 73.453125) scale(0.637938)"/>
      <use xlink:href="#Cmmi10-3f" transform="translate(76.28125 0.5625)"/>
      <path d="M 63.78125 75.75 
L 63.78125 82 
L 145.861328 82 
L 145.861328 75.75 
L 63.78125 75.75 
z
"/>
     </g>
    </g>
    <g id="line2d_35">
     <path d="M 360.490223 51.230703 
L 368.590223 51.230703 
L 376.690223 51.230703 
" style="fill: none; stroke: #2a78d6; stroke-width: 2; stroke-linecap: round"/>
    </g>
    <g id="text_22">
     <!-- $\ln x$ -->
     <g style="fill: #0b0b0b" transform="translate(383.890223 54.380703) scale(0.09 -0.09)">
      <use xlink:href="#Cmr10-6a" transform="translate(0 0.609375)"/>
      <use xlink:href="#Cmr10-74" transform="translate(27.685547 0.609375)"/>
      <use xlink:href="#Cmmi10-3f" transform="translate(99.870173 0.609375)"/>
     </g>
    </g>
   </g>
  </g>
 </g>
 <defs>
  <clipPath id="p57430425c8">
   <rect x="28.424375" y="25.4" width="259.566223" height="177.1"/>
  </clipPath>
  <clipPath id="p84d8dc958c">
   <rect x="336.81625" y="25.4" width="259.566223" height="177.1"/>
  </clipPath>
 </defs>
</svg>
