<?xml version="1.0" encoding="utf-8" standalone="no"?>
<!DOCTYPE svg PUBLIC "-//W3C//DTD SVG 1.1//EN"
  "http://www.w3.org/Graphics/SVG/1.1/DTD/svg11.dtd">
<svg xmlns:xlink="http://www.w3.org/1999/xlink" width="597.18563pt" height="288.111818pt" viewBox="0 0 597.18563 288.111818" xmlns="http://www.w3.org/2000/svg" version="1.1">
 <metadata>
  <rdf:RDF xmlns:dc="http://purl.org/dc/elements/1.1/" xmlns:cc="http://creativecommons.org/ns#" xmlns:rdf="http://www.w3.org/1999/02/22-rdf-syntax-ns#">
   <cc:Work>
    <dc:type rdf:resource="http://purl.org/dc/dcmitype/StillImage"/>
    <dc:format>image/svg+xml</dc:format>
    <dc:creator>
     <cc:Agent>
      <dc:title>Matplotlib v3.11.2, https://matplotlib.org/</dc:title>
     </cc:Agent>
    </dc:creator>
   </cc:Work>
  </rdf:RDF>
 </metadata>
 <defs>
  <style type="text/css">*{stroke-linejoin: round; stroke-linecap: butt}</style>
 </defs>
 <g id="figure_1">
  <g id="patch_1">
   <path d="M 0 288.111818 
L 597.18563 288.111818 
L 597.18563 0 
L 0 0 
z
" style="fill: #ffffff"/>
  </g>
  <g id="axes_1">
   <g id="patch_2">
    <path d="M 7.2 278.07748 
L 272.24573 278.07748 
L 272.24573 28.034338 
L 7.2 28.034338 
z
" style="fill: #ffffff"/>
   </g>
   <g id="line2d_1">
    <path d="M 37.205177 278.07748 
L 37.205177 28.034338 
" clip-path="url(#p8218f2a47b)" style="fill: none; stroke: #e9e8e3; stroke-width: 0.7; stroke-linecap: round"/>
   </g>
   <g id="line2d_2">
    <path d="M 87.213805 278.07748 
L 87.213805 28.034338 
" clip-path="url(#p8218f2a47b)" style="fill: none; stroke: #e9e8e3; stroke-width: 0.7; stroke-linecap: round"/>
   </g>
   <g id="line2d_3">
    <path d="M 187.231062 278.07748 
L 187.231062 28.034338 
" clip-path="url(#p8218f2a47b)" style="fill: none; stroke: #e9e8e3; stroke-width: 0.7; stroke-linecap: round"/>
   </g>
   <g id="line2d_4">
    <path d="M 237.23969 278.07748 
L 237.23969 28.034338 
" clip-path="url(#p8218f2a47b)" style="fill: none; stroke: #e9e8e3; stroke-width: 0.7; stroke-linecap: round"/>
   </g>
   <g id="line2d_5">
    <path d="M 7.2 258.074029 
L 272.24573 258.074029 
" clip-path="url(#p8218f2a47b)" style="fill: none; stroke: #e9e8e3; stroke-width: 0.7; stroke-linecap: round"/>
   </g>
   <g id="line2d_6">
    <path d="M 7.2 208.0654 
L 272.24573 208.0654 
" clip-path="url(#p8218f2a47b)" style="fill: none; stroke: #e9e8e3; stroke-width: 0.7; stroke-linecap: round"/>
   </g>
   <g id="line2d_7">
    <path d="M 7.2 108.048144 
L 272.24573 108.048144 
" clip-path="url(#p8218f2a47b)" style="fill: none; stroke: #e9e8e3; stroke-width: 0.7; stroke-linecap: round"/>
   </g>
   <g id="line2d_8">
    <path d="M 7.2 58.039515 
L 272.24573 58.039515 
" clip-path="url(#p8218f2a47b)" style="fill: none; stroke: #e9e8e3; stroke-width: 0.7; stroke-linecap: round"/>
   </g>
   <g id="patch_3">
    <path d="M 137.222434 278.07748 
L 137.222434 28.034338 
" style="fill: none; stroke: #52514e; stroke-width: 0.9; stroke-linejoin: miter; stroke-linecap: square"/>
   </g>
   <g id="patch_4">
    <path d="M 7.2 158.056772 
L 272.24573 158.056772 
" style="fill: none; stroke: #52514e; stroke-width: 0.9; stroke-linejoin: miter; stroke-linecap: square"/>
   </g>
   <g id="matplotlib.axis_1">
    <g id="xtick_1">
     <g id="line2d_9">
      <defs>
       <path id="mea416f7c7a" d="M 0 0 
L 0 3 
" style="stroke: #52514e; stroke-width: 0.8"/>
      </defs>
      <g>
       <use xlink:href="#mea416f7c7a" x="37.205177" y="158.056772" style="fill: #52514e; stroke: #52514e; stroke-width: 0.8"/>
      </g>
     </g>
     <g id="text_1">
      <g id="patch_5">
       <path d="M 30.344747 172.151772 
L 44.065607 172.151772 
L 44.065607 162.461772 
L 30.344747 162.461772 
z
" style="fill: #ffffff; opacity: 0.85"/>
      </g>
      <!-- −2 -->
      <g style="fill: #52514e" transform="translate(30.939747 169.51478) scale(0.085 -0.085)">
       <defs>
        <path id="DejaVuSans-c9c" d="M 678 2272 
L 4684 2272 
L 4684 1741 
L 678 1741 
L 678 2272 
z
" transform="scale(0.015625)"/>
        <path id="DejaVuSans-15" d="M 1228 531 
L 3431 531 
L 3431 0 
L 469 0 
L 469 531 
Q 828 903 1448 1529 
Q 2069 2156 2228 2338 
Q 2531 2678 2651 2914 
Q 2772 3150 2772 3378 
Q 2772 3750 2511 3984 
Q 2250 4219 1831 4219 
Q 1534 4219 1204 4116 
Q 875 4013 500 3803 
L 500 4441 
Q 881 4594 1212 4672 
Q 1544 4750 1819 4750 
Q 2544 4750 2975 4387 
Q 3406 4025 3406 3419 
Q 3406 3131 3298 2873 
Q 3191 2616 2906 2266 
Q 2828 2175 2409 1742 
Q 1991 1309 1228 531 
z
" transform="scale(0.015625)"/>
       </defs>
       <use xlink:href="#DejaVuSans-c9c"/>
       <use xlink:href="#DejaVuSans-15" transform="translate(83.796875 0)"/>
      </g>
     </g>
    </g>
    <g id="xtick_2">
     <g id="line2d_10">
      <g>
       <use xlink:href="#mea416f7c7a" x="87.213805" y="158.056772" style="fill: #52514e; stroke: #52514e; stroke-width: 0.8"/>
      </g>
     </g>
     <g id="text_2">
      <g id="patch_6">
       <path d="M 80.353376 172.151772 
L 94.074235 172.151772 
L 94.074235 162.461772 
L 80.353376 162.461772 
z
" style="fill: #ffffff; opacity: 0.85"/>
      </g>
      <!-- −1 -->
      <g style="fill: #52514e" transform="translate(80.948376 169.51478) scale(0.085 -0.085)">
       <defs>
        <path id="DejaVuSans-14" d="M 794 531 
L 1825 531 
L 1825 4091 
L 703 3866 
L 703 4441 
L 1819 4666 
L 2450 4666 
L 2450 531 
L 3481 531 
L 3481 0 
L 794 0 
L 794 531 
z
" transform="scale(0.015625)"/>
       </defs>
       <use xlink:href="#DejaVuSans-c9c"/>
       <use xlink:href="#DejaVuSans-14" transform="translate(83.796875 0)"/>
      </g>
     </g>
    </g>
    <g id="xtick_3">
     <g id="line2d_11">
      <g>
       <use xlink:href="#mea416f7c7a" x="187.231062" y="158.056772" style="fill: #52514e; stroke: #52514e; stroke-width: 0.8"/>
      </g>
     </g>
     <g id="text_3">
      <g id="patch_7">
       <path d="M 183.932 172.151772 
L 190.530125 172.151772 
L 190.530125 162.461772 
L 183.932 162.461772 
z
" style="fill: #ffffff; opacity: 0.85"/>
      </g>
      <!-- 1 -->
      <g style="fill: #52514e" transform="translate(184.527 169.51478) scale(0.085 -0.085)">
       <use xlink:href="#DejaVuSans-14"/>
      </g>
     </g>
    </g>
    <g id="xtick_4">
     <g id="line2d_12">
      <g>
       <use xlink:href="#mea416f7c7a" x="237.23969" y="158.056772" style="fill: #52514e; stroke: #52514e; stroke-width: 0.8"/>
      </g>
     </g>
     <g id="text_4">
      <g id="patch_8">
       <path d="M 233.940628 172.151772 
L 240.538753 172.151772 
L 240.538753 162.461772 
L 233.940628 162.461772 
z
" style="fill: #ffffff; opacity: 0.85"/>
      </g>
      <!-- 2 -->
      <g style="fill: #52514e" transform="translate(234.535628 169.51478) scale(0.085 -0.085)">
       <use xlink:href="#DejaVuSans-15"/>
      </g>
     </g>
    </g>
   </g>
   <g id="matplotlib.axis_2">
    <g id="ytick_1">
     <g id="line2d_13">
      <defs>
       <path id="mfd0566a3cc" d="M 0 0 
L -3 0 
" style="stroke: #52514e; stroke-width: 0.8"/>
      </defs>
      <g>
       <use xlink:href="#mfd0566a3cc" x="137.222434" y="258.074029" style="fill: #52514e; stroke: #52514e; stroke-width: 0.8"/>
      </g>
     </g>
     <g id="text_5">
      <g id="patch_9">
       <path d="M 119.096574 263.940025 
L 132.817434 263.940025 
L 132.817434 254.250025 
L 119.096574 254.250025 
z
" style="fill: #ffffff; opacity: 0.85"/>
      </g>
      <!-- −2 -->
      <g style="fill: #52514e" transform="translate(119.691574 261.303033) scale(0.085 -0.085)">
       <use xlink:href="#DejaVuSans-c9c"/>
       <use xlink:href="#DejaVuSans-15" transform="translate(83.796875 0)"/>
      </g>
     </g>
    </g>
    <g id="ytick_2">
     <g id="line2d_14">
      <g>
       <use xlink:href="#mfd0566a3cc" x="137.222434" y="208.0654" style="fill: #52514e; stroke: #52514e; stroke-width: 0.8"/>
      </g>
     </g>
     <g id="text_6">
      <g id="patch_10">
       <path d="M 119.096574 213.931396 
L 132.817434 213.931396 
L 132.817434 204.241396 
L 119.096574 204.241396 
z
" style="fill: #ffffff; opacity: 0.85"/>
      </g>
      <!-- −1 -->
      <g style="fill: #52514e" transform="translate(119.691574 211.294404) scale(0.085 -0.085)">
       <use xlink:href="#DejaVuSans-c9c"/>
       <use xlink:href="#DejaVuSans-14" transform="translate(83.796875 0)"/>
      </g>
     </g>
    </g>
    <g id="ytick_3">
     <g id="line2d_15">
      <g>
       <use xlink:href="#mfd0566a3cc" x="137.222434" y="108.048144" style="fill: #52514e; stroke: #52514e; stroke-width: 0.8"/>
      </g>
     </g>
     <g id="text_7">
      <g id="patch_11">
       <path d="M 126.219309 113.91414 
L 132.817434 113.91414 
L 132.817434 104.22414 
L 126.219309 104.22414 
z
" style="fill: #ffffff; opacity: 0.85"/>
      </g>
      <!-- 1 -->
      <g style="fill: #52514e" transform="translate(126.814309 111.277147) scale(0.085 -0.085)">
       <use xlink:href="#DejaVuSans-14"/>
      </g>
     </g>
    </g>
    <g id="ytick_4">
     <g id="line2d_16">
      <g>
       <use xlink:href="#mfd0566a3cc" x="137.222434" y="58.039515" style="fill: #52514e; stroke: #52514e; stroke-width: 0.8"/>
      </g>
     </g>
     <g id="text_8">
      <g id="patch_12">
       <path d="M 126.219309 63.905511 
L 132.817434 63.905511 
L 132.817434 54.215511 
L 126.219309 54.215511 
z
" style="fill: #ffffff; opacity: 0.85"/>
      </g>
      <!-- 2 -->
      <g style="fill: #52514e" transform="translate(126.814309 61.268519) scale(0.085 -0.085)">
       <use xlink:href="#DejaVuSans-15"/>
      </g>
     </g>
    </g>
   </g>
   <g id="line2d_17">
    <defs>
     <path id="m4fe79a03d0" d="M 2.25 0 
L -2.25 -2.25 
L -2.25 2.25 
z
" style="stroke: #52514e; stroke-linejoin: miter"/>
    </defs>
    <g>
     <use xlink:href="#m4fe79a03d0" x="272.24573" y="158.056772" style="fill: #52514e; stroke: #52514e; stroke-linejoin: miter"/>
    </g>
   </g>
   <g id="line2d_18">
    <defs>
     <path id="m0e7391c8de" d="M 0 -2.25 
L -2.25 2.25 
L 2.25 2.25 
z
" style="stroke: #52514e; stroke-linejoin: miter"/>
    </defs>
    <g>
     <use xlink:href="#m0e7391c8de" x="137.222434" y="28.034338" style="fill: #52514e; stroke: #52514e; stroke-linejoin: miter"/>
    </g>
   </g>
   <g id="line2d_19">
    <path d="M 137.222434 158.056772 
L 272.24573 158.056772 
" clip-path="url(#p8218f2a47b)" style="fill: none; stroke: #0b0b0b; stroke-width: 2.2; stroke-linecap: round"/>
   </g>
   <g id="line2d_20">
    <path d="M 87.213805 244.674257 
L 202.233651 45.454041 
" clip-path="url(#p8218f2a47b)" style="fill: none; stroke-dasharray: 2,2; stroke-dashoffset: 0; stroke: #8a8984"/>
   </g>
   <g id="line2d_21">
    <path d="M 137.222434 158.056772 
L 187.231062 71.439287 
" clip-path="url(#p8218f2a47b)" style="fill: none; stroke: #2a78d6; stroke-width: 2.2; stroke-linecap: round"/>
   </g>
   <g id="line2d_22">
    <path d="M 137.222434 158.056772 
L 87.213805 244.674257 
" clip-path="url(#p8218f2a47b)" style="fill: none; stroke-dasharray: 8.8,5.5; stroke-dashoffset: 0; stroke: #eb6834; stroke-width: 2.2"/>
   </g>
   <g id="line2d_23">
    <path d="M 164.727179 158.056772 
L 164.722847 157.568613 
L 164.709851 157.080607 
L 164.688197 156.59291 
L 164.65789 156.105673 
L 164.61894 155.619051 
L 164.571359 155.133197 
L 164.515164 154.648264 
L 164.45037 154.164404 
L 164.376999 153.681771 
L 164.295073 153.200516 
L 164.204619 152.720791 
L 164.105665 152.242747 
L 163.998243 151.766534 
L 163.882385 151.292303 
L 163.758129 150.820203 
L 163.625513 150.350382 
L 163.48458 149.88299 
L 163.335373 149.418172 
L 163.177941 148.956075 
L 163.012332 148.496846 
L 162.838598 148.040628 
L 162.656795 147.587565 
L 162.46698 147.137801 
L 162.269212 146.691476 
L 162.063553 146.248731 
L 161.850069 145.809707 
L 161.628827 145.37454 
L 161.399896 144.943369 
L 161.163349 144.516328 
L 160.91926 144.093553 
L 160.667705 143.675177 
L 160.408765 143.261331 
L 160.142521 142.852147 
L 159.869057 142.447752 
L 159.588458 142.048274 
L 159.300813 141.653839 
L 159.006213 141.264572 
L 158.704751 140.880595 
L 158.396522 140.502028 
L 158.081622 140.128992 
L 157.760151 139.761603 
L 157.43221 139.399977 
L 157.097902 139.044229 
L 156.757334 138.694471 
L 156.410611 138.350812 
L 156.057844 138.01336 
L 155.699143 137.682223 
L 155.334622 137.357504 
L 154.964395 137.039306 
L 154.588578 136.727729 
L 154.207291 136.422871 
L 153.820654 136.124829 
L 153.428787 135.833695 
L 153.031815 135.549562 
L 152.629863 135.27252 
L 152.223057 135.002655 
L 151.811526 134.740052 
L 151.395399 134.484795 
L 150.974807 134.236964 
" clip-path="url(#p8218f2a47b)" style="fill: none; stroke: #52514e; stroke-width: 1.2; stroke-linecap: round"/>
   </g>
   <g id="text_9">
    <!-- $x$ -->
    <g style="fill: #0b0b0b" transform="translate(275.426279 160.654428) scale(0.1 -0.1)">
     <defs>
      <path id="Cmmi10-3f" d="M 500 184 
Q 613 97 819 97 
Q 1019 97 1172 289 
Q 1325 481 1381 709 
L 1672 1844 
Q 1741 2153 1741 2266 
Q 1741 2425 1652 2544 
Q 1563 2663 1403 2663 
Q 1200 2663 1022 2536 
Q 844 2409 722 2214 
Q 600 2019 550 1819 
Q 538 1778 500 1778 
L 422 1778 
Q 372 1778 372 1838 
L 372 1856 
Q 434 2094 584 2320 
Q 734 2547 951 2687 
Q 1169 2828 1416 2828 
Q 1650 2828 1839 2703 
Q 2028 2578 2106 2363 
Q 2216 2559 2386 2693 
Q 2556 2828 2759 2828 
Q 2897 2828 3040 2779 
Q 3184 2731 3275 2631 
Q 3366 2531 3366 2381 
Q 3366 2219 3261 2101 
Q 3156 1984 2994 1984 
Q 2891 1984 2822 2050 
Q 2753 2116 2753 2216 
Q 2753 2350 2845 2451 
Q 2938 2553 3066 2572 
Q 2950 2663 2747 2663 
Q 2541 2663 2389 2472 
Q 2238 2281 2175 2047 
L 1894 916 
Q 1825 659 1825 494 
Q 1825 331 1917 214 
Q 2009 97 2163 97 
Q 2463 97 2698 361 
Q 2934 625 3009 941 
Q 3022 978 3059 978 
L 3138 978 
Q 3163 978 3178 961 
Q 3194 944 3194 922 
Q 3194 916 3188 903 
Q 3097 522 2806 225 
Q 2516 -72 2150 -72 
Q 1916 -72 1727 54 
Q 1538 181 1459 397 
Q 1359 209 1182 68 
Q 1006 -72 806 -72 
Q 669 -72 523 -23 
Q 378 25 287 125 
Q 197 225 197 378 
Q 197 528 301 651 
Q 406 775 563 775 
Q 669 775 741 711 
Q 813 647 813 544 
Q 813 409 723 309 
Q 634 209 500 184 
z
" transform="scale(0.015625)"/>
     </defs>
     <use xlink:href="#Cmmi10-3f" transform="translate(0 0.8125)"/>
    </g>
   </g>
   <g id="text_10">
    <!-- $y$ -->
    <g style="fill: #0b0b0b" transform="translate(143.222434 37.631994) scale(0.1 -0.1)">
     <defs>
      <path id="Cmmi10-72" d="M 538 -916 
Q 672 -1147 1006 -1147 
Q 1309 -1147 1531 -934 
Q 1753 -722 1889 -420 
Q 2025 -119 2100 197 
Q 1816 -72 1484 -72 
Q 1231 -72 1053 15 
Q 875 103 776 276 
Q 678 450 678 697 
Q 678 906 734 1126 
Q 791 1347 892 1617 
Q 994 1888 1069 2088 
Q 1153 2322 1153 2472 
Q 1153 2663 1013 2663 
Q 759 2663 595 2402 
Q 431 2141 353 1819 
Q 341 1778 300 1778 
L 225 1778 
Q 172 1778 172 1838 
L 172 1856 
Q 275 2238 487 2533 
Q 700 2828 1025 2828 
Q 1253 2828 1411 2678 
Q 1569 2528 1569 2297 
Q 1569 2178 1516 2047 
Q 1488 1969 1388 1706 
Q 1288 1444 1234 1272 
Q 1181 1100 1147 934 
Q 1113 769 1113 603 
Q 1113 391 1203 244 
Q 1294 97 1491 97 
Q 1888 97 2203 581 
L 2688 2553 
Q 2709 2638 2787 2698 
Q 2866 2759 2956 2759 
Q 3034 2759 3092 2709 
Q 3150 2659 3150 2578 
Q 3150 2541 3144 2528 
L 2509 -19 
Q 2425 -347 2200 -647 
Q 1975 -947 1658 -1130 
Q 1341 -1313 997 -1313 
Q 831 -1313 668 -1248 
Q 506 -1184 406 -1056 
Q 306 -928 306 -756 
Q 306 -581 409 -453 
Q 513 -325 684 -325 
Q 788 -325 858 -389 
Q 928 -453 928 -556 
Q 928 -703 818 -812 
Q 709 -922 563 -922 
Q 556 -919 550 -917 
Q 544 -916 538 -916 
z
" transform="scale(0.015625)"/>
     </defs>
     <use xlink:href="#Cmmi10-72" transform="translate(0 0.8125)"/>
    </g>
   </g>
   <g id="patch_13">
    <path d="M 152.223057 135.002655 
Q 151.598932 134.619809 152.118432 134.938476 
" style="fill: none; stroke: #52514e; stroke-width: 1.2; stroke-linecap: round"/>
    <path d="M 154.009536 137.975536 
L 152.118432 134.938476 
L 155.682742 135.247829 
z
" style="fill: #52514e; stroke: #52514e; stroke-width: 1.2; stroke-linecap: round"/>
   </g>
   <g id="text_11">
    <!-- $\theta = \frac{\pi}{3}$ -->
    <g style="fill: #0b0b0b" transform="translate(168.227783 144.202839) scale(0.1 -0.1)">
     <defs>
      <path id="Cmmi10-12" d="M 1031 -72 
Q 741 -72 566 140 
Q 391 353 323 653 
Q 256 953 256 1247 
L 256 1253 
Q 256 1572 317 1915 
Q 378 2259 493 2601 
Q 609 2944 744 3213 
Q 838 3400 986 3631 
Q 1134 3863 1317 4064 
Q 1500 4266 1711 4389 
Q 1922 4513 2138 4513 
L 2144 4513 
Q 2375 4513 2529 4384 
Q 2684 4256 2770 4056 
Q 2856 3856 2890 3628 
Q 2925 3400 2925 3194 
Q 2925 2709 2794 2204 
Q 2663 1700 2431 1228 
Q 2344 1050 2189 809 
Q 2034 569 1861 378 
Q 1688 188 1472 58 
Q 1256 -72 1038 -72 
L 1031 -72 
z
M 1044 97 
Q 1256 97 1451 323 
Q 1647 550 1794 873 
Q 1941 1197 2052 1536 
Q 2163 1875 2216 2113 
L 909 2113 
Q 809 1709 753 1417 
Q 697 1125 697 844 
Q 697 97 1044 97 
z
M 959 2338 
L 2272 2338 
Q 2341 2619 2381 2808 
Q 2422 2997 2450 3206 
Q 2478 3416 2478 3597 
Q 2478 4347 2138 4347 
Q 1731 4347 1436 3692 
Q 1141 3038 959 2338 
z
" transform="scale(0.015625)"/>
      <path id="Cmr10-29" d="M 481 850 
Q 428 850 393 890 
Q 359 931 359 978 
Q 359 1031 393 1068 
Q 428 1106 481 1106 
L 4500 1106 
Q 4547 1106 4581 1068 
Q 4616 1031 4616 978 
Q 4616 931 4581 890 
Q 4547 850 4500 850 
L 481 850 
z
M 481 2094 
Q 428 2094 393 2131 
Q 359 2169 359 2222 
Q 359 2269 393 2309 
Q 428 2350 481 2350 
L 4500 2350 
Q 4547 2350 4581 2309 
Q 4616 2269 4616 2222 
Q 4616 2169 4581 2131 
Q 4547 2094 4500 2094 
L 481 2094 
z
" transform="scale(0.015625)"/>
      <path id="Cmmi10-24" d="M 647 109 
Q 647 144 672 213 
Q 850 584 1004 942 
Q 1159 1300 1282 1639 
Q 1406 1978 1509 2363 
L 1100 2363 
Q 866 2363 662 2216 
Q 459 2069 325 1844 
Q 313 1819 288 1819 
L 213 1819 
Q 153 1819 153 1881 
Q 153 1894 166 1919 
Q 375 2275 614 2517 
Q 853 2759 1153 2759 
L 3475 2759 
Q 3541 2759 3587 2715 
Q 3634 2672 3634 2597 
Q 3634 2503 3567 2433 
Q 3500 2363 3406 2363 
L 2591 2363 
Q 2488 1859 2478 1381 
Q 2478 766 2694 269 
Q 2713 231 2713 191 
Q 2713 122 2672 62 
Q 2631 3 2567 -34 
Q 2503 -72 2431 -72 
Q 2263 -72 2200 203 
Q 2138 478 2138 738 
Q 2138 1103 2200 1442 
Q 2263 1781 2400 2363 
L 1703 2363 
Q 1197 313 1094 103 
Q 1003 -72 844 -72 
Q 766 -72 706 -20 
Q 647 31 647 109 
z
" transform="scale(0.015625)"/>
      <path id="Cmr10-6e" d="M 609 494 
Q 759 275 1012 169 
Q 1266 63 1556 63 
Q 1928 63 2084 380 
Q 2241 697 2241 1100 
Q 2241 1281 2208 1462 
Q 2175 1644 2097 1800 
Q 2019 1956 1883 2050 
Q 1747 2144 1550 2144 
L 1125 2144 
Q 1069 2144 1069 2203 
L 1069 2259 
Q 1069 2309 1125 2309 
L 1478 2338 
Q 1703 2338 1851 2506 
Q 2000 2675 2069 2917 
Q 2138 3159 2138 3378 
Q 2138 3684 1994 3881 
Q 1850 4078 1556 4078 
Q 1313 4078 1091 3986 
Q 869 3894 738 3706 
Q 750 3709 759 3711 
Q 769 3713 781 3713 
Q 925 3713 1022 3613 
Q 1119 3513 1119 3372 
Q 1119 3234 1022 3134 
Q 925 3034 781 3034 
Q 641 3034 541 3134 
Q 441 3234 441 3372 
Q 441 3647 606 3850 
Q 772 4053 1033 4158 
Q 1294 4263 1556 4263 
Q 1750 4263 1965 4205 
Q 2181 4147 2356 4039 
Q 2531 3931 2642 3762 
Q 2753 3594 2753 3378 
Q 2753 3109 2633 2881 
Q 2513 2653 2303 2487 
Q 2094 2322 1844 2241 
Q 2122 2188 2372 2031 
Q 2622 1875 2773 1631 
Q 2925 1388 2925 1106 
Q 2925 753 2731 467 
Q 2538 181 2222 20 
Q 1906 -141 1556 -141 
Q 1256 -141 954 -26 
Q 653 88 461 316 
Q 269 544 269 863 
Q 269 1022 375 1128 
Q 481 1234 641 1234 
Q 744 1234 830 1186 
Q 916 1138 964 1050 
Q 1013 963 1013 863 
Q 1013 706 903 600 
Q 794 494 641 494 
L 609 494 
z
" transform="scale(0.015625)"/>
     </defs>
     <use xlink:href="#Cmmi10-12" transform="translate(0 0.484375)"/>
     <use xlink:href="#Cmr10-29" transform="translate(66.923885 0.484375)"/>
     <use xlink:href="#Cmmi10-24" transform="translate(170.859489 35.646875) scale(0.7)"/>
     <use xlink:href="#Cmr10-6e" transform="translate(172.859489 -30.517188) scale(0.7)"/>
     <path d="M 170.859489 22.359375 
L 170.859489 28.609375 
L 210.747185 28.609375 
L 210.747185 22.359375 
L 170.859489 22.359375 
z
"/>
    </g>
   </g>
   <g id="text_12">
    <!-- $(2, \frac{\pi}{3})$ -->
    <g style="fill: #0b0b0b" transform="translate(193.232098 73.480674) scale(0.095 -0.095)">
     <defs>
      <path id="Cmr10-77" d="M 1984 -1588 
Q 1628 -1306 1370 -942 
Q 1113 -578 948 -165 
Q 784 247 703 697 
Q 622 1147 622 1600 
Q 622 2059 703 2509 
Q 784 2959 951 3375 
Q 1119 3791 1378 4153 
Q 1638 4516 1984 4788 
Q 1984 4800 2016 4800 
L 2075 4800 
Q 2094 4800 2109 4783 
Q 2125 4766 2125 4744 
Q 2125 4716 2113 4703 
Q 1800 4397 1592 4047 
Q 1384 3697 1257 3301 
Q 1131 2906 1075 2482 
Q 1019 2059 1019 1600 
Q 1019 -434 2106 -1491 
Q 2125 -1509 2125 -1544 
Q 2125 -1559 2108 -1579 
Q 2091 -1600 2075 -1600 
L 2016 -1600 
Q 1984 -1600 1984 -1588 
z
" transform="scale(0.015625)"/>
      <path id="Cmr10-31" d="M 319 0 
L 319 172 
Q 319 188 331 206 
L 1325 1306 
Q 1550 1550 1690 1715 
Q 1831 1881 1968 2097 
Q 2106 2313 2186 2536 
Q 2266 2759 2266 3009 
Q 2266 3272 2169 3511 
Q 2072 3750 1880 3894 
Q 1688 4038 1416 4038 
Q 1138 4038 916 3870 
Q 694 3703 603 3438 
Q 628 3444 672 3444 
Q 816 3444 917 3347 
Q 1019 3250 1019 3097 
Q 1019 2950 917 2848 
Q 816 2747 672 2747 
Q 522 2747 420 2851 
Q 319 2956 319 3097 
Q 319 3338 409 3548 
Q 500 3759 670 3923 
Q 841 4088 1055 4175 
Q 1269 4263 1509 4263 
Q 1875 4263 2190 4108 
Q 2506 3953 2690 3670 
Q 2875 3388 2875 3009 
Q 2875 2731 2753 2481 
Q 2631 2231 2440 2026 
Q 2250 1822 1953 1562 
Q 1656 1303 1563 1216 
L 838 519 
L 1453 519 
Q 1906 519 2211 526 
Q 2516 534 2534 550 
Q 2609 631 2688 1141 
L 2875 1141 
L 2694 0 
L 319 0 
z
" transform="scale(0.015625)"/>
      <path id="Cmmi10-2c" d="M 634 -1153 
Q 634 -1125 659 -1100 
Q 891 -878 1019 -587 
Q 1147 -297 1147 25 
L 1147 103 
Q 1044 0 891 0 
Q 744 0 641 103 
Q 538 206 538 353 
Q 538 503 641 603 
Q 744 703 891 703 
Q 1119 703 1216 492 
Q 1313 281 1313 25 
Q 1313 -331 1170 -651 
Q 1028 -972 769 -1228 
Q 744 -1241 728 -1241 
Q 697 -1241 665 -1212 
Q 634 -1184 634 -1153 
z
" transform="scale(0.015625)"/>
      <path id="Cmr10-44" d="M 416 -1600 
Q 359 -1600 359 -1544 
Q 359 -1516 372 -1503 
Q 1466 -434 1466 1600 
Q 1466 3634 384 4691 
Q 359 4706 359 4744 
Q 359 4766 376 4783 
Q 394 4800 416 4800 
L 475 4800 
Q 494 4800 506 4788 
Q 966 4425 1272 3906 
Q 1578 3388 1720 2800 
Q 1863 2213 1863 1600 
Q 1863 1147 1786 708 
Q 1709 269 1542 -157 
Q 1375 -584 1119 -945 
Q 863 -1306 506 -1588 
Q 494 -1600 475 -1600 
L 416 -1600 
z
" transform="scale(0.015625)"/>
     </defs>
     <use xlink:href="#Cmr10-77"/>
     <use xlink:href="#Cmr10-31" transform="translate(38.818359 0)"/>
     <use xlink:href="#Cmmi10-2c" transform="translate(88.818359 0)"/>
     <use xlink:href="#Cmmi10-24" transform="translate(142.753963 35.1625) scale(0.7)"/>
     <use xlink:href="#Cmr10-6e" transform="translate(144.753963 -31.001563) scale(0.7)"/>
     <use xlink:href="#Cmr10-44" transform="translate(188.891659 0)"/>
     <path d="M 142.753963 21.875 
L 142.753963 28.125 
L 182.641659 28.125 
L 182.641659 21.875 
L 142.753963 21.875 
z
"/>
    </g>
   </g>
   <g id="text_13">
    <!-- $(-2, \frac{\pi}{3})$ -->
    <g style="fill: #0b0b0b" transform="translate(52.14277 249.216075) scale(0.095 -0.095)">
     <defs>
      <path id="Cmsy10-11" d="M 653 1472 
Q 600 1472 565 1512 
Q 531 1553 531 1600 
Q 531 1647 565 1687 
Q 600 1728 653 1728 
L 4325 1728 
Q 4375 1728 4408 1687 
Q 4441 1647 4441 1600 
Q 4441 1553 4408 1512 
Q 4375 1472 4325 1472 
L 653 1472 
z
" transform="scale(0.015625)"/>
     </defs>
     <use xlink:href="#Cmr10-77"/>
     <use xlink:href="#Cmsy10-11" transform="translate(38.818359 0)"/>
     <use xlink:href="#Cmr10-31" transform="translate(116.503906 0)"/>
     <use xlink:href="#Cmmi10-2c" transform="translate(166.503906 0)"/>
     <use xlink:href="#Cmmi10-24" transform="translate(220.43951 35.1625) scale(0.7)"/>
     <use xlink:href="#Cmr10-6e" transform="translate(222.43951 -31.001563) scale(0.7)"/>
     <use xlink:href="#Cmr10-44" transform="translate(266.577206 0)"/>
     <path d="M 220.43951 21.875 
L 220.43951 28.125 
L 260.327206 28.125 
L 260.327206 21.875 
L 220.43951 21.875 
z
"/>
    </g>
   </g>
   <g id="text_14">
    <!-- $r = 2$ -->
    <g style="fill: #52514e" transform="translate(152.058301 100.384309) scale(0.09 -0.09)">
     <defs>
      <path id="Cmmi10-84" d="M 494 109 
Q 494 147 500 166 
L 978 2075 
Q 1025 2253 1025 2388 
Q 1025 2663 838 2663 
Q 638 2663 541 2423 
Q 444 2184 353 1819 
Q 353 1800 334 1789 
Q 316 1778 300 1778 
L 225 1778 
Q 203 1778 187 1801 
Q 172 1825 172 1844 
Q 241 2122 305 2315 
Q 369 2509 505 2668 
Q 641 2828 844 2828 
Q 1066 2828 1233 2700 
Q 1400 2572 1441 2363 
Q 1603 2575 1811 2701 
Q 2019 2828 2266 2828 
Q 2469 2828 2623 2709 
Q 2778 2591 2778 2388 
Q 2778 2225 2676 2104 
Q 2575 1984 2406 1984 
Q 2303 1984 2233 2048 
Q 2163 2113 2163 2216 
Q 2163 2356 2266 2467 
Q 2369 2578 2503 2578 
Q 2400 2663 2253 2663 
Q 1978 2663 1775 2467 
Q 1572 2272 1409 1972 
L 953 141 
Q 931 53 854 -9 
Q 778 -72 684 -72 
Q 606 -72 550 -22 
Q 494 28 494 109 
z
" transform="scale(0.015625)"/>
     </defs>
     <use xlink:href="#Cmmi10-84" transform="translate(0 0.390625)"/>
     <use xlink:href="#Cmr10-29" transform="translate(65.117245 0.390625)"/>
     <use xlink:href="#Cmr10-31" transform="translate(162.802849 0.390625)"/>
    </g>
   </g>
   <g id="text_15">
    <!-- πολικός άξονας -->
    <g style="fill: #52514e" transform="translate(207.234513 174.437528) scale(0.085 -0.085)">
     <defs>
      <path id="DejaVuSans-354" d="M 231 3500 
L 3584 3500 
L 3584 2925 
L 3144 2925 
L 3144 775 
Q 3144 550 3220 451 
Q 3297 353 3469 353 
Q 3516 353 3584 361 
Q 3653 369 3675 372 
L 3675 -44 
Q 3566 -84 3450 -103 
Q 3334 -122 3219 -122 
Q 2844 -122 2700 83 
Q 2556 288 2556 838 
L 2556 2925 
L 1266 2925 
L 1266 0 
L 678 0 
L 678 2925 
L 231 2925 
L 231 3500 
z
" transform="scale(0.015625)"/>
      <path id="DejaVuSans-353" d="M 1959 3097 
Q 1497 3097 1228 2736 
Q 959 2375 959 1747 
Q 959 1119 1226 758 
Q 1494 397 1959 397 
Q 2419 397 2687 759 
Q 2956 1122 2956 1747 
Q 2956 2369 2687 2733 
Q 2419 3097 1959 3097 
z
M 1959 3584 
Q 2709 3584 3137 3096 
Q 3566 2609 3566 1747 
Q 3566 888 3137 398 
Q 2709 -91 1959 -91 
Q 1206 -91 779 398 
Q 353 888 353 1747 
Q 353 2609 779 3096 
Q 1206 3584 1959 3584 
z
" transform="scale(0.015625)"/>
      <path id="DejaVuSans-34f" d="M 1981 4316 
L 3597 0 
L 2988 0 
L 2006 2588 
L 800 0 
L 191 0 
L 1725 3356 
L 1494 3975 
Q 1347 4369 1013 4369 
L 713 4369 
L 713 4863 
L 1078 4856 
Q 1784 4847 1981 4316 
z
" transform="scale(0.015625)"/>
      <path id="DejaVuSans-34d" d="M 1109 3500 
L 1109 1234 
Q 1109 781 1216 638 
Q 1328 488 1666 488 
L 1944 488 
L 1944 0 
L 1597 0 
Q 1034 0 778 300 
Q 522 606 522 1269 
L 519 3500 
L 1109 3500 
z
" transform="scale(0.015625)"/>
      <path id="DejaVuSans-34e" d="M 597 3500 
L 1191 3500 
L 1191 2047 
L 2700 3500 
L 3400 3500 
L 2022 2181 
L 3616 0 
L 2913 0 
L 1619 1806 
L 1191 1403 
L 1191 0 
L 597 0 
L 597 3500 
z
" transform="scale(0.015625)"/>
      <path id="DejaVuSans-360" d="M 2425 5119 
L 3047 5119 
L 2029 3944 
L 1550 3944 
L 2425 5119 
z
M 1959 3097 
Q 1497 3097 1228 2736 
Q 959 2375 959 1747 
Q 959 1119 1226 758 
Q 1494 397 1959 397 
Q 2419 397 2687 759 
Q 2956 1122 2956 1747 
Q 2956 2369 2687 2733 
Q 2419 3097 1959 3097 
z
M 1959 3584 
Q 2709 3584 3137 3096 
Q 3566 2609 3566 1747 
Q 3566 888 3137 398 
Q 2709 -91 1959 -91 
Q 1206 -91 779 398 
Q 353 888 353 1747 
Q 353 2609 779 3096 
Q 1206 3584 1959 3584 
z
" transform="scale(0.015625)"/>
      <path id="DejaVuSans-356" d="M 2125 -91 
Q 1284 -91 818 406 
Q 353 903 353 1747 
Q 353 2603 823 3093 
Q 1294 3584 2113 3584 
Q 2378 3584 2631 3529 
Q 2884 3475 3122 3366 
L 3122 2828 
Q 2878 2963 2633 3030 
Q 2388 3097 2138 3097 
Q 1578 3097 1268 2742 
Q 959 2388 959 1747 
Q 959 1106 1268 751 
Q 1578 397 2125 397 
Q 2534 397 2784 159 
Q 3047 -88 3047 -463 
Q 3047 -822 2816 -1072 
Q 2566 -1344 2056 -1344 
Q 2056 -1109 2056 -872 
Q 2272 -888 2403 -750 
Q 2503 -641 2503 -525 
Q 2503 -359 2403 -222 
Q 2306 -91 2125 -91 
z
" transform="scale(0.015625)"/>
      <path id="DejaVuSans-3" transform="scale(0.015625)"/>
      <path id="DejaVuSans-340" d="M 2644 1628 
L 2506 2350 
Q 2366 3091 1809 3091 
Q 1391 3091 1200 2747 
Q 959 2316 959 1747 
Q 959 1059 1194 731 
Q 1431 397 1809 397 
Q 2228 397 2453 1063 
L 2644 1628 
z
M 2966 2584 
L 3275 3500 
L 3788 3500 
L 3147 1603 
L 3272 919 
Q 3300 766 3409 638 
Q 3538 488 3638 488 
L 3913 488 
L 3913 0 
L 3569 0 
Q 3275 0 3013 263 
Q 2884 394 2831 669 
Q 2688 322 2394 50 
Q 2256 -78 1809 -78 
Q 1075 -78 719 397 
Q 353 888 353 1747 
Q 353 2666 750 3097 
Q 1191 3578 1809 3578 
Q 2781 3578 2966 2584 
z
M 2378 5119 
L 3000 5119 
L 1982 3944 
L 1503 3944 
L 2378 5119 
z
" transform="scale(0.015625)"/>
      <path id="DejaVuSans-352" d="M 2281 397 
Q 2694 394 2941 159 
Q 3203 -88 3203 -463 
Q 3203 -822 2972 -1072 
Q 2722 -1344 2213 -1344 
Q 2213 -1109 2213 -872 
Q 2428 -888 2559 -750 
Q 2659 -641 2659 -525 
Q 2659 -359 2559 -222 
Q 2463 -91 2281 -91 
Q 334 -91 334 1275 
Q 334 2213 1375 2488 
Q 500 2600 500 3413 
Q 500 4028 1188 4284 
L 538 4284 
L 538 4863 
L 3003 4863 
L 3003 4284 
Q 1038 4284 1038 3375 
Q 1038 2778 2688 2750 
L 2688 2219 
Q 906 2288 913 1275 
Q 916 428 2281 397 
z
" transform="scale(0.015625)"/>
      <path id="DejaVuSans-351" d="M 1300 0 
L 231 3500 
L 850 3500 
L 1753 563 
Q 2128 950 2441 1488 
Q 2678 1891 2691 2241 
Q 2697 2406 2622 2719 
Q 2534 3091 2203 3500 
L 2784 3500 
L 2784 3500 
Q 3000 3222 3144 2834 
Q 3275 2478 3275 2234 
Q 3275 1622 2850 1075 
Q 2297 363 1913 0 
L 1300 0 
z
" transform="scale(0.015625)"/>
      <path id="DejaVuSans-345" d="M 2644 1628 
L 2506 2350 
Q 2366 3091 1809 3091 
Q 1391 3091 1200 2747 
Q 959 2316 959 1747 
Q 959 1059 1194 731 
Q 1431 397 1809 397 
Q 2228 397 2453 1063 
L 2644 1628 
z
M 2966 2584 
L 3275 3500 
L 3788 3500 
L 3147 1603 
L 3272 919 
Q 3300 766 3409 638 
Q 3538 488 3638 488 
L 3913 488 
L 3913 0 
L 3569 0 
Q 3275 0 3013 263 
Q 2884 394 2831 669 
Q 2688 322 2394 50 
Q 2256 -78 1809 -78 
Q 1075 -78 719 397 
Q 353 888 353 1747 
Q 353 2666 750 3097 
Q 1191 3578 1809 3578 
Q 2781 3578 2966 2584 
z
" transform="scale(0.015625)"/>
     </defs>
     <use xlink:href="#DejaVuSans-354"/>
     <use xlink:href="#DejaVuSans-353" transform="translate(60.203125 0)"/>
     <use xlink:href="#DejaVuSans-34f" transform="translate(121.390625 0)"/>
     <use xlink:href="#DejaVuSans-34d" transform="translate(180.578125 0)"/>
     <use xlink:href="#DejaVuSans-34e" transform="translate(214.421875 0)"/>
     <use xlink:href="#DejaVuSans-360" transform="translate(273.359375 0)"/>
     <use xlink:href="#DejaVuSans-356" transform="translate(334.546875 0)"/>
     <use xlink:href="#DejaVuSans-3" transform="translate(393.234375 0)"/>
     <use xlink:href="#DejaVuSans-340" transform="translate(425.015625 0)"/>
     <use xlink:href="#DejaVuSans-352" transform="translate(490.9375 0)"/>
     <use xlink:href="#DejaVuSans-353" transform="translate(546.703125 0)"/>
     <use xlink:href="#DejaVuSans-351" transform="translate(607.890625 0)"/>
     <use xlink:href="#DejaVuSans-345" transform="translate(663.75 0)"/>
     <use xlink:href="#DejaVuSans-356" transform="translate(729.671875 0)"/>
    </g>
   </g>
   <g id="text_16">
    <!-- αρνητικό $r$: αντίθετη κατεύθυνση -->
    <g style="fill: #0b0b0b" transform="translate(55.172865 18.034338) scale(0.1 -0.1)">
     <defs>
      <path id="DejaVuSans-355" d="M 863 2875 
Q 1053 3194 1525 3475 
Q 1709 3584 2278 3584 
Q 2916 3584 3314 3078 
Q 3713 2572 3713 1747 
Q 3713 922 3314 415 
Q 2916 -91 2278 -91 
Q 1894 -91 1617 61 
Q 1341 213 1159 525 
L 1159 -1331 
L 581 -1331 
L 581 1716 
Q 581 2438 863 2875 
z
M 3116 1747 
Q 3116 2381 2855 2742 
Q 2594 3103 2138 3103 
Q 1681 3103 1420 2742 
Q 1159 2381 1159 1747 
Q 1159 1113 1420 752 
Q 1681 391 2138 391 
Q 2594 391 2855 752 
Q 3116 1113 3116 1747 
z
" transform="scale(0.015625)"/>
      <path id="DejaVuSans-34b" d="M 3513 2113 
L 3513 -1331 
L 2938 -1331 
L 2938 2094 
Q 2938 2591 2744 2837 
Q 2550 3084 2163 3084 
Q 1697 3084 1428 2787 
Q 1159 2491 1159 1978 
L 1159 0 
L 581 0 
L 581 3500 
L 1159 3500 
L 1159 2956 
Q 1366 3272 1644 3428 
Q 1925 3584 2291 3584 
Q 2894 3584 3203 3213 
Q 3513 2838 3513 2113 
z
" transform="scale(0.015625)"/>
      <path id="DejaVuSans-358" d="M 2319 638 
Q 2431 488 2769 488 
L 3047 488 
L 3047 0 
L 2700 0 
Q 2138 0 1881 300 
Q 1625 606 1625 1269 
L 1625 2925 
L 313 2925 
L 313 3500 
L 3541 3500 
L 3541 2925 
L 2213 2925 
L 2213 1234 
Q 2213 781 2319 638 
z
" transform="scale(0.015625)"/>
      <path id="DejaVuSans-1d" d="M 750 794 
L 1409 794 
L 1409 0 
L 750 0 
L 750 794 
z
M 750 3309 
L 1409 3309 
L 1409 2516 
L 750 2516 
L 750 3309 
z
" transform="scale(0.015625)"/>
      <path id="DejaVuSans-343" d="M 1109 3500 
L 1109 1234 
Q 1109 781 1216 638 
Q 1328 488 1666 488 
L 1944 488 
L 1944 0 
L 1597 0 
Q 1034 0 778 300 
Q 522 606 522 1269 
L 519 3500 
L 1109 3500 
z
M 1453 5119 
L 2075 5119 
L 1057 3944 
L 578 3944 
L 1453 5119 
z
" transform="scale(0.015625)"/>
      <path id="DejaVuSans-34c" d="M 2953 2219 
L 963 2219 
Q 1009 1284 1225 888 
Q 1494 400 1959 400 
Q 2428 400 2688 891 
Q 2916 1322 2953 2219 
z
M 2944 2750 
Q 2856 3638 2688 3950 
Q 2419 4444 1959 4444 
Q 1481 4444 1228 3956 
Q 1028 3563 969 2750 
L 2944 2750 
z
M 1959 4913 
Q 2709 4913 3138 4250 
Q 3566 3591 3566 2422 
Q 3566 1256 3138 594 
Q 2709 -72 1959 -72 
Q 1206 -72 781 594 
Q 353 1256 353 2422 
Q 353 3591 781 4250 
Q 1206 4913 1959 4913 
z
" transform="scale(0.015625)"/>
      <path id="DejaVuSans-349" d="M 1234 1888 
Q 884 1963 697 2166 
Q 509 2366 509 2656 
Q 509 3097 866 3344 
Q 1219 3588 1831 3588 
Q 2069 3588 2334 3550 
Q 2600 3513 2906 3438 
L 2906 2916 
Q 2603 3006 2353 3047 
Q 2100 3088 1878 3088 
Q 1506 3088 1291 2944 
Q 1072 2800 1072 2600 
Q 1072 2381 1284 2241 
Q 1494 2103 1856 2103 
L 2341 2103 
L 2341 1628 
L 1878 1628 
Q 1450 1628 1225 1469 
Q 981 1294 981 1019 
Q 981 738 1244 563 
Q 1509 388 1981 388 
Q 2272 388 2538 444 
Q 2803 503 3025 619 
L 3025 84 
Q 2744 -3 2481 -47 
Q 2216 -91 1966 -91 
Q 1222 -91 819 194 
Q 416 478 416 1019 
Q 416 1356 631 1584 
Q 847 1813 1234 1888 
z
" transform="scale(0.015625)"/>
      <path id="DejaVuSans-361" d="M 2140 5119 
L 2762 5119 
L 1744 3944 
L 1265 3944 
L 2140 5119 
z
M 1056 3500 
L 1056 1234 
Q 1056 813 1213 613 
Q 1384 397 1719 397 
Q 2188 397 2516 1047 
Q 2700 1416 2747 2000 
Q 2772 2319 2678 2719 
Q 2591 3091 2259 3500 
L 2841 3500 
L 2841 3500 
Q 3059 3219 3200 2834 
Q 3331 2475 3331 1994 
Q 3331 1203 2931 619 
Q 2444 -94 1650 -91 
Q 1091 -91 775 284 
Q 469 653 469 1269 
L 466 3500 
L 1056 3500 
z
" transform="scale(0.015625)"/>
      <path id="DejaVuSans-359" d="M 1056 3500 
L 1056 1234 
Q 1056 813 1213 613 
Q 1384 397 1719 397 
Q 2188 397 2516 1047 
Q 2700 1416 2747 2000 
Q 2772 2319 2678 2719 
Q 2591 3091 2259 3500 
L 2841 3500 
L 2841 3500 
Q 3059 3219 3200 2834 
Q 3331 2475 3331 1994 
Q 3331 1203 2931 619 
Q 2444 -94 1650 -91 
Q 1091 -91 775 284 
Q 469 653 469 1269 
L 466 3500 
L 1056 3500 
z
" transform="scale(0.015625)"/>
      <path id="DejaVuSans-357" d="M 1959 3044 
Q 1484 3044 1228 2700 
Q 959 2341 959 1747 
Q 959 1119 1226 758 
Q 1494 397 1959 397 
Q 2419 397 2687 759 
Q 2956 1122 2956 1747 
Q 2956 2319 2688 2700 
Q 2441 3044 1959 3044 
z
M 1959 3500 
L 3869 3500 
L 3869 2925 
L 3225 2925 
Q 3566 2438 3566 1747 
Q 3566 888 3138 400 
Q 2709 -91 1959 -91 
Q 1206 -91 781 400 
Q 353 888 353 1747 
Q 353 2613 781 3097 
Q 1134 3500 1959 3500 
z
" transform="scale(0.015625)"/>
     </defs>
     <use xlink:href="#DejaVuSans-345" transform="translate(0 0.015625)"/>
     <use xlink:href="#DejaVuSans-355" transform="translate(65.917969 0.015625)"/>
     <use xlink:href="#DejaVuSans-351" transform="translate(129.394531 0.015625)"/>
     <use xlink:href="#DejaVuSans-34b" transform="translate(185.253906 0.015625)"/>
     <use xlink:href="#DejaVuSans-358" transform="translate(248.632812 0.015625)"/>
     <use xlink:href="#DejaVuSans-34d" transform="translate(308.837891 0.015625)"/>
     <use xlink:href="#DejaVuSans-34e" transform="translate(342.675781 0.015625)"/>
     <use xlink:href="#DejaVuSans-360" transform="translate(401.611328 0.015625)"/>
     <use xlink:href="#DejaVuSans-3" transform="translate(462.792969 0.015625)"/>
     <use xlink:href="#Cmmi10-84" transform="translate(494.580078 0.015625)"/>
     <use xlink:href="#DejaVuSans-1d" transform="translate(539.697266 0.015625)"/>
     <use xlink:href="#DejaVuSans-3" transform="translate(573.388672 0.015625)"/>
     <use xlink:href="#DejaVuSans-345" transform="translate(605.175781 0.015625)"/>
     <use xlink:href="#DejaVuSans-351" transform="translate(671.09375 0.015625)"/>
     <use xlink:href="#DejaVuSans-358" transform="translate(726.953125 0.015625)"/>
     <use xlink:href="#DejaVuSans-343" transform="translate(787.158203 0.015625)"/>
     <use xlink:href="#DejaVuSans-34c" transform="translate(820.996094 0.015625)"/>
     <use xlink:href="#DejaVuSans-349" transform="translate(882.177734 0.015625)"/>
     <use xlink:href="#DejaVuSans-358" transform="translate(936.230469 0.015625)"/>
     <use xlink:href="#DejaVuSans-34b" transform="translate(996.435547 0.015625)"/>
     <use xlink:href="#DejaVuSans-3" transform="translate(1059.814453 0.015625)"/>
     <use xlink:href="#DejaVuSans-34e" transform="translate(1091.601562 0.015625)"/>
     <use xlink:href="#DejaVuSans-345" transform="translate(1150.537109 0.015625)"/>
     <use xlink:href="#DejaVuSans-358" transform="translate(1216.455078 0.015625)"/>
     <use xlink:href="#DejaVuSans-349" transform="translate(1276.660156 0.015625)"/>
     <use xlink:href="#DejaVuSans-361" transform="translate(1330.712891 0.015625)"/>
     <use xlink:href="#DejaVuSans-34c" transform="translate(1388.574219 0.015625)"/>
     <use xlink:href="#DejaVuSans-359" transform="translate(1449.755859 0.015625)"/>
     <use xlink:href="#DejaVuSans-351" transform="translate(1507.617188 0.015625)"/>
     <use xlink:href="#DejaVuSans-357" transform="translate(1563.476562 0.015625)"/>
     <use xlink:href="#DejaVuSans-34b" transform="translate(1626.855469 0.015625)"/>
    </g>
   </g>
   <g id="line2d_24">
    <defs>
     <path id="m2d4cb25934" d="M 0 3.25 
C 0.86191 3.25 1.688635 2.907559 2.298097 2.298097 
C 2.907559 1.688635 3.25 0.86191 3.25 0 
C 3.25 -0.86191 2.907559 -1.688635 2.298097 -2.298097 
C 1.688635 -2.907559 0.86191 -3.25 0 -3.25 
C -0.86191 -3.25 -1.688635 -2.907559 -2.298097 -2.298097 
C -2.907559 -1.688635 -3.25 -0.86191 -3.25 0 
C -3.25 0.86191 -2.907559 1.688635 -2.298097 2.298097 
C -1.688635 2.907559 -0.86191 3.25 0 3.25 
z
" style="stroke: #2a78d6; stroke-width: 1.7"/>
    </defs>
    <g>
     <use xlink:href="#m2d4cb25934" x="187.231062" y="71.439287" style="fill: #2a78d6; stroke: #2a78d6; stroke-width: 1.7"/>
    </g>
   </g>
   <g id="line2d_25">
    <defs>
     <path id="m95dd4fdbd1" d="M 0 3.25 
C 0.86191 3.25 1.688635 2.907559 2.298097 2.298097 
C 2.907559 1.688635 3.25 0.86191 3.25 0 
C 3.25 -0.86191 2.907559 -1.688635 2.298097 -2.298097 
C 1.688635 -2.907559 0.86191 -3.25 0 -3.25 
C -0.86191 -3.25 -1.688635 -2.907559 -2.298097 -2.298097 
C -2.907559 -1.688635 -3.25 -0.86191 -3.25 0 
C -3.25 0.86191 -2.907559 1.688635 -2.298097 2.298097 
C -1.688635 2.907559 -0.86191 3.25 0 3.25 
z
" style="stroke: #eb6834; stroke-width: 1.7"/>
    </defs>
    <g>
     <use xlink:href="#m95dd4fdbd1" x="87.213805" y="244.674257" style="fill: #eb6834; stroke: #eb6834; stroke-width: 1.7"/>
    </g>
   </g>
  </g>
  <g id="axes_2">
   <g id="patch_14">
    <path d="M 318.011545 280.911818 
L 581.029415 280.911818 
L 581.029415 25.2 
L 318.011545 25.2 
z
" style="fill: #ffffff"/>
   </g>
   <g id="line2d_26">
    <path d="M 376.459961 280.911818 
L 376.459961 25.2 
" clip-path="url(#pe48a2419bf)" style="fill: none; stroke: #e9e8e3; stroke-width: 0.7; stroke-linecap: round"/>
   </g>
   <g id="line2d_27">
    <path d="M 522.581 280.911818 
L 522.581 25.2 
" clip-path="url(#pe48a2419bf)" style="fill: none; stroke: #e9e8e3; stroke-width: 0.7; stroke-linecap: round"/>
   </g>
   <g id="line2d_28">
    <path d="M 318.011545 229.769455 
L 581.029415 229.769455 
" clip-path="url(#pe48a2419bf)" style="fill: none; stroke: #e9e8e3; stroke-width: 0.7; stroke-linecap: round"/>
   </g>
   <g id="line2d_29">
    <path d="M 318.011545 83.648416 
L 581.029415 83.648416 
" clip-path="url(#pe48a2419bf)" style="fill: none; stroke: #e9e8e3; stroke-width: 0.7; stroke-linecap: round"/>
   </g>
   <g id="patch_15">
    <path d="M 449.52048 280.911818 
L 449.52048 25.2 
" style="fill: none; stroke: #52514e; stroke-width: 0.9; stroke-linejoin: miter; stroke-linecap: square"/>
   </g>
   <g id="patch_16">
    <path d="M 318.011545 156.708935 
L 581.029415 156.708935 
" style="fill: none; stroke: #52514e; stroke-width: 0.9; stroke-linejoin: miter; stroke-linecap: square"/>
   </g>
   <g id="matplotlib.axis_3">
    <g id="xtick_5">
     <g id="line2d_30">
      <g>
       <use xlink:href="#mea416f7c7a" x="376.459961" y="156.708935" style="fill: #52514e; stroke: #52514e; stroke-width: 0.8"/>
      </g>
     </g>
     <g id="text_17">
      <g id="patch_17">
       <path d="M 369.599531 170.803935 
L 383.32039 170.803935 
L 383.32039 161.113935 
L 369.599531 161.113935 
z
" style="fill: #ffffff; opacity: 0.85"/>
      </g>
      <!-- −1 -->
      <g style="fill: #52514e" transform="translate(370.194531 168.166943) scale(0.085 -0.085)">
       <use xlink:href="#DejaVuSans-c9c"/>
       <use xlink:href="#DejaVuSans-14" transform="translate(83.796875 0)"/>
      </g>
     </g>
    </g>
    <g id="xtick_6">
     <g id="line2d_31">
      <g>
       <use xlink:href="#mea416f7c7a" x="522.581" y="156.708935" style="fill: #52514e; stroke: #52514e; stroke-width: 0.8"/>
      </g>
     </g>
     <g id="text_18">
      <g id="patch_18">
       <path d="M 519.281937 170.803935 
L 525.880062 170.803935 
L 525.880062 161.113935 
L 519.281937 161.113935 
z
" style="fill: #ffffff; opacity: 0.85"/>
      </g>
      <!-- 1 -->
      <g style="fill: #52514e" transform="translate(519.876937 168.166943) scale(0.085 -0.085)">
       <use xlink:href="#DejaVuSans-14"/>
      </g>
     </g>
    </g>
   </g>
   <g id="matplotlib.axis_4">
    <g id="ytick_5">
     <g id="line2d_32">
      <g>
       <use xlink:href="#mfd0566a3cc" x="449.52048" y="229.769455" style="fill: #52514e; stroke: #52514e; stroke-width: 0.8"/>
      </g>
     </g>
     <g id="text_19">
      <g id="patch_19">
       <path d="M 431.394621 235.635451 
L 445.11548 235.635451 
L 445.11548 225.945451 
L 431.394621 225.945451 
z
" style="fill: #ffffff; opacity: 0.85"/>
      </g>
      <!-- −1 -->
      <g style="fill: #52514e" transform="translate(431.989621 232.998458) scale(0.085 -0.085)">
       <use xlink:href="#DejaVuSans-c9c"/>
       <use xlink:href="#DejaVuSans-14" transform="translate(83.796875 0)"/>
      </g>
     </g>
    </g>
    <g id="ytick_6">
     <g id="line2d_33">
      <g>
       <use xlink:href="#mfd0566a3cc" x="449.52048" y="83.648416" style="fill: #52514e; stroke: #52514e; stroke-width: 0.8"/>
      </g>
     </g>
     <g id="text_20">
      <g id="patch_20">
       <path d="M 438.517355 89.514412 
L 445.11548 89.514412 
L 445.11548 79.824412 
L 438.517355 79.824412 
z
" style="fill: #ffffff; opacity: 0.85"/>
      </g>
      <!-- 1 -->
      <g style="fill: #52514e" transform="translate(439.112355 86.877419) scale(0.085 -0.085)">
       <use xlink:href="#DejaVuSans-14"/>
      </g>
     </g>
    </g>
   </g>
   <g id="line2d_34">
    <g>
     <use xlink:href="#m4fe79a03d0" x="581.029415" y="156.708935" style="fill: #52514e; stroke: #52514e; stroke-linejoin: miter"/>
    </g>
   </g>
   <g id="line2d_35">
    <g>
     <use xlink:href="#m0e7391c8de" x="449.52048" y="25.2" style="fill: #52514e; stroke: #52514e; stroke-linejoin: miter"/>
    </g>
   </g>
   <g id="line2d_36">
    <path d="M 449.52048 156.708935 
L 522.581 83.648416 
" clip-path="url(#pe48a2419bf)" style="fill: none; stroke-dasharray: 7.2,4.5; stroke-dashoffset: 0; stroke: #eb6834; stroke-width: 1.8"/>
   </g>
   <g id="line2d_37">
    <path d="M 449.52048 156.708935 
L 376.459961 229.769455 
" clip-path="url(#pe48a2419bf)" style="fill: none; stroke: #2a78d6; stroke-width: 2.2; stroke-linecap: round"/>
   </g>
   <g id="line2d_38">
    <path d="M 480.205898 156.708935 
L 480.137953 154.668047 
L 479.934419 152.636197 
L 479.596198 150.622383 
L 479.124786 148.635523 
L 478.522272 146.684416 
L 477.791324 144.777703 
L 476.935178 142.923827 
L 475.957628 141.130998 
L 474.863 139.407155 
L 473.656144 137.759934 
L 472.342403 136.196628 
L 470.927595 134.72416 
L 469.417987 133.349052 
L 467.820262 132.077393 
L 466.141497 130.914814 
L 464.389126 129.866464 
L 462.57091 128.936986 
L 460.6949 128.130495 
L 458.769404 127.450564 
L 456.802949 126.900203 
L 454.804244 126.481849 
L 452.78214 126.197356 
L 450.745592 126.047983 
L 448.703618 126.034391 
L 446.665262 126.156642 
L 444.63955 126.414193 
L 442.635454 126.805903 
L 440.661847 127.330039 
L 438.727471 127.984279 
L 436.840892 128.765726 
L 435.010464 129.670919 
L 433.244293 130.69585 
L 431.550201 131.835979 
L 429.935691 133.086257 
L 428.407911 134.441149 
L 426.973628 135.894653 
L 425.639194 137.440332 
L 424.410517 139.071343 
L 423.29304 140.780461 
L 422.291711 142.560119 
L 421.410964 144.402434 
L 420.654699 146.299249 
L 420.026267 148.242162 
L 419.528449 150.222571 
L 419.16345 152.231704 
L 418.932887 154.260665 
L 418.837781 156.300468 
L 418.878553 158.34208 
L 419.055022 160.376459 
L 419.366407 162.394597 
L 419.811329 164.387556 
L 420.387818 166.34651 
L 421.09332 168.262785 
L 421.924711 170.127893 
L 422.878311 171.933576 
L 423.949894 173.671836 
L 425.134717 175.334977 
L 426.427532 176.915632 
L 427.822613 178.406802 
" clip-path="url(#pe48a2419bf)" style="fill: none; stroke: #2a78d6; stroke-width: 1.2; stroke-linecap: round"/>
   </g>
   <g id="text_21">
    <!-- $x$ -->
    <g style="fill: #0b0b0b" transform="translate(584.18563 159.306591) scale(0.1 -0.1)">
     <use xlink:href="#Cmmi10-3f" transform="translate(0 0.8125)"/>
    </g>
   </g>
   <g id="text_22">
    <!-- $y$ -->
    <g style="fill: #0b0b0b" transform="translate(455.52048 34.797656) scale(0.1 -0.1)">
     <use xlink:href="#Cmmi10-72" transform="translate(0 0.8125)"/>
    </g>
   </g>
   <g id="text_23">
    <!-- $\tan^{-1}(1) = \frac{\pi}{4}$ -->
    <g style="fill: #52514e" transform="translate(502.519026 64.683939) scale(0.085 -0.085)">
     <defs>
      <path id="Cmr10-1c" d="M 653 769 
L 653 2534 
L 122 2534 
L 122 2700 
Q 541 2700 737 3090 
Q 934 3481 934 3938 
L 1119 3938 
L 1119 2759 
L 2022 2759 
L 2022 2534 
L 1119 2534 
L 1119 781 
Q 1119 516 1208 316 
Q 1297 116 1528 116 
Q 1747 116 1844 327 
Q 1941 538 1941 781 
L 1941 1159 
L 2125 1159 
L 2125 769 
Q 2125 569 2051 373 
Q 1978 178 1834 53 
Q 1691 -72 1484 -72 
Q 1100 -72 876 158 
Q 653 388 653 769 
z
" transform="scale(0.015625)"/>
      <path id="Cmr10-73" d="M 256 628 
Q 256 1009 556 1248 
Q 856 1488 1276 1586 
Q 1697 1684 2075 1684 
L 2075 1947 
Q 2075 2131 1994 2304 
Q 1913 2478 1759 2589 
Q 1606 2700 1422 2700 
Q 997 2700 775 2509 
Q 897 2509 976 2417 
Q 1056 2325 1056 2203 
Q 1056 2075 965 1984 
Q 875 1894 750 1894 
Q 622 1894 531 1984 
Q 441 2075 441 2203 
Q 441 2541 747 2705 
Q 1053 2869 1422 2869 
Q 1681 2869 1943 2758 
Q 2206 2647 2373 2440 
Q 2541 2234 2541 1959 
L 2541 519 
Q 2541 394 2594 289 
Q 2647 184 2759 184 
Q 2866 184 2917 290 
Q 2969 397 2969 519 
L 2969 928 
L 3156 928 
L 3156 519 
Q 3156 375 3081 245 
Q 3006 116 2879 39 
Q 2753 -38 2606 -38 
Q 2419 -38 2283 107 
Q 2147 253 2131 453 
Q 2013 213 1781 70 
Q 1550 -72 1288 -72 
Q 1044 -72 808 0 
Q 572 72 414 226 
Q 256 381 256 628 
z
M 775 628 
Q 775 403 940 250 
Q 1106 97 1331 97 
Q 1538 97 1706 200 
Q 1875 303 1975 481 
Q 2075 659 2075 856 
L 2075 1522 
Q 1784 1522 1479 1426 
Q 1175 1331 975 1128 
Q 775 925 775 628 
z
" transform="scale(0.015625)"/>
      <path id="Cmr10-74" d="M 191 0 
L 191 225 
Q 409 225 550 259 
Q 691 294 691 428 
L 691 2175 
Q 691 2347 639 2423 
Q 588 2500 491 2517 
Q 394 2534 191 2534 
L 191 2759 
L 1119 2828 
L 1119 2203 
Q 1247 2478 1498 2653 
Q 1750 2828 2047 2828 
Q 2491 2828 2714 2615 
Q 2938 2403 2938 1966 
L 2938 428 
Q 2938 294 3078 259 
Q 3219 225 3438 225 
L 3438 0 
L 1972 0 
L 1972 225 
Q 2191 225 2331 259 
Q 2472 294 2472 428 
L 2472 1947 
Q 2472 2259 2381 2461 
Q 2291 2663 2009 2663 
Q 1638 2663 1398 2366 
Q 1159 2069 1159 1691 
L 1159 428 
Q 1159 294 1300 259 
Q 1441 225 1656 225 
L 1656 0 
L 191 0 
z
" transform="scale(0.015625)"/>
      <path id="Cmr10-64" d="M 594 0 
L 594 225 
Q 1394 225 1394 428 
L 1394 3788 
Q 1063 3628 556 3628 
L 556 3853 
Q 1341 3853 1741 4263 
L 1831 4263 
Q 1853 4263 1873 4245 
Q 1894 4228 1894 4206 
L 1894 428 
Q 1894 225 2694 225 
L 2694 0 
L 594 0 
z
" transform="scale(0.015625)"/>
      <path id="Cmr10-3b" d="M 178 1056 
L 178 1281 
L 2156 4231 
Q 2178 4263 2222 4263 
L 2316 4263 
Q 2388 4263 2388 4191 
L 2388 1281 
L 3016 1281 
L 3016 1056 
L 2388 1056 
L 2388 428 
Q 2388 297 2575 261 
Q 2763 225 3009 225 
L 3009 0 
L 1247 0 
L 1247 225 
Q 1494 225 1681 261 
Q 1869 297 1869 428 
L 1869 1056 
L 178 1056 
z
M 391 1281 
L 1906 1281 
L 1906 3547 
L 391 1281 
z
" transform="scale(0.015625)"/>
     </defs>
     <use xlink:href="#Cmr10-1c" transform="translate(0 0.084203)"/>
     <use xlink:href="#Cmr10-73" transform="translate(38.818359 0.084203)"/>
     <use xlink:href="#Cmr10-74" transform="translate(88.818359 0.084203)"/>
     <use xlink:href="#Cmsy10-11" transform="translate(148.340228 41.373437) scale(0.7)"/>
     <use xlink:href="#Cmr10-64" transform="translate(202.720111 41.373437) scale(0.7)"/>
     <use xlink:href="#Cmr10-77" transform="translate(260.107574 0.084203)"/>
     <use xlink:href="#Cmr10-64" transform="translate(298.925934 0.084203)"/>
     <use xlink:href="#Cmr10-44" transform="translate(348.925934 0.084203)"/>
     <use xlink:href="#Cmr10-29" transform="translate(407.74435 0.084203)"/>
     <use xlink:href="#Cmmi10-24" transform="translate(511.679954 35.246703) scale(0.7)"/>
     <use xlink:href="#Cmr10-3b" transform="translate(513.679954 -30.917359) scale(0.7)"/>
     <path d="M 511.679954 21.959203 
L 511.679954 28.209203 
L 551.56765 28.209203 
L 551.56765 21.959203 
L 511.679954 21.959203 
z
"/>
    </g>
    <!-- δίνει αυτό (λάθος) -->
    <g style="fill: #52514e" transform="translate(486.635979 75.904271) scale(0.085 -0.085)">
     <defs>
      <path id="DejaVuSans-348" d="M 3138 4053 
Q 2819 4272 2072 4272 
Q 1281 4272 1281 3906 
Q 1281 3619 2106 3469 
Q 2756 3353 3122 3003 
Q 3566 2581 3566 1716 
Q 3566 888 3138 400 
Q 2709 -91 1959 -91 
Q 1213 -91 781 400 
Q 353 888 353 1747 
Q 353 2384 781 2900 
Q 947 3100 1181 3213 
Q 694 3459 694 3900 
Q 694 4750 2072 4750 
Q 2763 4750 3138 4531 
L 3138 4053 
z
M 1613 3056 
Q 1400 2966 1228 2738 
Q 959 2384 959 1747 
Q 959 1113 1225 756 
Q 1494 397 1959 397 
Q 2419 397 2687 759 
Q 2956 1122 2956 1716 
Q 2956 2338 2672 2638 
Q 2369 2959 1975 2994 
Q 1775 3013 1613 3056 
z
" transform="scale(0.015625)"/>
      <path id="DejaVuSans-b" d="M 1984 4856 
Q 1566 4138 1362 3434 
Q 1159 2731 1159 2009 
Q 1159 1288 1364 580 
Q 1569 -128 1984 -844 
L 1484 -844 
Q 1016 -109 783 600 
Q 550 1309 550 2009 
Q 550 2706 781 3412 
Q 1013 4119 1484 4856 
L 1984 4856 
z
" transform="scale(0.015625)"/>
      <path id="DejaVuSans-c" d="M 513 4856 
L 1013 4856 
Q 1481 4119 1714 3412 
Q 1947 2706 1947 2009 
Q 1947 1309 1714 600 
Q 1481 -109 1013 -844 
L 513 -844 
Q 928 -128 1133 580 
Q 1338 1288 1338 2009 
Q 1338 2731 1133 3434 
Q 928 4138 513 4856 
z
" transform="scale(0.015625)"/>
     </defs>
     <use xlink:href="#DejaVuSans-348"/>
     <use xlink:href="#DejaVuSans-343" transform="translate(61.1875 0)"/>
     <use xlink:href="#DejaVuSans-351" transform="translate(95.03125 0)"/>
     <use xlink:href="#DejaVuSans-349" transform="translate(150.890625 0)"/>
     <use xlink:href="#DejaVuSans-34d" transform="translate(204.9375 0)"/>
     <use xlink:href="#DejaVuSans-3" transform="translate(238.78125 0)"/>
     <use xlink:href="#DejaVuSans-345" transform="translate(270.5625 0)"/>
     <use xlink:href="#DejaVuSans-359" transform="translate(336.484375 0)"/>
     <use xlink:href="#DejaVuSans-358" transform="translate(394.34375 0)"/>
     <use xlink:href="#DejaVuSans-360" transform="translate(454.546875 0)"/>
     <use xlink:href="#DejaVuSans-3" transform="translate(515.734375 0)"/>
     <use xlink:href="#DejaVuSans-b" transform="translate(547.515625 0)"/>
     <use xlink:href="#DejaVuSans-34f" transform="translate(586.53125 0)"/>
     <use xlink:href="#DejaVuSans-340" transform="translate(645.71875 0)"/>
     <use xlink:href="#DejaVuSans-34c" transform="translate(711.640625 0)"/>
     <use xlink:href="#DejaVuSans-353" transform="translate(772.828125 0)"/>
     <use xlink:href="#DejaVuSans-356" transform="translate(834.015625 0)"/>
     <use xlink:href="#DejaVuSans-c" transform="translate(892.703125 0)"/>
    </g>
   </g>
   <g id="patch_21">
    <path d="M 425.214957 175.218561 
Q 425.88597 176.038973 425.707582 175.820867 
" style="fill: none; stroke: #2a78d6; stroke-width: 1.2; stroke-linecap: round"/>
    <path d="M 424.920147 172.330889 
L 425.707582 175.820867 
L 422.443139 174.356829 
z
" style="fill: #2a78d6; stroke: #2a78d6; stroke-width: 1.2; stroke-linecap: round"/>
   </g>
   <g id="text_24">
    <!-- $\theta = \frac{5\pi}{4}$ -->
    <g style="fill: #0b0b0b" transform="translate(420.667454 119.075649) scale(0.1 -0.1)">
     <defs>
      <path id="Cmr10-78" d="M 556 728 
Q 622 541 758 387 
Q 894 234 1080 148 
Q 1266 63 1466 63 
Q 1928 63 2103 422 
Q 2278 781 2278 1294 
Q 2278 1516 2270 1667 
Q 2263 1819 2228 1959 
Q 2169 2184 2020 2353 
Q 1872 2522 1656 2522 
Q 1441 2522 1286 2456 
Q 1131 2391 1034 2303 
Q 938 2216 863 2119 
Q 788 2022 769 2016 
L 697 2016 
Q 681 2016 657 2036 
Q 634 2056 634 2075 
L 634 4213 
Q 634 4228 654 4245 
Q 675 4263 697 4263 
L 716 4263 
Q 1147 4056 1631 4056 
Q 2106 4056 2547 4263 
L 2566 4263 
Q 2588 4263 2606 4247 
Q 2625 4231 2625 4213 
L 2625 4153 
Q 2625 4122 2613 4122 
Q 2394 3831 2064 3668 
Q 1734 3506 1381 3506 
Q 1125 3506 856 3578 
L 856 2369 
Q 1069 2541 1236 2614 
Q 1403 2688 1663 2688 
Q 2016 2688 2295 2484 
Q 2575 2281 2725 1954 
Q 2875 1628 2875 1288 
Q 2875 903 2686 575 
Q 2497 247 2172 53 
Q 1847 -141 1466 -141 
Q 1150 -141 886 21 
Q 622 184 470 459 
Q 319 734 319 1044 
Q 319 1188 412 1278 
Q 506 1369 647 1369 
Q 788 1369 883 1276 
Q 978 1184 978 1044 
Q 978 906 883 811 
Q 788 716 647 716 
Q 625 716 597 720 
Q 569 725 556 728 
z
" transform="scale(0.015625)"/>
     </defs>
     <use xlink:href="#Cmmi10-12" transform="translate(0 0.45625)"/>
     <use xlink:href="#Cmr10-29" transform="translate(66.923885 0.45625)"/>
     <use xlink:href="#Cmr10-78" transform="translate(170.859489 36.373438) scale(0.7)"/>
     <use xlink:href="#Cmmi10-24" transform="translate(205.859489 36.373438) scale(0.7)"/>
     <use xlink:href="#Cmr10-3b" transform="translate(190.859489 -30.545312) scale(0.7)"/>
     <path d="M 170.859489 22.33125 
L 170.859489 28.58125 
L 245.747185 28.58125 
L 245.747185 22.33125 
L 170.859489 22.33125 
z
"/>
    </g>
   </g>
   <g id="text_25">
    <!-- $(-1, -1)$ -->
    <g style="fill: #0b0b0b" transform="translate(330.620119 246.802945) scale(0.095 -0.095)">
     <use xlink:href="#Cmr10-77"/>
     <use xlink:href="#Cmsy10-11" transform="translate(38.818359 0)"/>
     <use xlink:href="#Cmr10-64" transform="translate(116.503906 0)"/>
     <use xlink:href="#Cmmi10-2c" transform="translate(166.503906 0)"/>
     <use xlink:href="#Cmsy10-11" transform="translate(234.189568 0)"/>
     <use xlink:href="#Cmr10-64" transform="translate(331.875172 0)"/>
     <use xlink:href="#Cmr10-44" transform="translate(381.875172 0)"/>
    </g>
   </g>
   <g id="text_26">
    <!-- παγίδα τεταρτημορίου: ίδιο $y/x$ -->
    <g style="fill: #0b0b0b" transform="translate(369.97048 15.2) scale(0.1 -0.1)">
     <defs>
      <path id="DejaVuSans-347" d="M 1128 2950 
L 1894 788 
L 2988 3500 
L 3597 3500 
L 2181 0 
L 2181 -1331 
L 1606 -1331 
L 1606 0 
L 688 2613 
Q 550 3006 253 3006 
L 100 3006 
L 100 3500 
L 319 3500 
Q 934 3500 1128 2950 
z
" transform="scale(0.015625)"/>
      <path id="DejaVuSans-350" d="M 544 -1331 
L 544 3500 
L 1119 3500 
L 1119 1325 
Q 1119 872 1334 640 
Q 1550 409 1972 409 
Q 2434 409 2667 671 
Q 2900 934 2900 1459 
L 2900 3500 
L 3475 3500 
L 3475 806 
Q 3475 619 3529 530 
Q 3584 441 3700 441 
Q 3728 441 3778 458 
Q 3828 475 3916 513 
L 3916 50 
Q 3788 -22 3673 -56 
Q 3559 -91 3450 -91 
Q 3234 -91 3106 31 
Q 2978 153 2931 403 
Q 2775 156 2548 32 
Q 2322 -91 2016 -91 
Q 1697 -91 1473 31 
Q 1250 153 1119 397 
L 1119 -1331 
L 544 -1331 
z
" transform="scale(0.015625)"/>
      <path id="Cmmi10-62" d="M 359 -1472 
Q 359 -1453 366 -1447 
L 2591 4722 
Q 2603 4759 2634 4779 
Q 2666 4800 2706 4800 
Q 2763 4800 2798 4765 
Q 2834 4731 2834 4672 
L 2834 4647 
L 609 -1522 
Q 572 -1600 488 -1600 
Q 434 -1600 396 -1562 
Q 359 -1525 359 -1472 
z
" transform="scale(0.015625)"/>
     </defs>
     <use xlink:href="#DejaVuSans-354" transform="translate(0 0.015625)"/>
     <use xlink:href="#DejaVuSans-345" transform="translate(60.205078 0.015625)"/>
     <use xlink:href="#DejaVuSans-347" transform="translate(126.123047 0.015625)"/>
     <use xlink:href="#DejaVuSans-343" transform="translate(185.302734 0.015625)"/>
     <use xlink:href="#DejaVuSans-348" transform="translate(219.140625 0.015625)"/>
     <use xlink:href="#DejaVuSans-345" transform="translate(280.322266 0.015625)"/>
     <use xlink:href="#DejaVuSans-3" transform="translate(346.240234 0.015625)"/>
     <use xlink:href="#DejaVuSans-358" transform="translate(378.027344 0.015625)"/>
     <use xlink:href="#DejaVuSans-349" transform="translate(438.232422 0.015625)"/>
     <use xlink:href="#DejaVuSans-358" transform="translate(492.285156 0.015625)"/>
     <use xlink:href="#DejaVuSans-345" transform="translate(552.490234 0.015625)"/>
     <use xlink:href="#DejaVuSans-355" transform="translate(618.408203 0.015625)"/>
     <use xlink:href="#DejaVuSans-358" transform="translate(681.884766 0.015625)"/>
     <use xlink:href="#DejaVuSans-34b" transform="translate(742.089844 0.015625)"/>
     <use xlink:href="#DejaVuSans-350" transform="translate(805.46875 0.015625)"/>
     <use xlink:href="#DejaVuSans-353" transform="translate(869.091797 0.015625)"/>
     <use xlink:href="#DejaVuSans-355" transform="translate(930.273438 0.015625)"/>
     <use xlink:href="#DejaVuSans-343" transform="translate(993.75 0.015625)"/>
     <use xlink:href="#DejaVuSans-353" transform="translate(1027.587891 0.015625)"/>
     <use xlink:href="#DejaVuSans-359" transform="translate(1088.769531 0.015625)"/>
     <use xlink:href="#DejaVuSans-1d" transform="translate(1146.630859 0.015625)"/>
     <use xlink:href="#DejaVuSans-3" transform="translate(1180.322266 0.015625)"/>
     <use xlink:href="#DejaVuSans-343" transform="translate(1212.109375 0.015625)"/>
     <use xlink:href="#DejaVuSans-348" transform="translate(1245.947266 0.015625)"/>
     <use xlink:href="#DejaVuSans-34d" transform="translate(1307.128906 0.015625)"/>
     <use xlink:href="#DejaVuSans-353" transform="translate(1340.966797 0.015625)"/>
     <use xlink:href="#DejaVuSans-3" transform="translate(1402.148438 0.015625)"/>
     <use xlink:href="#Cmmi10-72" transform="translate(1433.935547 0.015625)"/>
     <use xlink:href="#Cmmi10-62" transform="translate(1482.958984 0.015625)"/>
     <use xlink:href="#Cmmi10-3f" transform="translate(1532.958984 0.015625)"/>
    </g>
   </g>
   <g id="line2d_39">
    <defs>
     <path id="m0577dcc7d3" d="M 0 3.25 
C 0.86191 3.25 1.688635 2.907559 2.298097 2.298097 
C 2.907559 1.688635 3.25 0.86191 3.25 0 
C 3.25 -0.86191 2.907559 -1.688635 2.298097 -2.298097 
C 1.688635 -2.907559 0.86191 -3.25 0 -3.25 
C -0.86191 -3.25 -1.688635 -2.907559 -2.298097 -2.298097 
C -2.907559 -1.688635 -3.25 -0.86191 -3.25 0 
C -3.25 0.86191 -2.907559 1.688635 -2.298097 2.298097 
C -1.688635 2.907559 -0.86191 3.25 0 3.25 
z
" style="stroke: #eb6834; stroke-width: 1.7"/>
    </defs>
    <g>
     <use xlink:href="#m0577dcc7d3" x="522.581" y="83.648416" style="fill: #ffffff; stroke: #eb6834; stroke-width: 1.7"/>
    </g>
   </g>
   <g id="line2d_40">
    <g>
     <use xlink:href="#m2d4cb25934" x="376.459961" y="229.769455" style="fill: #2a78d6; stroke: #2a78d6; stroke-width: 1.7"/>
    </g>
   </g>
  </g>
 </g>
 <defs>
  <clipPath id="p8218f2a47b">
   <rect x="7.2" y="28.034338" width="265.04573" height="250.043142"/>
  </clipPath>
  <clipPath id="pe48a2419bf">
   <rect x="318.011545" y="25.2" width="263.01787" height="255.711818"/>
  </clipPath>
 </defs>
</svg>
