<?xml version="1.0" encoding="utf-8" standalone="no"?>
<!DOCTYPE svg PUBLIC "-//W3C//DTD SVG 1.1//EN"
  "http://www.w3.org/Graphics/SVG/1.1/DTD/svg11.dtd">
<svg xmlns:xlink="http://www.w3.org/1999/xlink" width="569.412672pt" height="230.4pt" viewBox="0 0 569.412672 230.4" xmlns="http://www.w3.org/2000/svg" version="1.1">
 <metadata>
  <rdf:RDF xmlns:dc="http://purl.org/dc/elements/1.1/" xmlns:cc="http://creativecommons.org/ns#" xmlns:rdf="http://www.w3.org/1999/02/22-rdf-syntax-ns#">
   <cc:Work>
    <dc:type rdf:resource="http://purl.org/dc/dcmitype/StillImage"/>
    <dc:format>image/svg+xml</dc:format>
    <dc:creator>
     <cc:Agent>
      <dc:title>Matplotlib v3.11.2, https://matplotlib.org/</dc:title>
     </cc:Agent>
    </dc:creator>
   </cc:Work>
  </rdf:RDF>
 </metadata>
 <defs>
  <style type="text/css">*{stroke-linejoin: round; stroke-linecap: butt}</style>
 </defs>
 <g id="figure_1">
  <g id="patch_1">
   <path d="M 0 230.4 
L 569.412672 230.4 
L 569.412672 0 
L 0 0 
z
" style="fill: #ffffff"/>
  </g>
  <g id="axes_1">
   <g id="patch_2">
    <path d="M 7.2 223.2 
L 261.165091 223.2 
L 261.165091 25.2 
L 7.2 25.2 
z
" style="fill: #ffffff"/>
   </g>
   <g id="line2d_1">
    <path d="M 51.367842 223.2 
L 51.367842 25.2 
" clip-path="url(#p7ab7d28d57)" style="fill: none; stroke: #e9e8e3; stroke-width: 0.7; stroke-linecap: round"/>
   </g>
   <g id="line2d_2">
    <path d="M 216.997249 223.2 
L 216.997249 25.2 
" clip-path="url(#p7ab7d28d57)" style="fill: none; stroke: #e9e8e3; stroke-width: 0.7; stroke-linecap: round"/>
   </g>
   <g id="patch_3">
    <path d="M 134.182545 223.2 
L 134.182545 25.2 
" style="fill: none; stroke: #52514e; stroke-width: 0.9; stroke-linejoin: miter; stroke-linecap: square"/>
   </g>
   <g id="patch_4">
    <path d="M 7.2 200.353846 
L 261.165091 200.353846 
" style="fill: none; stroke: #52514e; stroke-width: 0.9; stroke-linejoin: miter; stroke-linecap: square"/>
   </g>
   <g id="matplotlib.axis_1">
    <g id="xtick_1">
     <g id="line2d_3">
      <defs>
       <path id="mea416f7c7a" d="M 0 0 
L 0 3 
" style="stroke: #52514e; stroke-width: 0.8"/>
      </defs>
      <g>
       <use xlink:href="#mea416f7c7a" x="51.367842" y="200.353846" style="fill: #52514e; stroke: #52514e; stroke-width: 0.8"/>
      </g>
     </g>
     <g id="text_1">
      <g id="patch_5">
       <path d="M 45.205342 214.448846 
L 57.530342 214.448846 
L 57.530342 204.758846 
L 45.205342 204.758846 
z
" style="fill: #ffffff; opacity: 0.85"/>
      </g>
      <!-- $-a$ -->
      <g style="fill: #52514e" transform="translate(45.800342 211.811854) scale(0.085 -0.085)">
       <defs>
        <path id="Cmsy10-11" d="M 653 1472 
Q 600 1472 565 1512 
Q 531 1553 531 1600 
Q 531 1647 565 1687 
Q 600 1728 653 1728 
L 4325 1728 
Q 4375 1728 4408 1687 
Q 4441 1647 4441 1600 
Q 4441 1553 4408 1512 
Q 4375 1472 4325 1472 
L 653 1472 
z
" transform="scale(0.015625)"/>
        <path id="Cmmi10-79" d="M 1113 -72 
Q 709 -72 476 233 
Q 244 538 244 953 
Q 244 1363 456 1803 
Q 669 2244 1030 2536 
Q 1391 2828 1806 2828 
Q 1997 2828 2147 2725 
Q 2297 2622 2381 2444 
Q 2453 2700 2663 2700 
Q 2744 2700 2798 2651 
Q 2853 2603 2853 2522 
Q 2853 2503 2851 2493 
Q 2850 2484 2847 2472 
L 2400 684 
Q 2356 494 2356 372 
Q 2356 97 2541 97 
Q 2741 97 2845 351 
Q 2950 606 3022 941 
Q 3034 978 3072 978 
L 3150 978 
Q 3175 978 3190 956 
Q 3206 934 3206 916 
Q 3094 469 2961 198 
Q 2828 -72 2528 -72 
Q 2313 -72 2147 54 
Q 1981 181 1941 391 
Q 1528 -72 1113 -72 
z
M 1119 97 
Q 1350 97 1567 270 
Q 1784 444 1941 678 
Q 1947 684 1947 697 
L 2291 2088 
L 2297 2106 
Q 2259 2334 2132 2498 
Q 2006 2663 1791 2663 
Q 1575 2663 1389 2486 
Q 1203 2309 1075 2069 
Q 950 1813 836 1366 
Q 722 919 722 672 
Q 722 450 817 273 
Q 913 97 1119 97 
z
" transform="scale(0.015625)"/>
       </defs>
       <use xlink:href="#Cmsy10-11" transform="translate(0 0.8125)"/>
       <use xlink:href="#Cmmi10-79" transform="translate(77.685547 0.8125)"/>
      </g>
     </g>
    </g>
    <g id="xtick_2">
     <g id="line2d_4">
      <g>
       <use xlink:href="#mea416f7c7a" x="216.997249" y="200.353846" style="fill: #52514e; stroke: #52514e; stroke-width: 0.8"/>
      </g>
     </g>
     <g id="text_2">
      <g id="patch_6">
       <path d="M 214.149749 214.448846 
L 219.844749 214.448846 
L 219.844749 204.758846 
L 214.149749 204.758846 
z
" style="fill: #ffffff; opacity: 0.85"/>
      </g>
      <!-- $a$ -->
      <g style="fill: #52514e" transform="translate(214.744749 211.811854) scale(0.085 -0.085)">
       <use xlink:href="#Cmmi10-79" transform="translate(0 0.8125)"/>
      </g>
     </g>
    </g>
   </g>
   <g id="matplotlib.axis_2"/>
   <g id="line2d_5">
    <defs>
     <path id="m4fe79a03d0" d="M 2.25 0 
L -2.25 -2.25 
L -2.25 2.25 
z
" style="stroke: #52514e; stroke-linejoin: miter"/>
    </defs>
    <g>
     <use xlink:href="#m4fe79a03d0" x="261.165091" y="200.353846" style="fill: #52514e; stroke: #52514e; stroke-linejoin: miter"/>
    </g>
   </g>
   <g id="line2d_6">
    <defs>
     <path id="m0e7391c8de" d="M 0 -2.25 
L -2.25 2.25 
L 2.25 2.25 
z
" style="stroke: #52514e; stroke-linejoin: miter"/>
    </defs>
    <g>
     <use xlink:href="#m0e7391c8de" x="134.182545" y="25.2" style="fill: #52514e; stroke: #52514e; stroke-linejoin: miter"/>
    </g>
   </g>
   <g id="line2d_7">
    <path d="M 18.24196 32.434615 
L 23.463638 47.219347 
L 28.49192 60.812665 
L 33.520203 73.774302 
L 38.355089 85.641707 
L 43.189976 96.925086 
L 47.831468 107.207679 
L 52.472959 116.952034 
L 56.921055 125.785308 
L 61.369151 134.124263 
L 65.623851 141.638106 
L 69.878551 148.699679 
L 73.939856 155.018372 
L 78.001161 160.924976 
L 81.86907 166.167192 
L 85.73698 171.035631 
L 89.411494 175.314438 
L 93.086008 179.255912 
L 96.567126 182.678771 
L 100.048245 185.798871 
L 103.529363 188.616211 
L 106.817086 190.999037 
L 110.104809 193.111809 
L 113.392532 194.954527 
L 116.48686 196.442158 
L 119.581187 197.690571 
L 122.675515 198.699768 
L 125.769842 199.469748 
L 128.86417 200.000511 
L 131.765102 200.280843 
L 134.666034 200.350926 
L 137.566966 200.21076 
L 140.467898 199.860344 
L 143.562226 199.254826 
L 146.656553 198.410091 
L 149.750881 197.326139 
L 152.845208 196.00297 
L 155.939536 194.440584 
L 159.033864 192.638981 
L 162.321587 190.462667 
L 165.60931 188.0163 
L 168.897033 185.299879 
L 172.378151 182.129319 
L 175.859269 178.656001 
L 179.533783 174.661264 
L 183.208297 170.329194 
L 186.882811 165.65979 
L 190.750721 160.380196 
L 194.61863 154.726826 
L 198.679935 148.38851 
L 202.74124 141.638106 
L 206.99594 134.124263 
L 211.250641 126.15815 
L 215.698737 117.346368 
L 220.146832 108.040267 
L 224.788324 97.802527 
L 229.429815 87.026549 
L 234.264702 75.229227 
L 239.099589 62.847879 
L 244.127871 49.351742 
L 249.156153 35.223923 
L 250.12313 32.434615 
L 250.12313 32.434615 
" clip-path="url(#p7ab7d28d57)" style="fill: none; stroke: #2a78d6; stroke-width: 2; stroke-linecap: round"/>
   </g>
   <g id="line2d_8">
    <path d="M 51.367842 114.680769 
L 216.997249 114.680769 
" clip-path="url(#p7ab7d28d57)" style="fill: none; stroke-dasharray: 5.6,2.8; stroke-dashoffset: 0; stroke: #eb6834; stroke-width: 1.4"/>
   </g>
   <g id="text_3">
    <!-- $x$ -->
    <g style="fill: #0b0b0b" transform="translate(264.212672 202.951502) scale(0.1 -0.1)">
     <defs>
      <path id="Cmmi10-3f" d="M 500 184 
Q 613 97 819 97 
Q 1019 97 1172 289 
Q 1325 481 1381 709 
L 1672 1844 
Q 1741 2153 1741 2266 
Q 1741 2425 1652 2544 
Q 1563 2663 1403 2663 
Q 1200 2663 1022 2536 
Q 844 2409 722 2214 
Q 600 2019 550 1819 
Q 538 1778 500 1778 
L 422 1778 
Q 372 1778 372 1838 
L 372 1856 
Q 434 2094 584 2320 
Q 734 2547 951 2687 
Q 1169 2828 1416 2828 
Q 1650 2828 1839 2703 
Q 2028 2578 2106 2363 
Q 2216 2559 2386 2693 
Q 2556 2828 2759 2828 
Q 2897 2828 3040 2779 
Q 3184 2731 3275 2631 
Q 3366 2531 3366 2381 
Q 3366 2219 3261 2101 
Q 3156 1984 2994 1984 
Q 2891 1984 2822 2050 
Q 2753 2116 2753 2216 
Q 2753 2350 2845 2451 
Q 2938 2553 3066 2572 
Q 2950 2663 2747 2663 
Q 2541 2663 2389 2472 
Q 2238 2281 2175 2047 
L 1894 916 
Q 1825 659 1825 494 
Q 1825 331 1917 214 
Q 2009 97 2163 97 
Q 2463 97 2698 361 
Q 2934 625 3009 941 
Q 3022 978 3059 978 
L 3138 978 
Q 3163 978 3178 961 
Q 3194 944 3194 922 
Q 3194 916 3188 903 
Q 3097 522 2806 225 
Q 2516 -72 2150 -72 
Q 1916 -72 1727 54 
Q 1538 181 1459 397 
Q 1359 209 1182 68 
Q 1006 -72 806 -72 
Q 669 -72 523 -23 
Q 378 25 287 125 
Q 197 225 197 378 
Q 197 528 301 651 
Q 406 775 563 775 
Q 669 775 741 711 
Q 813 647 813 544 
Q 813 409 723 309 
Q 634 209 500 184 
z
" transform="scale(0.015625)"/>
     </defs>
     <use xlink:href="#Cmmi10-3f" transform="translate(0 0.8125)"/>
    </g>
   </g>
   <g id="text_4">
    <!-- $y$ -->
    <g style="fill: #0b0b0b" transform="translate(140.182545 34.797656) scale(0.1 -0.1)">
     <defs>
      <path id="Cmmi10-72" d="M 538 -916 
Q 672 -1147 1006 -1147 
Q 1309 -1147 1531 -934 
Q 1753 -722 1889 -420 
Q 2025 -119 2100 197 
Q 1816 -72 1484 -72 
Q 1231 -72 1053 15 
Q 875 103 776 276 
Q 678 450 678 697 
Q 678 906 734 1126 
Q 791 1347 892 1617 
Q 994 1888 1069 2088 
Q 1153 2322 1153 2472 
Q 1153 2663 1013 2663 
Q 759 2663 595 2402 
Q 431 2141 353 1819 
Q 341 1778 300 1778 
L 225 1778 
Q 172 1778 172 1838 
L 172 1856 
Q 275 2238 487 2533 
Q 700 2828 1025 2828 
Q 1253 2828 1411 2678 
Q 1569 2528 1569 2297 
Q 1569 2178 1516 2047 
Q 1488 1969 1388 1706 
Q 1288 1444 1234 1272 
Q 1181 1100 1147 934 
Q 1113 769 1113 603 
Q 1113 391 1203 244 
Q 1294 97 1491 97 
Q 1888 97 2203 581 
L 2688 2553 
Q 2709 2638 2787 2698 
Q 2866 2759 2956 2759 
Q 3034 2759 3092 2709 
Q 3150 2659 3150 2578 
Q 3150 2541 3144 2528 
L 2509 -19 
Q 2425 -347 2200 -647 
Q 1975 -947 1658 -1130 
Q 1341 -1313 997 -1313 
Q 831 -1313 668 -1248 
Q 506 -1184 406 -1056 
Q 306 -928 306 -756 
Q 306 -581 409 -453 
Q 513 -325 684 -325 
Q 788 -325 858 -389 
Q 928 -453 928 -556 
Q 928 -703 818 -812 
Q 709 -922 563 -922 
Q 556 -919 550 -917 
Q 544 -916 538 -916 
z
" transform="scale(0.015625)"/>
     </defs>
     <use xlink:href="#Cmmi10-72" transform="translate(0 0.8125)"/>
    </g>
   </g>
   <g id="text_5">
    <!-- $f(-a) = f(a)$ -->
    <g style="fill: #0b0b0b" transform="translate(140.807722 105.551638) scale(0.09 -0.09)">
     <defs>
      <path id="Cmmi10-57" d="M 622 -1056 
Q 741 -1147 909 -1147 
Q 1138 -1147 1281 -641 
Q 1341 -397 1606 966 
L 1900 2534 
L 1350 2534 
Q 1288 2534 1288 2619 
Q 1313 2759 1369 2759 
L 1941 2759 
L 2016 3175 
Q 2053 3369 2084 3508 
Q 2116 3647 2152 3765 
Q 2188 3884 2259 4031 
Q 2369 4241 2555 4377 
Q 2741 4513 2956 4513 
Q 3097 4513 3230 4461 
Q 3363 4409 3447 4306 
Q 3531 4203 3531 4063 
Q 3531 3900 3423 3779 
Q 3316 3659 3163 3659 
Q 3059 3659 2986 3723 
Q 2913 3788 2913 3891 
Q 2913 4031 3008 4136 
Q 3103 4241 3244 4256 
Q 3125 4347 2950 4347 
Q 2853 4347 2767 4256 
Q 2681 4166 2656 4063 
Q 2616 3900 2478 3181 
L 2400 2759 
L 3059 2759 
Q 3122 2759 3122 2675 
Q 3119 2659 3109 2620 
Q 3100 2581 3083 2557 
Q 3066 2534 3041 2534 
L 2356 2534 
L 2059 972 
Q 2003 631 1929 279 
Q 1856 -72 1723 -442 
Q 1591 -813 1384 -1063 
Q 1178 -1313 897 -1313 
Q 681 -1313 511 -1189 
Q 341 -1066 341 -863 
Q 341 -700 445 -579 
Q 550 -459 709 -459 
Q 816 -459 887 -523 
Q 959 -588 959 -691 
Q 959 -828 857 -942 
Q 756 -1056 622 -1056 
z
" transform="scale(0.015625)"/>
      <path id="Cmr10-77" d="M 1984 -1588 
Q 1628 -1306 1370 -942 
Q 1113 -578 948 -165 
Q 784 247 703 697 
Q 622 1147 622 1600 
Q 622 2059 703 2509 
Q 784 2959 951 3375 
Q 1119 3791 1378 4153 
Q 1638 4516 1984 4788 
Q 1984 4800 2016 4800 
L 2075 4800 
Q 2094 4800 2109 4783 
Q 2125 4766 2125 4744 
Q 2125 4716 2113 4703 
Q 1800 4397 1592 4047 
Q 1384 3697 1257 3301 
Q 1131 2906 1075 2482 
Q 1019 2059 1019 1600 
Q 1019 -434 2106 -1491 
Q 2125 -1509 2125 -1544 
Q 2125 -1559 2108 -1579 
Q 2091 -1600 2075 -1600 
L 2016 -1600 
Q 1984 -1600 1984 -1588 
z
" transform="scale(0.015625)"/>
      <path id="Cmr10-44" d="M 416 -1600 
Q 359 -1600 359 -1544 
Q 359 -1516 372 -1503 
Q 1466 -434 1466 1600 
Q 1466 3634 384 4691 
Q 359 4706 359 4744 
Q 359 4766 376 4783 
Q 394 4800 416 4800 
L 475 4800 
Q 494 4800 506 4788 
Q 966 4425 1272 3906 
Q 1578 3388 1720 2800 
Q 1863 2213 1863 1600 
Q 1863 1147 1786 708 
Q 1709 269 1542 -157 
Q 1375 -584 1119 -945 
Q 863 -1306 506 -1588 
Q 494 -1600 475 -1600 
L 416 -1600 
z
" transform="scale(0.015625)"/>
      <path id="Cmr10-29" d="M 481 850 
Q 428 850 393 890 
Q 359 931 359 978 
Q 359 1031 393 1068 
Q 428 1106 481 1106 
L 4500 1106 
Q 4547 1106 4581 1068 
Q 4616 1031 4616 978 
Q 4616 931 4581 890 
Q 4547 850 4500 850 
L 481 850 
z
M 481 2094 
Q 428 2094 393 2131 
Q 359 2169 359 2222 
Q 359 2269 393 2309 
Q 428 2350 481 2350 
L 4500 2350 
Q 4547 2350 4581 2309 
Q 4616 2269 4616 2222 
Q 4616 2169 4581 2131 
Q 4547 2094 4500 2094 
L 481 2094 
z
" transform="scale(0.015625)"/>
     </defs>
     <use xlink:href="#Cmmi10-57"/>
     <use xlink:href="#Cmr10-77" transform="translate(48.876953 0)"/>
     <use xlink:href="#Cmsy10-11" transform="translate(87.695312 0)"/>
     <use xlink:href="#Cmmi10-79" transform="translate(165.380859 0)"/>
     <use xlink:href="#Cmr10-44" transform="translate(218.164062 0)"/>
     <use xlink:href="#Cmr10-29" transform="translate(276.982479 0)"/>
     <use xlink:href="#Cmmi10-57" transform="translate(374.668083 0)"/>
     <use xlink:href="#Cmr10-77" transform="translate(423.545036 0)"/>
     <use xlink:href="#Cmmi10-79" transform="translate(462.363396 0)"/>
     <use xlink:href="#Cmr10-44" transform="translate(515.146599 0)"/>
    </g>
   </g>
   <g id="text_6">
    <!-- άρτια: συμμετρία ως προς τον άξονα $y$ -->
    <g style="fill: #0b0b0b" transform="translate(36.332545 15.2) scale(0.1 -0.1)">
     <defs>
      <path id="DejaVuSans-340" d="M 2644 1628 
L 2506 2350 
Q 2366 3091 1809 3091 
Q 1391 3091 1200 2747 
Q 959 2316 959 1747 
Q 959 1059 1194 731 
Q 1431 397 1809 397 
Q 2228 397 2453 1063 
L 2644 1628 
z
M 2966 2584 
L 3275 3500 
L 3788 3500 
L 3147 1603 
L 3272 919 
Q 3300 766 3409 638 
Q 3538 488 3638 488 
L 3913 488 
L 3913 0 
L 3569 0 
Q 3275 0 3013 263 
Q 2884 394 2831 669 
Q 2688 322 2394 50 
Q 2256 -78 1809 -78 
Q 1075 -78 719 397 
Q 353 888 353 1747 
Q 353 2666 750 3097 
Q 1191 3578 1809 3578 
Q 2781 3578 2966 2584 
z
M 2378 5119 
L 3000 5119 
L 1982 3944 
L 1503 3944 
L 2378 5119 
z
" transform="scale(0.015625)"/>
      <path id="DejaVuSans-355" d="M 863 2875 
Q 1053 3194 1525 3475 
Q 1709 3584 2278 3584 
Q 2916 3584 3314 3078 
Q 3713 2572 3713 1747 
Q 3713 922 3314 415 
Q 2916 -91 2278 -91 
Q 1894 -91 1617 61 
Q 1341 213 1159 525 
L 1159 -1331 
L 581 -1331 
L 581 1716 
Q 581 2438 863 2875 
z
M 3116 1747 
Q 3116 2381 2855 2742 
Q 2594 3103 2138 3103 
Q 1681 3103 1420 2742 
Q 1159 2381 1159 1747 
Q 1159 1113 1420 752 
Q 1681 391 2138 391 
Q 2594 391 2855 752 
Q 3116 1113 3116 1747 
z
" transform="scale(0.015625)"/>
      <path id="DejaVuSans-358" d="M 2319 638 
Q 2431 488 2769 488 
L 3047 488 
L 3047 0 
L 2700 0 
Q 2138 0 1881 300 
Q 1625 606 1625 1269 
L 1625 2925 
L 313 2925 
L 313 3500 
L 3541 3500 
L 3541 2925 
L 2213 2925 
L 2213 1234 
Q 2213 781 2319 638 
z
" transform="scale(0.015625)"/>
      <path id="DejaVuSans-34d" d="M 1109 3500 
L 1109 1234 
Q 1109 781 1216 638 
Q 1328 488 1666 488 
L 1944 488 
L 1944 0 
L 1597 0 
Q 1034 0 778 300 
Q 522 606 522 1269 
L 519 3500 
L 1109 3500 
z
" transform="scale(0.015625)"/>
      <path id="DejaVuSans-345" d="M 2644 1628 
L 2506 2350 
Q 2366 3091 1809 3091 
Q 1391 3091 1200 2747 
Q 959 2316 959 1747 
Q 959 1059 1194 731 
Q 1431 397 1809 397 
Q 2228 397 2453 1063 
L 2644 1628 
z
M 2966 2584 
L 3275 3500 
L 3788 3500 
L 3147 1603 
L 3272 919 
Q 3300 766 3409 638 
Q 3538 488 3638 488 
L 3913 488 
L 3913 0 
L 3569 0 
Q 3275 0 3013 263 
Q 2884 394 2831 669 
Q 2688 322 2394 50 
Q 2256 -78 1809 -78 
Q 1075 -78 719 397 
Q 353 888 353 1747 
Q 353 2666 750 3097 
Q 1191 3578 1809 3578 
Q 2781 3578 2966 2584 
z
" transform="scale(0.015625)"/>
      <path id="DejaVuSans-1d" d="M 750 794 
L 1409 794 
L 1409 0 
L 750 0 
L 750 794 
z
M 750 3309 
L 1409 3309 
L 1409 2516 
L 750 2516 
L 750 3309 
z
" transform="scale(0.015625)"/>
      <path id="DejaVuSans-3" transform="scale(0.015625)"/>
      <path id="DejaVuSans-357" d="M 1959 3044 
Q 1484 3044 1228 2700 
Q 959 2341 959 1747 
Q 959 1119 1226 758 
Q 1494 397 1959 397 
Q 2419 397 2687 759 
Q 2956 1122 2956 1747 
Q 2956 2319 2688 2700 
Q 2441 3044 1959 3044 
z
M 1959 3500 
L 3869 3500 
L 3869 2925 
L 3225 2925 
Q 3566 2438 3566 1747 
Q 3566 888 3138 400 
Q 2709 -91 1959 -91 
Q 1206 -91 781 400 
Q 353 888 353 1747 
Q 353 2613 781 3097 
Q 1134 3500 1959 3500 
z
" transform="scale(0.015625)"/>
      <path id="DejaVuSans-359" d="M 1056 3500 
L 1056 1234 
Q 1056 813 1213 613 
Q 1384 397 1719 397 
Q 2188 397 2516 1047 
Q 2700 1416 2747 2000 
Q 2772 2319 2678 2719 
Q 2591 3091 2259 3500 
L 2841 3500 
L 2841 3500 
Q 3059 3219 3200 2834 
Q 3331 2475 3331 1994 
Q 3331 1203 2931 619 
Q 2444 -94 1650 -91 
Q 1091 -91 775 284 
Q 469 653 469 1269 
L 466 3500 
L 1056 3500 
z
" transform="scale(0.015625)"/>
      <path id="DejaVuSans-350" d="M 544 -1331 
L 544 3500 
L 1119 3500 
L 1119 1325 
Q 1119 872 1334 640 
Q 1550 409 1972 409 
Q 2434 409 2667 671 
Q 2900 934 2900 1459 
L 2900 3500 
L 3475 3500 
L 3475 806 
Q 3475 619 3529 530 
Q 3584 441 3700 441 
Q 3728 441 3778 458 
Q 3828 475 3916 513 
L 3916 50 
Q 3788 -22 3673 -56 
Q 3559 -91 3450 -91 
Q 3234 -91 3106 31 
Q 2978 153 2931 403 
Q 2775 156 2548 32 
Q 2322 -91 2016 -91 
Q 1697 -91 1473 31 
Q 1250 153 1119 397 
L 1119 -1331 
L 544 -1331 
z
" transform="scale(0.015625)"/>
      <path id="DejaVuSans-349" d="M 1234 1888 
Q 884 1963 697 2166 
Q 509 2366 509 2656 
Q 509 3097 866 3344 
Q 1219 3588 1831 3588 
Q 2069 3588 2334 3550 
Q 2600 3513 2906 3438 
L 2906 2916 
Q 2603 3006 2353 3047 
Q 2100 3088 1878 3088 
Q 1506 3088 1291 2944 
Q 1072 2800 1072 2600 
Q 1072 2381 1284 2241 
Q 1494 2103 1856 2103 
L 2341 2103 
L 2341 1628 
L 1878 1628 
Q 1450 1628 1225 1469 
Q 981 1294 981 1019 
Q 981 738 1244 563 
Q 1509 388 1981 388 
Q 2272 388 2538 444 
Q 2803 503 3025 619 
L 3025 84 
Q 2744 -3 2481 -47 
Q 2216 -91 1966 -91 
Q 1222 -91 819 194 
Q 416 478 416 1019 
Q 416 1356 631 1584 
Q 847 1813 1234 1888 
z
" transform="scale(0.015625)"/>
      <path id="DejaVuSans-343" d="M 1109 3500 
L 1109 1234 
Q 1109 781 1216 638 
Q 1328 488 1666 488 
L 1944 488 
L 1944 0 
L 1597 0 
Q 1034 0 778 300 
Q 522 606 522 1269 
L 519 3500 
L 1109 3500 
z
M 1453 5119 
L 2075 5119 
L 1057 3944 
L 578 3944 
L 1453 5119 
z
" transform="scale(0.015625)"/>
      <path id="DejaVuSans-35d" d="M 1719 -91 
Q 422 -91 422 1766 
Q 422 2500 906 3500 
L 1525 3500 
Q 1078 2500 1078 1750 
Q 1078 397 1772 397 
Q 2406 397 2406 2078 
L 2938 2078 
Q 2938 397 3572 397 
Q 4266 397 4266 1750 
Q 4266 2500 3819 3500 
L 4438 3500 
Q 4922 2500 4922 1766 
Q 4922 -91 3625 -91 
Q 2775 -91 2672 844 
Q 2544 -91 1719 -91 
z
" transform="scale(0.015625)"/>
      <path id="DejaVuSans-356" d="M 2125 -91 
Q 1284 -91 818 406 
Q 353 903 353 1747 
Q 353 2603 823 3093 
Q 1294 3584 2113 3584 
Q 2378 3584 2631 3529 
Q 2884 3475 3122 3366 
L 3122 2828 
Q 2878 2963 2633 3030 
Q 2388 3097 2138 3097 
Q 1578 3097 1268 2742 
Q 959 2388 959 1747 
Q 959 1106 1268 751 
Q 1578 397 2125 397 
Q 2534 397 2784 159 
Q 3047 -88 3047 -463 
Q 3047 -822 2816 -1072 
Q 2566 -1344 2056 -1344 
Q 2056 -1109 2056 -872 
Q 2272 -888 2403 -750 
Q 2503 -641 2503 -525 
Q 2503 -359 2403 -222 
Q 2306 -91 2125 -91 
z
" transform="scale(0.015625)"/>
      <path id="DejaVuSans-354" d="M 231 3500 
L 3584 3500 
L 3584 2925 
L 3144 2925 
L 3144 775 
Q 3144 550 3220 451 
Q 3297 353 3469 353 
Q 3516 353 3584 361 
Q 3653 369 3675 372 
L 3675 -44 
Q 3566 -84 3450 -103 
Q 3334 -122 3219 -122 
Q 2844 -122 2700 83 
Q 2556 288 2556 838 
L 2556 2925 
L 1266 2925 
L 1266 0 
L 678 0 
L 678 2925 
L 231 2925 
L 231 3500 
z
" transform="scale(0.015625)"/>
      <path id="DejaVuSans-353" d="M 1959 3097 
Q 1497 3097 1228 2736 
Q 959 2375 959 1747 
Q 959 1119 1226 758 
Q 1494 397 1959 397 
Q 2419 397 2687 759 
Q 2956 1122 2956 1747 
Q 2956 2369 2687 2733 
Q 2419 3097 1959 3097 
z
M 1959 3584 
Q 2709 3584 3137 3096 
Q 3566 2609 3566 1747 
Q 3566 888 3137 398 
Q 2709 -91 1959 -91 
Q 1206 -91 779 398 
Q 353 888 353 1747 
Q 353 2609 779 3096 
Q 1206 3584 1959 3584 
z
" transform="scale(0.015625)"/>
      <path id="DejaVuSans-351" d="M 1300 0 
L 231 3500 
L 850 3500 
L 1753 563 
Q 2128 950 2441 1488 
Q 2678 1891 2691 2241 
Q 2697 2406 2622 2719 
Q 2534 3091 2203 3500 
L 2784 3500 
L 2784 3500 
Q 3000 3222 3144 2834 
Q 3275 2478 3275 2234 
Q 3275 1622 2850 1075 
Q 2297 363 1913 0 
L 1300 0 
z
" transform="scale(0.015625)"/>
      <path id="DejaVuSans-352" d="M 2281 397 
Q 2694 394 2941 159 
Q 3203 -88 3203 -463 
Q 3203 -822 2972 -1072 
Q 2722 -1344 2213 -1344 
Q 2213 -1109 2213 -872 
Q 2428 -888 2559 -750 
Q 2659 -641 2659 -525 
Q 2659 -359 2559 -222 
Q 2463 -91 2281 -91 
Q 334 -91 334 1275 
Q 334 2213 1375 2488 
Q 500 2600 500 3413 
Q 500 4028 1188 4284 
L 538 4284 
L 538 4863 
L 3003 4863 
L 3003 4284 
Q 1038 4284 1038 3375 
Q 1038 2778 2688 2750 
L 2688 2219 
Q 906 2288 913 1275 
Q 916 428 2281 397 
z
" transform="scale(0.015625)"/>
     </defs>
     <use xlink:href="#DejaVuSans-340" transform="translate(0 0.015625)"/>
     <use xlink:href="#DejaVuSans-355" transform="translate(65.917969 0.015625)"/>
     <use xlink:href="#DejaVuSans-358" transform="translate(129.394531 0.015625)"/>
     <use xlink:href="#DejaVuSans-34d" transform="translate(189.599609 0.015625)"/>
     <use xlink:href="#DejaVuSans-345" transform="translate(223.4375 0.015625)"/>
     <use xlink:href="#DejaVuSans-1d" transform="translate(289.355469 0.015625)"/>
     <use xlink:href="#DejaVuSans-3" transform="translate(323.046875 0.015625)"/>
     <use xlink:href="#DejaVuSans-357" transform="translate(354.833984 0.015625)"/>
     <use xlink:href="#DejaVuSans-359" transform="translate(418.212891 0.015625)"/>
     <use xlink:href="#DejaVuSans-350" transform="translate(476.074219 0.015625)"/>
     <use xlink:href="#DejaVuSans-350" transform="translate(539.697266 0.015625)"/>
     <use xlink:href="#DejaVuSans-349" transform="translate(603.320312 0.015625)"/>
     <use xlink:href="#DejaVuSans-358" transform="translate(657.373047 0.015625)"/>
     <use xlink:href="#DejaVuSans-355" transform="translate(717.578125 0.015625)"/>
     <use xlink:href="#DejaVuSans-343" transform="translate(781.054688 0.015625)"/>
     <use xlink:href="#DejaVuSans-345" transform="translate(814.892578 0.015625)"/>
     <use xlink:href="#DejaVuSans-3" transform="translate(880.810547 0.015625)"/>
     <use xlink:href="#DejaVuSans-35d" transform="translate(912.597656 0.015625)"/>
     <use xlink:href="#DejaVuSans-356" transform="translate(996.337891 0.015625)"/>
     <use xlink:href="#DejaVuSans-3" transform="translate(1055.029297 0.015625)"/>
     <use xlink:href="#DejaVuSans-354" transform="translate(1086.816406 0.015625)"/>
     <use xlink:href="#DejaVuSans-355" transform="translate(1147.021484 0.015625)"/>
     <use xlink:href="#DejaVuSans-353" transform="translate(1210.498047 0.015625)"/>
     <use xlink:href="#DejaVuSans-356" transform="translate(1271.679688 0.015625)"/>
     <use xlink:href="#DejaVuSans-3" transform="translate(1330.371094 0.015625)"/>
     <use xlink:href="#DejaVuSans-358" transform="translate(1362.158203 0.015625)"/>
     <use xlink:href="#DejaVuSans-353" transform="translate(1422.363281 0.015625)"/>
     <use xlink:href="#DejaVuSans-351" transform="translate(1483.544922 0.015625)"/>
     <use xlink:href="#DejaVuSans-3" transform="translate(1539.404297 0.015625)"/>
     <use xlink:href="#DejaVuSans-340" transform="translate(1571.191406 0.015625)"/>
     <use xlink:href="#DejaVuSans-352" transform="translate(1637.109375 0.015625)"/>
     <use xlink:href="#DejaVuSans-353" transform="translate(1692.871094 0.015625)"/>
     <use xlink:href="#DejaVuSans-351" transform="translate(1754.052734 0.015625)"/>
     <use xlink:href="#DejaVuSans-345" transform="translate(1809.912109 0.015625)"/>
     <use xlink:href="#DejaVuSans-3" transform="translate(1875.830078 0.015625)"/>
     <use xlink:href="#Cmmi10-72" transform="translate(1907.617188 0.015625)"/>
    </g>
   </g>
   <g id="legend_1">
    <g id="line2d_9">
     <path d="M 15.3 38.07 
L 23.4 38.07 
L 31.5 38.07 
" style="fill: none; stroke: #2a78d6; stroke-width: 2; stroke-linecap: round"/>
    </g>
    <g id="text_7">
     <!-- $y = x^2$ -->
     <g style="fill: #0b0b0b" transform="translate(38.7 41.22) scale(0.09 -0.09)">
      <defs>
       <path id="Cmr10-31" d="M 319 0 
L 319 172 
Q 319 188 331 206 
L 1325 1306 
Q 1550 1550 1690 1715 
Q 1831 1881 1968 2097 
Q 2106 2313 2186 2536 
Q 2266 2759 2266 3009 
Q 2266 3272 2169 3511 
Q 2072 3750 1880 3894 
Q 1688 4038 1416 4038 
Q 1138 4038 916 3870 
Q 694 3703 603 3438 
Q 628 3444 672 3444 
Q 816 3444 917 3347 
Q 1019 3250 1019 3097 
Q 1019 2950 917 2848 
Q 816 2747 672 2747 
Q 522 2747 420 2851 
Q 319 2956 319 3097 
Q 319 3338 409 3548 
Q 500 3759 670 3923 
Q 841 4088 1055 4175 
Q 1269 4263 1509 4263 
Q 1875 4263 2190 4108 
Q 2506 3953 2690 3670 
Q 2875 3388 2875 3009 
Q 2875 2731 2753 2481 
Q 2631 2231 2440 2026 
Q 2250 1822 1953 1562 
Q 1656 1303 1563 1216 
L 838 519 
L 1453 519 
Q 1906 519 2211 526 
Q 2516 534 2534 550 
Q 2609 631 2688 1141 
L 2875 1141 
L 2694 0 
L 319 0 
z
" transform="scale(0.015625)"/>
      </defs>
      <use xlink:href="#Cmmi10-72" transform="translate(0 0.084203)"/>
      <use xlink:href="#Cmr10-29" transform="translate(69.023495 0.084203)"/>
      <use xlink:href="#Cmmi10-3f" transform="translate(166.709099 0.084203)"/>
      <use xlink:href="#Cmr10-31" transform="translate(235.049359 41.373437) scale(0.7)"/>
     </g>
    </g>
   </g>
   <g id="line2d_10">
    <defs>
     <path id="m95dd4fdbd1" d="M 0 3.25 
C 0.86191 3.25 1.688635 2.907559 2.298097 2.298097 
C 2.907559 1.688635 3.25 0.86191 3.25 0 
C 3.25 -0.86191 2.907559 -1.688635 2.298097 -2.298097 
C 1.688635 -2.907559 0.86191 -3.25 0 -3.25 
C -0.86191 -3.25 -1.688635 -2.907559 -2.298097 -2.298097 
C -2.907559 -1.688635 -3.25 -0.86191 -3.25 0 
C -3.25 0.86191 -2.907559 1.688635 -2.298097 2.298097 
C -1.688635 2.907559 -0.86191 3.25 0 3.25 
z
" style="stroke: #eb6834; stroke-width: 1.7"/>
    </defs>
    <g>
     <use xlink:href="#m95dd4fdbd1" x="216.997249" y="114.680769" style="fill: #eb6834; stroke: #eb6834; stroke-width: 1.7"/>
    </g>
   </g>
   <g id="line2d_11">
    <g>
     <use xlink:href="#m95dd4fdbd1" x="51.367842" y="114.680769" style="fill: #eb6834; stroke: #eb6834; stroke-width: 1.7"/>
    </g>
   </g>
  </g>
  <g id="axes_2">
   <g id="patch_7">
    <path d="M 299.4 223.2 
L 553.365091 223.2 
L 553.365091 25.2 
L 299.4 25.2 
z
" style="fill: #ffffff"/>
   </g>
   <g id="line2d_12">
    <path d="M 354.609802 223.2 
L 354.609802 25.2 
" clip-path="url(#p2086658a46)" style="fill: none; stroke: #e9e8e3; stroke-width: 0.7; stroke-linecap: round"/>
   </g>
   <g id="line2d_13">
    <path d="M 498.155289 223.2 
L 498.155289 25.2 
" clip-path="url(#p2086658a46)" style="fill: none; stroke: #e9e8e3; stroke-width: 0.7; stroke-linecap: round"/>
   </g>
   <g id="patch_8">
    <path d="M 426.382545 223.2 
L 426.382545 25.2 
" style="fill: none; stroke: #52514e; stroke-width: 0.9; stroke-linejoin: miter; stroke-linecap: square"/>
   </g>
   <g id="patch_9">
    <path d="M 299.4 124.2 
L 553.365091 124.2 
" style="fill: none; stroke: #52514e; stroke-width: 0.9; stroke-linejoin: miter; stroke-linecap: square"/>
   </g>
   <g id="matplotlib.axis_3">
    <g id="xtick_3">
     <g id="line2d_14">
      <g>
       <use xlink:href="#mea416f7c7a" x="354.609802" y="124.2" style="fill: #52514e; stroke: #52514e; stroke-width: 0.8"/>
      </g>
     </g>
     <g id="text_8">
      <g id="patch_10">
       <path d="M 348.447302 138.295 
L 360.772302 138.295 
L 360.772302 128.605 
L 348.447302 128.605 
z
" style="fill: #ffffff; opacity: 0.85"/>
      </g>
      <!-- $-a$ -->
      <g style="fill: #52514e" transform="translate(349.042302 135.658008) scale(0.085 -0.085)">
       <use xlink:href="#Cmsy10-11" transform="translate(0 0.8125)"/>
       <use xlink:href="#Cmmi10-79" transform="translate(77.685547 0.8125)"/>
      </g>
     </g>
    </g>
    <g id="xtick_4">
     <g id="line2d_15">
      <g>
       <use xlink:href="#mea416f7c7a" x="498.155289" y="124.2" style="fill: #52514e; stroke: #52514e; stroke-width: 0.8"/>
      </g>
     </g>
     <g id="text_9">
      <g id="patch_11">
       <path d="M 495.307789 138.295 
L 501.002789 138.295 
L 501.002789 128.605 
L 495.307789 128.605 
z
" style="fill: #ffffff; opacity: 0.85"/>
      </g>
      <!-- $a$ -->
      <g style="fill: #52514e" transform="translate(495.902789 135.658008) scale(0.085 -0.085)">
       <use xlink:href="#Cmmi10-79" transform="translate(0 0.8125)"/>
      </g>
     </g>
    </g>
   </g>
   <g id="matplotlib.axis_4"/>
   <g id="line2d_16">
    <g>
     <use xlink:href="#m4fe79a03d0" x="553.365091" y="124.2" style="fill: #52514e; stroke: #52514e; stroke-linejoin: miter"/>
    </g>
   </g>
   <g id="line2d_17">
    <g>
     <use xlink:href="#m0e7391c8de" x="426.382545" y="25.2" style="fill: #52514e; stroke: #52514e; stroke-linejoin: miter"/>
    </g>
   </g>
   <g id="line2d_18">
    <path d="M 330.749818 231.4 
L 333.842812 218.031398 
L 336.93714 205.634181 
L 340.031468 194.18163 
L 342.9324 184.27375 
L 345.833332 175.140494 
L 348.734264 166.754931 
L 351.4418 159.579238 
L 354.149337 153.00952 
L 356.856874 147.023884 
L 359.56441 141.600435 
L 362.078551 137.048628 
L 364.592692 132.945157 
L 367.106834 129.272495 
L 369.620975 126.013113 
L 371.94172 123.35611 
L 374.262466 121.022527 
L 376.583212 118.998577 
L 378.903957 117.270475 
L 381.224703 115.824431 
L 383.545449 114.646661 
L 385.866194 113.723375 
L 388.18694 113.040788 
L 390.507686 112.585113 
L 392.828431 112.342562 
L 395.342572 112.304313 
L 397.856713 112.482479 
L 400.56425 112.896272 
L 403.465182 113.570711 
L 406.55951 114.523929 
L 410.040628 115.84492 
L 413.908538 117.566859 
L 418.356633 119.797623 
L 424.545288 123.17161 
L 435.56883 129.205135 
L 440.210322 131.462502 
L 444.078231 133.097315 
L 447.365954 134.259817 
L 450.460282 135.1261 
L 453.361214 135.707908 
L 456.06875 136.025526 
L 458.582891 136.105987 
L 461.097033 135.961941 
L 463.417778 135.614552 
L 465.738524 135.047144 
L 468.059269 134.245931 
L 470.380015 133.197126 
L 472.700761 131.886943 
L 475.021506 130.301593 
L 477.342252 128.42729 
L 479.662998 126.250248 
L 481.983743 123.756678 
L 484.304489 120.932794 
L 486.625235 117.764809 
L 488.94598 114.238935 
L 491.460122 109.999382 
L 493.974263 105.306097 
L 496.488404 100.141553 
L 499.002545 94.488219 
L 501.710081 87.833274 
L 504.417618 80.569226 
L 507.125155 72.674182 
L 510.026087 63.490121 
L 512.927019 53.529643 
L 515.827951 42.765819 
L 518.728883 31.171722 
L 521.82321 17.8592 
L 524.917538 3.538693 
L 525.854175 -1 
L 525.854175 -1 
" clip-path="url(#p2086658a46)" style="fill: none; stroke: #2a78d6; stroke-width: 2; stroke-linecap: round"/>
   </g>
   <g id="line2d_19">
    <path d="M 354.609802 151.950937 
L 498.155289 96.449062 
" clip-path="url(#p2086658a46)" style="fill: none; stroke-dasharray: 5.6,2.8; stroke-dashoffset: 0; stroke: #eb6834; stroke-width: 1.4"/>
   </g>
   <g id="text_10">
    <!-- $x$ -->
    <g style="fill: #0b0b0b" transform="translate(556.412672 126.797656) scale(0.1 -0.1)">
     <use xlink:href="#Cmmi10-3f" transform="translate(0 0.8125)"/>
    </g>
   </g>
   <g id="text_11">
    <!-- $y$ -->
    <g style="fill: #0b0b0b" transform="translate(432.382545 34.797656) scale(0.1 -0.1)">
     <use xlink:href="#Cmmi10-72" transform="translate(0 0.8125)"/>
    </g>
   </g>
   <g id="text_12">
    <!-- $f(-a) = -f(a)$ -->
    <g style="fill: #0b0b0b" transform="translate(437.424506 175.993945) scale(0.09 -0.09)">
     <use xlink:href="#Cmmi10-57"/>
     <use xlink:href="#Cmr10-77" transform="translate(48.876953 0)"/>
     <use xlink:href="#Cmsy10-11" transform="translate(87.695312 0)"/>
     <use xlink:href="#Cmmi10-79" transform="translate(165.380859 0)"/>
     <use xlink:href="#Cmr10-44" transform="translate(218.164062 0)"/>
     <use xlink:href="#Cmr10-29" transform="translate(276.982479 0)"/>
     <use xlink:href="#Cmsy10-11" transform="translate(374.668083 0)"/>
     <use xlink:href="#Cmmi10-57" transform="translate(452.35363 0)"/>
     <use xlink:href="#Cmr10-77" transform="translate(501.230583 0)"/>
     <use xlink:href="#Cmmi10-79" transform="translate(540.048943 0)"/>
     <use xlink:href="#Cmr10-44" transform="translate(592.832146 0)"/>
    </g>
   </g>
   <g id="text_13">
    <!-- περιττή: συμμετρία ως προς την αρχή -->
    <g style="fill: #0b0b0b" transform="translate(329.887233 15.2) scale(0.1 -0.1)">
     <defs>
      <path id="DejaVuSans-342" d="M 2653 5119 
L 3275 5119 
L 2257 3944 
L 1778 3944 
L 2653 5119 
z
M 3513 2113 
L 3513 -1331 
L 2938 -1331 
L 2938 2094 
Q 2938 2591 2744 2837 
Q 2550 3084 2163 3084 
Q 1697 3084 1428 2787 
Q 1159 2491 1159 1978 
L 1159 0 
L 581 0 
L 581 3500 
L 1159 3500 
L 1159 2956 
Q 1366 3272 1644 3428 
Q 1925 3584 2291 3584 
Q 2894 3584 3203 3213 
Q 3513 2838 3513 2113 
z
" transform="scale(0.015625)"/>
      <path id="DejaVuSans-34b" d="M 3513 2113 
L 3513 -1331 
L 2938 -1331 
L 2938 2094 
Q 2938 2591 2744 2837 
Q 2550 3084 2163 3084 
Q 1697 3084 1428 2787 
Q 1159 2491 1159 1978 
L 1159 0 
L 581 0 
L 581 3500 
L 1159 3500 
L 1159 2956 
Q 1366 3272 1644 3428 
Q 1925 3584 2291 3584 
Q 2894 3584 3203 3213 
Q 3513 2838 3513 2113 
z
" transform="scale(0.015625)"/>
      <path id="DejaVuSans-35b" d="M 2288 -781 
L 1822 416 
L 863 -1334 
L 184 -1334 
L 1541 1141 
L 972 2613 
Q 819 3006 338 3006 
L 184 3006 
L 184 3500 
L 403 3494 
Q 1209 3472 1413 2950 
L 1875 1753 
L 2834 3503 
L 3513 3503 
L 2156 1028 
L 2725 -444 
Q 2878 -838 3359 -838 
L 3513 -838 
L 3513 -1331 
L 3294 -1325 
Q 2488 -1303 2288 -781 
z
" transform="scale(0.015625)"/>
     </defs>
     <use xlink:href="#DejaVuSans-354"/>
     <use xlink:href="#DejaVuSans-349" transform="translate(60.203125 0)"/>
     <use xlink:href="#DejaVuSans-355" transform="translate(114.25 0)"/>
     <use xlink:href="#DejaVuSans-34d" transform="translate(177.734375 0)"/>
     <use xlink:href="#DejaVuSans-358" transform="translate(211.578125 0)"/>
     <use xlink:href="#DejaVuSans-358" transform="translate(271.78125 0)"/>
     <use xlink:href="#DejaVuSans-342" transform="translate(331.984375 0)"/>
     <use xlink:href="#DejaVuSans-1d" transform="translate(395.359375 0)"/>
     <use xlink:href="#DejaVuSans-3" transform="translate(429.046875 0)"/>
     <use xlink:href="#DejaVuSans-357" transform="translate(460.828125 0)"/>
     <use xlink:href="#DejaVuSans-359" transform="translate(524.203125 0)"/>
     <use xlink:href="#DejaVuSans-350" transform="translate(582.0625 0)"/>
     <use xlink:href="#DejaVuSans-350" transform="translate(645.6875 0)"/>
     <use xlink:href="#DejaVuSans-349" transform="translate(709.3125 0)"/>
     <use xlink:href="#DejaVuSans-358" transform="translate(763.359375 0)"/>
     <use xlink:href="#DejaVuSans-355" transform="translate(823.5625 0)"/>
     <use xlink:href="#DejaVuSans-343" transform="translate(887.046875 0)"/>
     <use xlink:href="#DejaVuSans-345" transform="translate(920.890625 0)"/>
     <use xlink:href="#DejaVuSans-3" transform="translate(986.8125 0)"/>
     <use xlink:href="#DejaVuSans-35d" transform="translate(1018.59375 0)"/>
     <use xlink:href="#DejaVuSans-356" transform="translate(1102.328125 0)"/>
     <use xlink:href="#DejaVuSans-3" transform="translate(1161.015625 0)"/>
     <use xlink:href="#DejaVuSans-354" transform="translate(1192.796875 0)"/>
     <use xlink:href="#DejaVuSans-355" transform="translate(1253 0)"/>
     <use xlink:href="#DejaVuSans-353" transform="translate(1316.484375 0)"/>
     <use xlink:href="#DejaVuSans-356" transform="translate(1377.671875 0)"/>
     <use xlink:href="#DejaVuSans-3" transform="translate(1436.359375 0)"/>
     <use xlink:href="#DejaVuSans-358" transform="translate(1468.140625 0)"/>
     <use xlink:href="#DejaVuSans-34b" transform="translate(1528.34375 0)"/>
     <use xlink:href="#DejaVuSans-351" transform="translate(1591.71875 0)"/>
     <use xlink:href="#DejaVuSans-3" transform="translate(1647.578125 0)"/>
     <use xlink:href="#DejaVuSans-345" transform="translate(1679.359375 0)"/>
     <use xlink:href="#DejaVuSans-355" transform="translate(1745.28125 0)"/>
     <use xlink:href="#DejaVuSans-35b" transform="translate(1808.765625 0)"/>
     <use xlink:href="#DejaVuSans-342" transform="translate(1866.53125 0)"/>
    </g>
   </g>
   <g id="legend_2">
    <g id="line2d_20">
     <path d="M 307.5 38.07 
L 315.6 38.07 
L 323.7 38.07 
" style="fill: none; stroke: #2a78d6; stroke-width: 2; stroke-linecap: round"/>
    </g>
    <g id="text_14">
     <!-- $y = x^3 - x$ -->
     <g style="fill: #0b0b0b" transform="translate(330.9 41.22) scale(0.09 -0.09)">
      <defs>
       <path id="Cmr10-6e" d="M 609 494 
Q 759 275 1012 169 
Q 1266 63 1556 63 
Q 1928 63 2084 380 
Q 2241 697 2241 1100 
Q 2241 1281 2208 1462 
Q 2175 1644 2097 1800 
Q 2019 1956 1883 2050 
Q 1747 2144 1550 2144 
L 1125 2144 
Q 1069 2144 1069 2203 
L 1069 2259 
Q 1069 2309 1125 2309 
L 1478 2338 
Q 1703 2338 1851 2506 
Q 2000 2675 2069 2917 
Q 2138 3159 2138 3378 
Q 2138 3684 1994 3881 
Q 1850 4078 1556 4078 
Q 1313 4078 1091 3986 
Q 869 3894 738 3706 
Q 750 3709 759 3711 
Q 769 3713 781 3713 
Q 925 3713 1022 3613 
Q 1119 3513 1119 3372 
Q 1119 3234 1022 3134 
Q 925 3034 781 3034 
Q 641 3034 541 3134 
Q 441 3234 441 3372 
Q 441 3647 606 3850 
Q 772 4053 1033 4158 
Q 1294 4263 1556 4263 
Q 1750 4263 1965 4205 
Q 2181 4147 2356 4039 
Q 2531 3931 2642 3762 
Q 2753 3594 2753 3378 
Q 2753 3109 2633 2881 
Q 2513 2653 2303 2487 
Q 2094 2322 1844 2241 
Q 2122 2188 2372 2031 
Q 2622 1875 2773 1631 
Q 2925 1388 2925 1106 
Q 2925 753 2731 467 
Q 2538 181 2222 20 
Q 1906 -141 1556 -141 
Q 1256 -141 954 -26 
Q 653 88 461 316 
Q 269 544 269 863 
Q 269 1022 375 1128 
Q 481 1234 641 1234 
Q 744 1234 830 1186 
Q 916 1138 964 1050 
Q 1013 963 1013 863 
Q 1013 706 903 600 
Q 794 494 641 494 
L 609 494 
z
" transform="scale(0.015625)"/>
      </defs>
      <use xlink:href="#Cmmi10-72" transform="translate(0 0.084203)"/>
      <use xlink:href="#Cmr10-29" transform="translate(69.023495 0.084203)"/>
      <use xlink:href="#Cmmi10-3f" transform="translate(166.709099 0.084203)"/>
      <use xlink:href="#Cmr10-6e" transform="translate(235.049359 41.373437) scale(0.7)"/>
      <use xlink:href="#Cmsy10-11" transform="translate(295.769831 0.084203)"/>
      <use xlink:href="#Cmmi10-3f" transform="translate(393.455436 0.084203)"/>
     </g>
    </g>
   </g>
   <g id="line2d_21">
    <g>
     <use xlink:href="#m95dd4fdbd1" x="498.155289" y="96.449062" style="fill: #eb6834; stroke: #eb6834; stroke-width: 1.7"/>
    </g>
   </g>
   <g id="line2d_22">
    <g>
     <use xlink:href="#m95dd4fdbd1" x="354.609802" y="151.950937" style="fill: #eb6834; stroke: #eb6834; stroke-width: 1.7"/>
    </g>
   </g>
  </g>
 </g>
 <defs>
  <clipPath id="p7ab7d28d57">
   <rect x="7.2" y="25.2" width="253.965091" height="198"/>
  </clipPath>
  <clipPath id="p2086658a46">
   <rect x="299.4" y="25.2" width="253.965091" height="198"/>
  </clipPath>
 </defs>
</svg>
