<?xml version="1.0" encoding="utf-8" standalone="no"?>
<!DOCTYPE svg PUBLIC "-//W3C//DTD SVG 1.1//EN"
  "http://www.w3.org/Graphics/SVG/1.1/DTD/svg11.dtd">
<svg xmlns:xlink="http://www.w3.org/1999/xlink" width="436.215879pt" height="177.426pt" viewBox="0 0 436.215879 177.426" xmlns="http://www.w3.org/2000/svg" version="1.1">
 <metadata>
  <rdf:RDF xmlns:dc="http://purl.org/dc/elements/1.1/" xmlns:cc="http://creativecommons.org/ns#" xmlns:rdf="http://www.w3.org/1999/02/22-rdf-syntax-ns#">
   <cc:Work>
    <dc:type rdf:resource="http://purl.org/dc/dcmitype/StillImage"/>
    <dc:format>image/svg+xml</dc:format>
    <dc:creator>
     <cc:Agent>
      <dc:title>Matplotlib v3.11.2, https://matplotlib.org/</dc:title>
     </cc:Agent>
    </dc:creator>
   </cc:Work>
  </rdf:RDF>
 </metadata>
 <defs>
  <style type="text/css">*{stroke-linejoin: round; stroke-linecap: butt}</style>
 </defs>
 <g id="figure_1">
  <g id="patch_1">
   <path d="M 0 177.426 
L 436.215879 177.426 
L 436.215879 0 
L 0 0 
z
" style="fill: #ffffff"/>
  </g>
  <g id="axes_1">
   <g id="patch_2">
    <path d="M 16.634759 170.226 
L 418.394759 170.226 
L 418.394759 9.45 
L 16.634759 9.45 
z
" style="fill: #ffffff"/>
   </g>
   <g id="line2d_1">
    <path d="M 88.317484 170.226 
L 88.317484 9.45 
" clip-path="url(#p0888d802d5)" style="fill: none; stroke: #e9e8e3; stroke-width: 0.7; stroke-linecap: round"/>
   </g>
   <g id="line2d_2">
    <path d="M 151.904109 170.226 
L 151.904109 9.45 
" clip-path="url(#p0888d802d5)" style="fill: none; stroke: #e9e8e3; stroke-width: 0.7; stroke-linecap: round"/>
   </g>
   <g id="line2d_3">
    <path d="M 215.490734 170.226 
L 215.490734 9.45 
" clip-path="url(#p0888d802d5)" style="fill: none; stroke: #e9e8e3; stroke-width: 0.7; stroke-linecap: round"/>
   </g>
   <g id="line2d_4">
    <path d="M 279.077359 170.226 
L 279.077359 9.45 
" clip-path="url(#p0888d802d5)" style="fill: none; stroke: #e9e8e3; stroke-width: 0.7; stroke-linecap: round"/>
   </g>
   <g id="line2d_5">
    <path d="M 342.663983 170.226 
L 342.663983 9.45 
" clip-path="url(#p0888d802d5)" style="fill: none; stroke: #e9e8e3; stroke-width: 0.7; stroke-linecap: round"/>
   </g>
   <g id="line2d_6">
    <path d="M 406.250608 170.226 
L 406.250608 9.45 
" clip-path="url(#p0888d802d5)" style="fill: none; stroke: #e9e8e3; stroke-width: 0.7; stroke-linecap: round"/>
   </g>
   <g id="line2d_7">
    <path d="M 16.634759 155.871 
L 418.394759 155.871 
" clip-path="url(#p0888d802d5)" style="fill: none; stroke: #e9e8e3; stroke-width: 0.7; stroke-linecap: round"/>
   </g>
   <g id="line2d_8">
    <path d="M 16.634759 41.031 
L 418.394759 41.031 
" clip-path="url(#p0888d802d5)" style="fill: none; stroke: #e9e8e3; stroke-width: 0.7; stroke-linecap: round"/>
   </g>
   <g id="patch_3">
    <path d="M 24.730859 170.226 
L 24.730859 9.45 
" style="fill: none; stroke: #52514e; stroke-width: 0.9; stroke-linejoin: miter; stroke-linecap: square"/>
   </g>
   <g id="patch_4">
    <path d="M 16.634759 98.451 
L 418.394759 98.451 
" style="fill: none; stroke: #52514e; stroke-width: 0.9; stroke-linejoin: miter; stroke-linecap: square"/>
   </g>
   <g id="matplotlib.axis_1">
    <g id="xtick_1">
     <g id="line2d_9">
      <defs>
       <path id="mea416f7c7a" d="M 0 0 
L 0 3 
" style="stroke: #52514e; stroke-width: 0.8"/>
      </defs>
      <g>
       <use xlink:href="#mea416f7c7a" x="88.317484" y="98.451" style="fill: #52514e; stroke: #52514e; stroke-width: 0.8"/>
      </g>
     </g>
     <g id="text_1">
      <g id="patch_5">
       <path d="M 85.469984 113.224008 
L 91.164984 113.224008 
L 91.164984 102.856 
L 85.469984 102.856 
z
" style="fill: #ffffff; opacity: 0.85"/>
      </g>
      <!-- $\frac{\pi}{2}$ -->
      <g style="fill: #52514e" transform="translate(86.064984 109.909008) scale(0.085 -0.085)">
       <defs>
        <path id="Cmmi10-24" d="M 647 109 
Q 647 144 672 213 
Q 850 584 1004 942 
Q 1159 1300 1282 1639 
Q 1406 1978 1509 2363 
L 1100 2363 
Q 866 2363 662 2216 
Q 459 2069 325 1844 
Q 313 1819 288 1819 
L 213 1819 
Q 153 1819 153 1881 
Q 153 1894 166 1919 
Q 375 2275 614 2517 
Q 853 2759 1153 2759 
L 3475 2759 
Q 3541 2759 3587 2715 
Q 3634 2672 3634 2597 
Q 3634 2503 3567 2433 
Q 3500 2363 3406 2363 
L 2591 2363 
Q 2488 1859 2478 1381 
Q 2478 766 2694 269 
Q 2713 231 2713 191 
Q 2713 122 2672 62 
Q 2631 3 2567 -34 
Q 2503 -72 2431 -72 
Q 2263 -72 2200 203 
Q 2138 478 2138 738 
Q 2138 1103 2200 1442 
Q 2263 1781 2400 2363 
L 1703 2363 
Q 1197 313 1094 103 
Q 1003 -72 844 -72 
Q 766 -72 706 -20 
Q 647 31 647 109 
z
" transform="scale(0.015625)"/>
        <path id="Cmr10-31" d="M 319 0 
L 319 172 
Q 319 188 331 206 
L 1325 1306 
Q 1550 1550 1690 1715 
Q 1831 1881 1968 2097 
Q 2106 2313 2186 2536 
Q 2266 2759 2266 3009 
Q 2266 3272 2169 3511 
Q 2072 3750 1880 3894 
Q 1688 4038 1416 4038 
Q 1138 4038 916 3870 
Q 694 3703 603 3438 
Q 628 3444 672 3444 
Q 816 3444 917 3347 
Q 1019 3250 1019 3097 
Q 1019 2950 917 2848 
Q 816 2747 672 2747 
Q 522 2747 420 2851 
Q 319 2956 319 3097 
Q 319 3338 409 3548 
Q 500 3759 670 3923 
Q 841 4088 1055 4175 
Q 1269 4263 1509 4263 
Q 1875 4263 2190 4108 
Q 2506 3953 2690 3670 
Q 2875 3388 2875 3009 
Q 2875 2731 2753 2481 
Q 2631 2231 2440 2026 
Q 2250 1822 1953 1562 
Q 1656 1303 1563 1216 
L 838 519 
L 1453 519 
Q 1906 519 2211 526 
Q 2516 534 2534 550 
Q 2609 631 2688 1141 
L 2875 1141 
L 2694 0 
L 319 0 
z
" transform="scale(0.015625)"/>
       </defs>
       <use xlink:href="#Cmmi10-24" transform="translate(6.25 35.823437) scale(0.7)"/>
       <use xlink:href="#Cmr10-31" transform="translate(8.25 -30.340625) scale(0.7)"/>
       <path d="M 6.25 22.535937 
L 6.25 28.785937 
L 46.137695 28.785937 
L 46.137695 22.535937 
L 6.25 22.535937 
z
"/>
      </g>
     </g>
    </g>
    <g id="xtick_2">
     <g id="line2d_10">
      <g>
       <use xlink:href="#mea416f7c7a" x="151.904109" y="98.451" style="fill: #52514e; stroke: #52514e; stroke-width: 0.8"/>
      </g>
     </g>
     <g id="text_2">
      <g id="patch_6">
       <path d="M 148.886609 112.546 
L 154.921609 112.546 
L 154.921609 102.856 
L 148.886609 102.856 
z
" style="fill: #ffffff; opacity: 0.85"/>
      </g>
      <!-- $\pi$ -->
      <g style="fill: #52514e" transform="translate(149.481609 109.909008) scale(0.085 -0.085)">
       <use xlink:href="#Cmmi10-24" transform="translate(0 0.890625)"/>
      </g>
     </g>
    </g>
    <g id="xtick_3">
     <g id="line2d_11">
      <g>
       <use xlink:href="#mea416f7c7a" x="215.490734" y="98.451" style="fill: #52514e; stroke: #52514e; stroke-width: 0.8"/>
      </g>
     </g>
     <g id="text_3">
      <g id="patch_7">
       <path d="M 211.155734 113.821 
L 219.825734 113.821 
L 219.825734 102.856 
L 211.155734 102.856 
z
" style="fill: #ffffff; opacity: 0.85"/>
      </g>
      <!-- $\frac{3\pi}{2}$ -->
      <g style="fill: #52514e" transform="translate(211.750734 110.506) scale(0.085 -0.085)">
       <defs>
        <path id="Cmr10-6e" d="M 609 494 
Q 759 275 1012 169 
Q 1266 63 1556 63 
Q 1928 63 2084 380 
Q 2241 697 2241 1100 
Q 2241 1281 2208 1462 
Q 2175 1644 2097 1800 
Q 2019 1956 1883 2050 
Q 1747 2144 1550 2144 
L 1125 2144 
Q 1069 2144 1069 2203 
L 1069 2259 
Q 1069 2309 1125 2309 
L 1478 2338 
Q 1703 2338 1851 2506 
Q 2000 2675 2069 2917 
Q 2138 3159 2138 3378 
Q 2138 3684 1994 3881 
Q 1850 4078 1556 4078 
Q 1313 4078 1091 3986 
Q 869 3894 738 3706 
Q 750 3709 759 3711 
Q 769 3713 781 3713 
Q 925 3713 1022 3613 
Q 1119 3513 1119 3372 
Q 1119 3234 1022 3134 
Q 925 3034 781 3034 
Q 641 3034 541 3134 
Q 441 3234 441 3372 
Q 441 3647 606 3850 
Q 772 4053 1033 4158 
Q 1294 4263 1556 4263 
Q 1750 4263 1965 4205 
Q 2181 4147 2356 4039 
Q 2531 3931 2642 3762 
Q 2753 3594 2753 3378 
Q 2753 3109 2633 2881 
Q 2513 2653 2303 2487 
Q 2094 2322 1844 2241 
Q 2122 2188 2372 2031 
Q 2622 1875 2773 1631 
Q 2925 1388 2925 1106 
Q 2925 753 2731 467 
Q 2538 181 2222 20 
Q 1906 -141 1556 -141 
Q 1256 -141 954 -26 
Q 653 88 461 316 
Q 269 544 269 863 
Q 269 1022 375 1128 
Q 481 1234 641 1234 
Q 744 1234 830 1186 
Q 916 1138 964 1050 
Q 1013 963 1013 863 
Q 1013 706 903 600 
Q 794 494 641 494 
L 609 494 
z
" transform="scale(0.015625)"/>
       </defs>
       <use xlink:href="#Cmr10-6e" transform="translate(6.25 36.373438) scale(0.7)"/>
       <use xlink:href="#Cmmi10-24" transform="translate(41.25 36.373438) scale(0.7)"/>
       <use xlink:href="#Cmr10-31" transform="translate(26.25 -30.545312) scale(0.7)"/>
       <path d="M 6.25 22.33125 
L 6.25 28.58125 
L 81.137695 28.58125 
L 81.137695 22.33125 
L 6.25 22.33125 
z
"/>
      </g>
     </g>
    </g>
    <g id="xtick_4">
     <g id="line2d_12">
      <g>
       <use xlink:href="#mea416f7c7a" x="279.077359" y="98.451" style="fill: #52514e; stroke: #52514e; stroke-width: 0.8"/>
      </g>
     </g>
     <g id="text_4">
      <g id="patch_8">
       <path d="M 273.934859 112.546 
L 284.219859 112.546 
L 284.219859 102.856 
L 273.934859 102.856 
z
" style="fill: #ffffff; opacity: 0.85"/>
      </g>
      <!-- $2\pi$ -->
      <g style="fill: #52514e" transform="translate(274.529859 109.909008) scale(0.085 -0.085)">
       <use xlink:href="#Cmr10-31" transform="translate(0 0.390625)"/>
       <use xlink:href="#Cmmi10-24" transform="translate(50 0.390625)"/>
      </g>
     </g>
    </g>
    <g id="xtick_5">
     <g id="line2d_13">
      <g>
       <use xlink:href="#mea416f7c7a" x="342.663983" y="98.451" style="fill: #52514e; stroke: #52514e; stroke-width: 0.8"/>
      </g>
     </g>
     <g id="text_5">
      <g id="patch_9">
       <path d="M 338.328983 113.821 
L 346.998983 113.821 
L 346.998983 102.856 
L 338.328983 102.856 
z
" style="fill: #ffffff; opacity: 0.85"/>
      </g>
      <!-- $\frac{5\pi}{2}$ -->
      <g style="fill: #52514e" transform="translate(338.923983 110.506) scale(0.085 -0.085)">
       <defs>
        <path id="Cmr10-78" d="M 556 728 
Q 622 541 758 387 
Q 894 234 1080 148 
Q 1266 63 1466 63 
Q 1928 63 2103 422 
Q 2278 781 2278 1294 
Q 2278 1516 2270 1667 
Q 2263 1819 2228 1959 
Q 2169 2184 2020 2353 
Q 1872 2522 1656 2522 
Q 1441 2522 1286 2456 
Q 1131 2391 1034 2303 
Q 938 2216 863 2119 
Q 788 2022 769 2016 
L 697 2016 
Q 681 2016 657 2036 
Q 634 2056 634 2075 
L 634 4213 
Q 634 4228 654 4245 
Q 675 4263 697 4263 
L 716 4263 
Q 1147 4056 1631 4056 
Q 2106 4056 2547 4263 
L 2566 4263 
Q 2588 4263 2606 4247 
Q 2625 4231 2625 4213 
L 2625 4153 
Q 2625 4122 2613 4122 
Q 2394 3831 2064 3668 
Q 1734 3506 1381 3506 
Q 1125 3506 856 3578 
L 856 2369 
Q 1069 2541 1236 2614 
Q 1403 2688 1663 2688 
Q 2016 2688 2295 2484 
Q 2575 2281 2725 1954 
Q 2875 1628 2875 1288 
Q 2875 903 2686 575 
Q 2497 247 2172 53 
Q 1847 -141 1466 -141 
Q 1150 -141 886 21 
Q 622 184 470 459 
Q 319 734 319 1044 
Q 319 1188 412 1278 
Q 506 1369 647 1369 
Q 788 1369 883 1276 
Q 978 1184 978 1044 
Q 978 906 883 811 
Q 788 716 647 716 
Q 625 716 597 720 
Q 569 725 556 728 
z
" transform="scale(0.015625)"/>
       </defs>
       <use xlink:href="#Cmr10-78" transform="translate(6.25 36.373438) scale(0.7)"/>
       <use xlink:href="#Cmmi10-24" transform="translate(41.25 36.373438) scale(0.7)"/>
       <use xlink:href="#Cmr10-31" transform="translate(26.25 -30.545312) scale(0.7)"/>
       <path d="M 6.25 22.33125 
L 6.25 28.58125 
L 81.137695 28.58125 
L 81.137695 22.33125 
L 6.25 22.33125 
z
"/>
      </g>
     </g>
    </g>
    <g id="xtick_6">
     <g id="line2d_14">
      <g>
       <use xlink:href="#mea416f7c7a" x="406.250608" y="98.451" style="fill: #52514e; stroke: #52514e; stroke-width: 0.8"/>
      </g>
     </g>
     <g id="text_6">
      <g id="patch_10">
       <path d="M 401.108108 112.546 
L 411.393108 112.546 
L 411.393108 102.856 
L 401.108108 102.856 
z
" style="fill: #ffffff; opacity: 0.85"/>
      </g>
      <!-- $3\pi$ -->
      <g style="fill: #52514e" transform="translate(401.703108 109.909008) scale(0.085 -0.085)">
       <use xlink:href="#Cmr10-6e" transform="translate(0 0.390625)"/>
       <use xlink:href="#Cmmi10-24" transform="translate(50 0.390625)"/>
      </g>
     </g>
    </g>
   </g>
   <g id="matplotlib.axis_2">
    <g id="ytick_1">
     <g id="line2d_15">
      <defs>
       <path id="mfd0566a3cc" d="M 0 0 
L -3 0 
" style="stroke: #52514e; stroke-width: 0.8"/>
      </defs>
      <g>
       <use xlink:href="#mfd0566a3cc" x="24.730859" y="155.871" style="fill: #52514e; stroke: #52514e; stroke-width: 0.8"/>
      </g>
     </g>
     <g id="text_7">
      <g id="patch_11">
       <path d="M 6.605 161.736996 
L 20.325859 161.736996 
L 20.325859 152.046996 
L 6.605 152.046996 
z
" style="fill: #ffffff; opacity: 0.85"/>
      </g>
      <!-- −1 -->
      <g style="fill: #52514e" transform="translate(7.2 159.100004) scale(0.085 -0.085)">
       <defs>
        <path id="DejaVuSans-c9c" d="M 678 2272 
L 4684 2272 
L 4684 1741 
L 678 1741 
L 678 2272 
z
" transform="scale(0.015625)"/>
        <path id="DejaVuSans-14" d="M 794 531 
L 1825 531 
L 1825 4091 
L 703 3866 
L 703 4441 
L 1819 4666 
L 2450 4666 
L 2450 531 
L 3481 531 
L 3481 0 
L 794 0 
L 794 531 
z
" transform="scale(0.015625)"/>
       </defs>
       <use xlink:href="#DejaVuSans-c9c"/>
       <use xlink:href="#DejaVuSans-14" transform="translate(83.796875 0)"/>
      </g>
     </g>
    </g>
    <g id="ytick_2">
     <g id="line2d_16">
      <g>
       <use xlink:href="#mfd0566a3cc" x="24.730859" y="41.031" style="fill: #52514e; stroke: #52514e; stroke-width: 0.8"/>
      </g>
     </g>
     <g id="text_8">
      <g id="patch_12">
       <path d="M 13.727734 46.896996 
L 20.325859 46.896996 
L 20.325859 37.206996 
L 13.727734 37.206996 
z
" style="fill: #ffffff; opacity: 0.85"/>
      </g>
      <!-- 1 -->
      <g style="fill: #52514e" transform="translate(14.322734 44.260004) scale(0.085 -0.085)">
       <use xlink:href="#DejaVuSans-14"/>
      </g>
     </g>
    </g>
   </g>
   <g id="line2d_17">
    <defs>
     <path id="m4fe79a03d0" d="M 2.25 0 
L -2.25 -2.25 
L -2.25 2.25 
z
" style="stroke: #52514e; stroke-linejoin: miter"/>
    </defs>
    <g>
     <use xlink:href="#m4fe79a03d0" x="418.394759" y="98.451" style="fill: #52514e; stroke: #52514e; stroke-linejoin: miter"/>
    </g>
   </g>
   <g id="line2d_18">
    <defs>
     <path id="m0e7391c8de" d="M 0 -2.25 
L -2.25 2.25 
L 2.25 2.25 
z
" style="stroke: #52514e; stroke-linejoin: miter"/>
    </defs>
    <g>
     <use xlink:href="#m0e7391c8de" x="24.730859" y="9.45" style="fill: #52514e; stroke: #52514e; stroke-linejoin: miter"/>
    </g>
   </g>
   <g id="line2d_19">
    <path d="M 16.634759 109.858593 
L 26.254147 96.290786 
L 35.873535 82.84439 
L 41.512487 75.322917 
L 46.488033 69.053864 
L 50.800172 63.976235 
L 54.780609 59.634843 
L 58.429342 55.983701 
L 61.746373 52.96295 
L 65.063403 50.247454 
L 68.048731 48.079605 
L 71.034058 46.185584 
L 74.019385 44.575689 
L 76.67301 43.390307 
L 79.326634 42.441447 
L 81.980259 41.733187 
L 84.633883 41.268567 
L 87.287507 41.049585 
L 89.941132 41.077181 
L 92.594756 41.351237 
L 95.24838 41.870574 
L 97.902005 42.632963 
L 100.555629 43.635127 
L 103.209253 44.872763 
L 105.862878 46.340554 
L 108.848205 48.259038 
L 111.833532 50.450374 
L 114.81886 52.902652 
L 118.13589 55.917187 
L 121.784624 59.562009 
L 125.433357 63.522568 
L 129.413794 68.165426 
L 134.057636 73.948582 
L 139.364885 80.94768 
L 145.998946 90.104435 
L 166.564535 118.794625 
L 171.871783 125.639685 
L 176.183923 130.862834 
L 180.16436 135.359352 
L 183.813093 139.168925 
L 187.461827 142.647911 
L 190.778857 145.499932 
L 193.764184 147.797304 
L 196.749512 149.826421 
L 199.734839 151.57625 
L 202.388463 152.889466 
L 205.042088 153.968832 
L 207.695712 154.809711 
L 210.349337 155.408491 
L 213.002961 155.762601 
L 215.656585 155.870518 
L 218.31021 155.73178 
L 220.963834 155.346982 
L 223.617458 154.717777 
L 226.271083 153.846868 
L 228.924707 152.737997 
L 231.578331 151.395926 
L 234.563659 149.614567 
L 237.548986 147.555072 
L 240.534314 145.228638 
L 243.851344 142.346063 
L 247.168374 139.168925 
L 250.817108 135.359352 
L 254.797544 130.862834 
L 259.109684 125.639685 
L 264.08523 119.233925 
L 269.724181 111.600382 
L 278.016758 99.955249 
L 289.958067 83.202316 
L 295.928722 75.232413 
L 300.904268 68.968937 
L 305.216407 63.897182 
L 309.196844 59.562009 
L 312.845577 55.917187 
L 316.162608 52.902652 
L 319.479638 50.193776 
L 322.464965 48.032195 
L 325.450293 46.1447 
L 328.43562 44.541553 
L 331.089245 43.362325 
L 333.742869 42.419741 
L 336.396493 41.717849 
L 339.050118 41.259664 
L 341.703742 41.047154 
L 344.357366 41.081233 
L 347.010991 41.361754 
L 349.664615 41.887512 
L 352.318239 42.656248 
L 354.971864 43.66466 
L 357.625488 44.908417 
L 360.279112 46.382175 
L 363.26444 48.307157 
L 366.249767 50.504731 
L 369.235095 52.96295 
L 372.552125 55.983701 
L 376.200859 59.634843 
L 379.849592 63.601131 
L 383.830029 68.24951 
L 388.473871 74.038077 
L 393.78112 81.041915 
L 400.415181 90.202314 
L 414.346709 109.858593 
L 414.346709 109.858593 
" clip-path="url(#p0888d802d5)" style="fill: none; stroke-dasharray: 5.6,3.5; stroke-dashoffset: 0; stroke: #8a8984; stroke-width: 1.4"/>
   </g>
   <g id="line2d_20">
    <path d="M 16.634759 87.043407 
L 24.595632 98.259186 
L 24.927335 98.172308 
L 35.541832 83.297704 
L 41.512487 75.322917 
L 46.488033 69.053864 
L 50.800172 63.976235 
L 54.780609 59.634843 
L 58.429342 55.983701 
L 61.746373 52.96295 
L 65.063403 50.247454 
L 68.048731 48.079605 
L 71.034058 46.185584 
L 74.019385 44.575689 
L 76.67301 43.390307 
L 79.326634 42.441447 
L 81.980259 41.733187 
L 84.633883 41.268567 
L 87.287507 41.049585 
L 89.941132 41.077181 
L 92.594756 41.351237 
L 95.24838 41.870574 
L 97.902005 42.632963 
L 100.555629 43.635127 
L 103.209253 44.872763 
L 105.862878 46.340554 
L 108.848205 48.259038 
L 111.833532 50.450374 
L 114.81886 52.902652 
L 118.13589 55.917187 
L 121.784624 59.562009 
L 125.433357 63.522568 
L 129.413794 68.165426 
L 134.057636 73.948582 
L 139.364885 80.94768 
L 145.998946 90.104435 
L 151.969601 98.358102 
L 162.915801 83.023272 
L 168.886456 75.062607 
L 173.862002 68.809657 
L 178.174141 63.748975 
L 182.154578 59.425517 
L 185.803311 55.792596 
L 189.120342 52.78976 
L 192.437372 50.093341 
L 195.4227 47.94355 
L 198.408027 46.068327 
L 201.393354 44.477867 
L 204.046979 43.310209 
L 206.700603 42.379419 
L 209.354227 41.689494 
L 212.007852 41.243398 
L 214.661476 41.043048 
L 217.3151 41.089303 
L 219.968725 41.381966 
L 222.622349 41.919779 
L 225.275974 42.700431 
L 227.929598 43.720571 
L 230.583222 44.975814 
L 233.236847 46.460769 
L 236.222174 48.397942 
L 239.207501 50.607213 
L 242.192829 53.076572 
L 245.509859 56.108973 
L 249.158593 59.771958 
L 252.807326 63.748975 
L 256.787763 68.407687 
L 261.431605 74.206371 
L 266.738854 81.219056 
L 273.372915 90.386225 
L 279.011867 98.358102 
L 279.34357 98.073393 
L 289.958067 83.202316 
L 295.928722 75.232413 
L 300.904268 68.968937 
L 305.216407 63.897182 
L 309.196844 59.562009 
L 312.845577 55.917187 
L 316.162608 52.902652 
L 319.479638 50.193776 
L 322.464965 48.032195 
L 325.450293 46.1447 
L 328.43562 44.541553 
L 331.089245 43.362325 
L 333.742869 42.419741 
L 336.396493 41.717849 
L 339.050118 41.259664 
L 341.703742 41.047154 
L 344.357366 41.081233 
L 347.010991 41.361754 
L 349.664615 41.887512 
L 352.318239 42.656248 
L 354.971864 43.66466 
L 357.625488 44.908417 
L 360.279112 46.382175 
L 363.26444 48.307157 
L 366.249767 50.504731 
L 369.235095 52.96295 
L 372.552125 55.983701 
L 376.200859 59.634843 
L 379.849592 63.601131 
L 383.830029 68.24951 
L 388.473871 74.038077 
L 393.78112 81.041915 
L 400.415181 90.202314 
L 406.054132 98.172308 
L 406.385836 98.259186 
L 414.346709 87.043407 
L 414.346709 87.043407 
" clip-path="url(#p0888d802d5)" style="fill: none; stroke: #2a78d6; stroke-width: 2; stroke-linecap: round"/>
   </g>
   <g id="line2d_21">
    <path d="M 16.634759 96.184661 
L 18.624977 97.154501 
L 20.615195 97.859501 
L 22.605414 98.292849 
L 24.263929 98.443361 
L 25.922444 98.401261 
L 27.580959 98.166833 
L 29.239475 97.741649 
L 31.229693 96.983737 
L 33.219911 95.962635 
L 35.210129 94.688207 
L 37.200348 93.172765 
L 39.522269 91.119791 
L 42.175893 88.431148 
L 44.829518 85.421703 
L 48.146548 81.287914 
L 52.126985 75.929289 
L 66.390215 56.294054 
L 69.375543 52.712231 
L 72.029167 49.836577 
L 74.682792 47.302569 
L 77.004713 45.399917 
L 78.994931 44.022918 
L 80.985149 42.894379 
L 82.975368 42.025204 
L 84.965586 41.42379 
L 86.624101 41.131422 
L 88.282616 41.031043 
L 89.941132 41.123326 
L 91.599647 41.407652 
L 93.589865 41.999563 
L 95.580083 42.859483 
L 97.570302 43.979104 
L 99.56052 45.347609 
L 101.882441 47.240994 
L 104.204362 49.430159 
L 106.857987 52.257162 
L 109.843314 55.793627 
L 113.160345 60.074682 
L 117.804187 66.476243 
L 127.755279 80.328432 
L 131.404012 84.941659 
L 134.389339 88.355951 
L 137.042964 91.053641 
L 139.364885 93.115469 
L 141.686806 94.87002 
L 143.677025 96.111756 
L 145.667243 97.098725 
L 147.657461 97.821392 
L 149.647679 98.272776 
L 151.306195 98.438474 
L 152.96471 98.411593 
L 154.623225 98.192314 
L 156.28174 97.782108 
L 158.271959 97.041803 
L 160.262177 96.037746 
L 162.252395 94.779638 
L 164.242613 93.279633 
L 166.564535 91.243353 
L 168.886456 88.924408 
L 171.54008 85.967324 
L 174.525408 82.310415 
L 178.174141 77.478681 
L 183.813093 69.576925 
L 190.447154 60.343243 
L 194.095887 55.631523 
L 197.081215 52.11016 
L 199.734839 49.299272 
L 202.05676 47.126061 
L 204.378682 45.250141 
L 206.3689 43.897635 
L 208.359118 42.794801 
L 210.349337 41.952292 
L 212.339555 41.378248 
L 213.99807 41.109037 
L 215.656585 41.031964 
L 217.3151 41.147547 
L 218.973616 41.455011 
L 220.963834 42.074255 
L 222.954052 42.960785 
L 224.94427 44.106038 
L 226.934489 45.498949 
L 229.25641 47.418944 
L 231.578331 49.63238 
L 234.231956 52.483848 
L 237.217283 56.043167 
L 240.866017 60.789072 
L 245.841562 67.696625 
L 254.465841 79.715672 
L 258.114575 84.38097 
L 261.099902 87.851476 
L 263.753527 90.608374 
L 266.075448 92.728317 
L 268.397369 94.546073 
L 270.387588 95.845405 
L 272.377806 96.892545 
L 274.368024 97.677375 
L 276.358242 98.192314 
L 278.016758 98.411593 
L 279.675273 98.438474 
L 281.333788 98.272776 
L 282.992303 97.915613 
L 284.982521 97.237744 
L 286.97274 96.294231 
L 288.962958 95.094189 
L 290.953176 93.649211 
L 293.275098 91.672581 
L 295.597019 89.407643 
L 298.250643 86.504466 
L 301.235971 82.897141 
L 304.884704 78.108622 
L 310.191953 70.703555 
L 317.821123 60.074682 
L 321.469856 55.384262 
L 324.455184 51.886327 
L 327.108808 49.100363 
L 329.430729 46.951777 
L 331.752651 45.102773 
L 333.742869 43.774894 
L 335.733087 42.697872 
L 337.723305 41.882112 
L 339.713524 41.335496 
L 341.372039 41.089467 
L 343.030554 41.035708 
L 344.689069 41.174581 
L 346.347585 41.505152 
L 348.337803 42.151667 
L 350.328021 43.064721 
L 352.318239 44.235493 
L 354.308458 45.652673 
L 356.630379 47.599089 
L 358.9523 49.836577 
L 361.605925 52.712231 
L 364.591252 56.294054 
L 368.239985 61.060026 
L 373.215531 67.980711 
L 381.508107 79.541243 
L 385.156841 84.22084 
L 388.142168 87.706932 
L 390.795792 90.480331 
L 393.117714 92.616526 
L 395.439635 94.452003 
L 397.429853 95.76752 
L 399.420072 96.831595 
L 401.41029 97.63395 
L 403.400508 98.166833 
L 405.059023 98.401261 
L 406.717539 98.443361 
L 408.376054 98.292849 
L 410.034569 97.950736 
L 412.024787 97.290609 
L 414.015006 96.364326 
L 414.346709 96.184661 
L 414.346709 96.184661 
" clip-path="url(#p0888d802d5)" style="fill: none; stroke-dasharray: 10,5; stroke-dashoffset: 0; stroke: #eb6834; stroke-width: 2"/>
   </g>
   <g id="text_9">
    <!-- $x$ -->
    <g style="fill: #0b0b0b" transform="translate(423.215879 101.048656) scale(0.1 -0.1)">
     <defs>
      <path id="Cmmi10-3f" d="M 500 184 
Q 613 97 819 97 
Q 1019 97 1172 289 
Q 1325 481 1381 709 
L 1672 1844 
Q 1741 2153 1741 2266 
Q 1741 2425 1652 2544 
Q 1563 2663 1403 2663 
Q 1200 2663 1022 2536 
Q 844 2409 722 2214 
Q 600 2019 550 1819 
Q 538 1778 500 1778 
L 422 1778 
Q 372 1778 372 1838 
L 372 1856 
Q 434 2094 584 2320 
Q 734 2547 951 2687 
Q 1169 2828 1416 2828 
Q 1650 2828 1839 2703 
Q 2028 2578 2106 2363 
Q 2216 2559 2386 2693 
Q 2556 2828 2759 2828 
Q 2897 2828 3040 2779 
Q 3184 2731 3275 2631 
Q 3366 2531 3366 2381 
Q 3366 2219 3261 2101 
Q 3156 1984 2994 1984 
Q 2891 1984 2822 2050 
Q 2753 2116 2753 2216 
Q 2753 2350 2845 2451 
Q 2938 2553 3066 2572 
Q 2950 2663 2747 2663 
Q 2541 2663 2389 2472 
Q 2238 2281 2175 2047 
L 1894 916 
Q 1825 659 1825 494 
Q 1825 331 1917 214 
Q 2009 97 2163 97 
Q 2463 97 2698 361 
Q 2934 625 3009 941 
Q 3022 978 3059 978 
L 3138 978 
Q 3163 978 3178 961 
Q 3194 944 3194 922 
Q 3194 916 3188 903 
Q 3097 522 2806 225 
Q 2516 -72 2150 -72 
Q 1916 -72 1727 54 
Q 1538 181 1459 397 
Q 1359 209 1182 68 
Q 1006 -72 806 -72 
Q 669 -72 523 -23 
Q 378 25 287 125 
Q 197 225 197 378 
Q 197 528 301 651 
Q 406 775 563 775 
Q 669 775 741 711 
Q 813 647 813 544 
Q 813 409 723 309 
Q 634 209 500 184 
z
" transform="scale(0.015625)"/>
     </defs>
     <use xlink:href="#Cmmi10-3f" transform="translate(0 0.8125)"/>
    </g>
   </g>
   <g id="text_10">
    <!-- $y$ -->
    <g style="fill: #0b0b0b" transform="translate(30.730859 19.047656) scale(0.1 -0.1)">
     <defs>
      <path id="Cmmi10-72" d="M 538 -916 
Q 672 -1147 1006 -1147 
Q 1309 -1147 1531 -934 
Q 1753 -722 1889 -420 
Q 2025 -119 2100 197 
Q 1816 -72 1484 -72 
Q 1231 -72 1053 15 
Q 875 103 776 276 
Q 678 450 678 697 
Q 678 906 734 1126 
Q 791 1347 892 1617 
Q 994 1888 1069 2088 
Q 1153 2322 1153 2472 
Q 1153 2663 1013 2663 
Q 759 2663 595 2402 
Q 431 2141 353 1819 
Q 341 1778 300 1778 
L 225 1778 
Q 172 1778 172 1838 
L 172 1856 
Q 275 2238 487 2533 
Q 700 2828 1025 2828 
Q 1253 2828 1411 2678 
Q 1569 2528 1569 2297 
Q 1569 2178 1516 2047 
Q 1488 1969 1388 1706 
Q 1288 1444 1234 1272 
Q 1181 1100 1147 934 
Q 1113 769 1113 603 
Q 1113 391 1203 244 
Q 1294 97 1491 97 
Q 1888 97 2203 581 
L 2688 2553 
Q 2709 2638 2787 2698 
Q 2866 2759 2956 2759 
Q 3034 2759 3092 2709 
Q 3150 2659 3150 2578 
Q 3150 2541 3144 2528 
L 2509 -19 
Q 2425 -347 2200 -647 
Q 1975 -947 1658 -1130 
Q 1341 -1313 997 -1313 
Q 831 -1313 668 -1248 
Q 506 -1184 406 -1056 
Q 306 -928 306 -756 
Q 306 -581 409 -453 
Q 513 -325 684 -325 
Q 788 -325 858 -389 
Q 928 -453 928 -556 
Q 928 -703 818 -812 
Q 709 -922 563 -922 
Q 556 -919 550 -917 
Q 544 -916 538 -916 
z
" transform="scale(0.015625)"/>
     </defs>
     <use xlink:href="#Cmmi10-72" transform="translate(0 0.8125)"/>
    </g>
   </g>
   <g id="patch_13">
    <path d="M 154.909065 23.805 
Q 215.49116 23.805 276.073256 23.805 
" style="fill: none; stroke: #52514e; stroke-width: 0.9; stroke-linecap: round"/>
    <path d="M 158.109065 25.405 
L 154.909065 23.805 
L 158.109065 22.205 
" style="fill: none; stroke: #52514e; stroke-width: 0.9; stroke-linecap: round"/>
    <path d="M 272.873256 22.205 
L 276.073256 23.805 
L 272.873256 25.405 
" style="fill: none; stroke: #52514e; stroke-width: 0.9; stroke-linecap: round"/>
   </g>
   <g id="text_11">
    <!-- $T = \pi$ -->
    <g style="fill: #52514e" transform="translate(204.960734 17.049291) scale(0.09 -0.09)">
     <defs>
      <path id="Cmmi10-78" d="M 294 84 
Q 297 100 308 140 
Q 319 181 336 203 
Q 353 225 384 225 
Q 934 225 1113 256 
Q 1284 300 1319 441 
L 2194 3956 
Q 2222 4034 2222 4097 
Q 2222 4147 1997 4147 
L 1625 4147 
Q 1197 4147 964 4015 
Q 731 3884 622 3668 
Q 513 3453 341 2963 
Q 319 2906 275 2906 
L 219 2906 
Q 153 2906 153 2988 
L 609 4313 
Q 622 4372 672 4372 
L 4453 4372 
Q 4519 4372 4519 4288 
L 4306 2963 
Q 4306 2944 4284 2925 
Q 4263 2906 4244 2906 
L 4184 2906 
Q 4122 2906 4122 2988 
Q 4191 3441 4191 3628 
Q 4191 3853 4097 3968 
Q 4003 4084 3853 4115 
Q 3703 4147 3463 4147 
L 3084 4147 
Q 2913 4147 2853 4115 
Q 2794 4084 2753 3928 
L 1875 416 
Q 1872 403 1870 390 
Q 1869 378 1863 359 
Q 1863 278 1959 256 
Q 2125 225 2669 225 
Q 2731 225 2731 141 
Q 2709 50 2696 25 
Q 2684 0 2625 0 
L 359 0 
Q 294 0 294 84 
z
" transform="scale(0.015625)"/>
      <path id="Cmr10-29" d="M 481 850 
Q 428 850 393 890 
Q 359 931 359 978 
Q 359 1031 393 1068 
Q 428 1106 481 1106 
L 4500 1106 
Q 4547 1106 4581 1068 
Q 4616 1031 4616 978 
Q 4616 931 4581 890 
Q 4547 850 4500 850 
L 481 850 
z
M 481 2094 
Q 428 2094 393 2131 
Q 359 2169 359 2222 
Q 359 2269 393 2309 
Q 428 2350 481 2350 
L 4500 2350 
Q 4547 2350 4581 2309 
Q 4616 2269 4616 2222 
Q 4616 2169 4581 2131 
Q 4547 2094 4500 2094 
L 481 2094 
z
" transform="scale(0.015625)"/>
     </defs>
     <use xlink:href="#Cmmi10-78" transform="translate(0 0.6875)"/>
     <use xlink:href="#Cmr10-29" transform="translate(78.398495 0.6875)"/>
     <use xlink:href="#Cmmi10-24" transform="translate(176.084099 0.6875)"/>
    </g>
   </g>
   <g id="legend_1">
    <g id="line2d_22">
     <path d="M 24.284759 160.69152 
L 31.934759 160.69152 
L 39.584759 160.69152 
" style="fill: none; stroke-dasharray: 5.6,3.5; stroke-dashoffset: 0; stroke: #8a8984; stroke-width: 1.4"/>
    </g>
    <g id="text_12">
     <!-- $\sin x$ (περίοδος $2\pi$) -->
     <g style="fill: #0b0b0b" transform="translate(46.384759 163.66652) scale(0.085 -0.085)">
      <defs>
       <path id="Cmr10-52" d="M 213 -19 
L 213 1025 
Q 213 1075 269 1075 
L 347 1075 
Q 384 1075 397 1025 
Q 575 97 1259 97 
Q 1563 97 1767 234 
Q 1972 372 1972 659 
Q 1972 866 1812 1011 
Q 1653 1156 1434 1209 
L 1006 1294 
Q 791 1341 614 1437 
Q 438 1534 325 1695 
Q 213 1856 213 2069 
Q 213 2350 361 2529 
Q 509 2709 746 2789 
Q 984 2869 1259 2869 
Q 1588 2869 1831 2694 
L 2016 2853 
Q 2016 2869 2047 2869 
L 2094 2869 
Q 2113 2869 2128 2851 
Q 2144 2834 2144 2816 
L 2144 1978 
Q 2144 1919 2094 1919 
L 2016 1919 
Q 1959 1919 1959 1978 
Q 1959 2313 1773 2516 
Q 1588 2719 1253 2719 
Q 966 2719 755 2612 
Q 544 2506 544 2247 
Q 544 2069 695 1955 
Q 847 1841 1050 1791 
L 1484 1709 
Q 1703 1659 1892 1540 
Q 2081 1422 2192 1240 
Q 2303 1059 2303 831 
Q 2303 600 2223 429 
Q 2144 259 2001 146 
Q 1859 34 1665 -19 
Q 1472 -72 1259 -72 
Q 859 -72 575 197 
L 341 -56 
Q 341 -72 306 -72 
L 269 -72 
Q 213 -72 213 -19 
z
" transform="scale(0.015625)"/>
       <path id="Cmr10-24" d="M 197 0 
L 197 225 
Q 416 225 556 259 
Q 697 294 697 428 
L 697 2175 
Q 697 2422 601 2478 
Q 506 2534 225 2534 
L 225 2759 
L 1147 2828 
L 1147 428 
Q 1147 294 1269 259 
Q 1391 225 1594 225 
L 1594 0 
L 197 0 
z
M 469 3928 
Q 469 4069 575 4175 
Q 681 4281 819 4281 
Q 909 4281 993 4234 
Q 1078 4188 1125 4103 
Q 1172 4019 1172 3928 
Q 1172 3791 1065 3684 
Q 959 3578 819 3578 
Q 681 3578 575 3684 
Q 469 3791 469 3928 
z
" transform="scale(0.015625)"/>
       <path id="Cmr10-74" d="M 191 0 
L 191 225 
Q 409 225 550 259 
Q 691 294 691 428 
L 691 2175 
Q 691 2347 639 2423 
Q 588 2500 491 2517 
Q 394 2534 191 2534 
L 191 2759 
L 1119 2828 
L 1119 2203 
Q 1247 2478 1498 2653 
Q 1750 2828 2047 2828 
Q 2491 2828 2714 2615 
Q 2938 2403 2938 1966 
L 2938 428 
Q 2938 294 3078 259 
Q 3219 225 3438 225 
L 3438 0 
L 1972 0 
L 1972 225 
Q 2191 225 2331 259 
Q 2472 294 2472 428 
L 2472 1947 
Q 2472 2259 2381 2461 
Q 2291 2663 2009 2663 
Q 1638 2663 1398 2366 
Q 1159 2069 1159 1691 
L 1159 428 
Q 1159 294 1300 259 
Q 1441 225 1656 225 
L 1656 0 
L 191 0 
z
" transform="scale(0.015625)"/>
       <path id="DejaVuSans-3" transform="scale(0.015625)"/>
       <path id="DejaVuSans-b" d="M 1984 4856 
Q 1566 4138 1362 3434 
Q 1159 2731 1159 2009 
Q 1159 1288 1364 580 
Q 1569 -128 1984 -844 
L 1484 -844 
Q 1016 -109 783 600 
Q 550 1309 550 2009 
Q 550 2706 781 3412 
Q 1013 4119 1484 4856 
L 1984 4856 
z
" transform="scale(0.015625)"/>
       <path id="DejaVuSans-354" d="M 231 3500 
L 3584 3500 
L 3584 2925 
L 3144 2925 
L 3144 775 
Q 3144 550 3220 451 
Q 3297 353 3469 353 
Q 3516 353 3584 361 
Q 3653 369 3675 372 
L 3675 -44 
Q 3566 -84 3450 -103 
Q 3334 -122 3219 -122 
Q 2844 -122 2700 83 
Q 2556 288 2556 838 
L 2556 2925 
L 1266 2925 
L 1266 0 
L 678 0 
L 678 2925 
L 231 2925 
L 231 3500 
z
" transform="scale(0.015625)"/>
       <path id="DejaVuSans-349" d="M 1234 1888 
Q 884 1963 697 2166 
Q 509 2366 509 2656 
Q 509 3097 866 3344 
Q 1219 3588 1831 3588 
Q 2069 3588 2334 3550 
Q 2600 3513 2906 3438 
L 2906 2916 
Q 2603 3006 2353 3047 
Q 2100 3088 1878 3088 
Q 1506 3088 1291 2944 
Q 1072 2800 1072 2600 
Q 1072 2381 1284 2241 
Q 1494 2103 1856 2103 
L 2341 2103 
L 2341 1628 
L 1878 1628 
Q 1450 1628 1225 1469 
Q 981 1294 981 1019 
Q 981 738 1244 563 
Q 1509 388 1981 388 
Q 2272 388 2538 444 
Q 2803 503 3025 619 
L 3025 84 
Q 2744 -3 2481 -47 
Q 2216 -91 1966 -91 
Q 1222 -91 819 194 
Q 416 478 416 1019 
Q 416 1356 631 1584 
Q 847 1813 1234 1888 
z
" transform="scale(0.015625)"/>
       <path id="DejaVuSans-355" d="M 863 2875 
Q 1053 3194 1525 3475 
Q 1709 3584 2278 3584 
Q 2916 3584 3314 3078 
Q 3713 2572 3713 1747 
Q 3713 922 3314 415 
Q 2916 -91 2278 -91 
Q 1894 -91 1617 61 
Q 1341 213 1159 525 
L 1159 -1331 
L 581 -1331 
L 581 1716 
Q 581 2438 863 2875 
z
M 3116 1747 
Q 3116 2381 2855 2742 
Q 2594 3103 2138 3103 
Q 1681 3103 1420 2742 
Q 1159 2381 1159 1747 
Q 1159 1113 1420 752 
Q 1681 391 2138 391 
Q 2594 391 2855 752 
Q 3116 1113 3116 1747 
z
" transform="scale(0.015625)"/>
       <path id="DejaVuSans-343" d="M 1109 3500 
L 1109 1234 
Q 1109 781 1216 638 
Q 1328 488 1666 488 
L 1944 488 
L 1944 0 
L 1597 0 
Q 1034 0 778 300 
Q 522 606 522 1269 
L 519 3500 
L 1109 3500 
z
M 1453 5119 
L 2075 5119 
L 1057 3944 
L 578 3944 
L 1453 5119 
z
" transform="scale(0.015625)"/>
       <path id="DejaVuSans-353" d="M 1959 3097 
Q 1497 3097 1228 2736 
Q 959 2375 959 1747 
Q 959 1119 1226 758 
Q 1494 397 1959 397 
Q 2419 397 2687 759 
Q 2956 1122 2956 1747 
Q 2956 2369 2687 2733 
Q 2419 3097 1959 3097 
z
M 1959 3584 
Q 2709 3584 3137 3096 
Q 3566 2609 3566 1747 
Q 3566 888 3137 398 
Q 2709 -91 1959 -91 
Q 1206 -91 779 398 
Q 353 888 353 1747 
Q 353 2609 779 3096 
Q 1206 3584 1959 3584 
z
" transform="scale(0.015625)"/>
       <path id="DejaVuSans-348" d="M 3138 4053 
Q 2819 4272 2072 4272 
Q 1281 4272 1281 3906 
Q 1281 3619 2106 3469 
Q 2756 3353 3122 3003 
Q 3566 2581 3566 1716 
Q 3566 888 3138 400 
Q 2709 -91 1959 -91 
Q 1213 -91 781 400 
Q 353 888 353 1747 
Q 353 2384 781 2900 
Q 947 3100 1181 3213 
Q 694 3459 694 3900 
Q 694 4750 2072 4750 
Q 2763 4750 3138 4531 
L 3138 4053 
z
M 1613 3056 
Q 1400 2966 1228 2738 
Q 959 2384 959 1747 
Q 959 1113 1225 756 
Q 1494 397 1959 397 
Q 2419 397 2687 759 
Q 2956 1122 2956 1716 
Q 2956 2338 2672 2638 
Q 2369 2959 1975 2994 
Q 1775 3013 1613 3056 
z
" transform="scale(0.015625)"/>
       <path id="DejaVuSans-356" d="M 2125 -91 
Q 1284 -91 818 406 
Q 353 903 353 1747 
Q 353 2603 823 3093 
Q 1294 3584 2113 3584 
Q 2378 3584 2631 3529 
Q 2884 3475 3122 3366 
L 3122 2828 
Q 2878 2963 2633 3030 
Q 2388 3097 2138 3097 
Q 1578 3097 1268 2742 
Q 959 2388 959 1747 
Q 959 1106 1268 751 
Q 1578 397 2125 397 
Q 2534 397 2784 159 
Q 3047 -88 3047 -463 
Q 3047 -822 2816 -1072 
Q 2566 -1344 2056 -1344 
Q 2056 -1109 2056 -872 
Q 2272 -888 2403 -750 
Q 2503 -641 2503 -525 
Q 2503 -359 2403 -222 
Q 2306 -91 2125 -91 
z
" transform="scale(0.015625)"/>
       <path id="DejaVuSans-c" d="M 513 4856 
L 1013 4856 
Q 1481 4119 1714 3412 
Q 1947 2706 1947 2009 
Q 1947 1309 1714 600 
Q 1481 -109 1013 -844 
L 513 -844 
Q 928 -128 1133 580 
Q 1338 1288 1338 2009 
Q 1338 2731 1133 3434 
Q 928 4138 513 4856 
z
" transform="scale(0.015625)"/>
      </defs>
      <use xlink:href="#Cmr10-52" transform="translate(0 0.015625)"/>
      <use xlink:href="#Cmr10-24" transform="translate(39.404297 0.015625)"/>
      <use xlink:href="#Cmr10-74" transform="translate(67.089844 0.015625)"/>
      <use xlink:href="#Cmmi10-3f" transform="translate(139.27447 0.015625)"/>
      <use xlink:href="#DejaVuSans-3" transform="translate(196.354548 0.015625)"/>
      <use xlink:href="#DejaVuSans-b" transform="translate(228.141657 0.015625)"/>
      <use xlink:href="#DejaVuSans-354" transform="translate(267.155329 0.015625)"/>
      <use xlink:href="#DejaVuSans-349" transform="translate(327.360407 0.015625)"/>
      <use xlink:href="#DejaVuSans-355" transform="translate(381.413141 0.015625)"/>
      <use xlink:href="#DejaVuSans-343" transform="translate(444.889704 0.015625)"/>
      <use xlink:href="#DejaVuSans-353" transform="translate(478.727595 0.015625)"/>
      <use xlink:href="#DejaVuSans-348" transform="translate(539.909235 0.015625)"/>
      <use xlink:href="#DejaVuSans-353" transform="translate(601.090876 0.015625)"/>
      <use xlink:href="#DejaVuSans-356" transform="translate(662.272516 0.015625)"/>
      <use xlink:href="#DejaVuSans-3" transform="translate(720.963923 0.015625)"/>
      <use xlink:href="#Cmr10-31" transform="translate(752.751032 0.015625)"/>
      <use xlink:href="#Cmmi10-24" transform="translate(802.751032 0.015625)"/>
      <use xlink:href="#DejaVuSans-c" transform="translate(859.733454 0.015625)"/>
     </g>
    </g>
    <g id="line2d_23">
     <path d="M 139.799759 160.69152 
L 147.449759 160.69152 
L 155.099759 160.69152 
" style="fill: none; stroke: #2a78d6; stroke-width: 2; stroke-linecap: round"/>
    </g>
    <g id="text_13">
     <!-- $|\sin x|$ (περίοδος $\pi$) -->
     <g style="fill: #0b0b0b" transform="translate(161.899759 163.66652) scale(0.085 -0.085)">
      <defs>
       <path id="Cmsy10-2f" d="M 763 -1484 
L 763 4684 
Q 763 4734 800 4767 
Q 838 4800 891 4800 
Q 938 4800 978 4767 
Q 1019 4734 1019 4684 
L 1019 -1484 
Q 1019 -1534 978 -1567 
Q 938 -1600 891 -1600 
Q 838 -1600 800 -1567 
Q 763 -1534 763 -1484 
z
" transform="scale(0.015625)"/>
      </defs>
      <use xlink:href="#Cmsy10-2f" transform="translate(0 0.015625)"/>
      <use xlink:href="#Cmr10-52" transform="translate(27.685547 0.015625)"/>
      <use xlink:href="#Cmr10-24" transform="translate(67.089844 0.015625)"/>
      <use xlink:href="#Cmr10-74" transform="translate(94.775391 0.015625)"/>
      <use xlink:href="#Cmmi10-3f" transform="translate(166.960016 0.015625)"/>
      <use xlink:href="#Cmsy10-2f" transform="translate(224.040095 0.015625)"/>
      <use xlink:href="#DejaVuSans-3" transform="translate(251.725641 0.015625)"/>
      <use xlink:href="#DejaVuSans-b" transform="translate(283.512751 0.015625)"/>
      <use xlink:href="#DejaVuSans-354" transform="translate(322.526423 0.015625)"/>
      <use xlink:href="#DejaVuSans-349" transform="translate(382.731501 0.015625)"/>
      <use xlink:href="#DejaVuSans-355" transform="translate(436.784235 0.015625)"/>
      <use xlink:href="#DejaVuSans-343" transform="translate(500.260798 0.015625)"/>
      <use xlink:href="#DejaVuSans-353" transform="translate(534.098688 0.015625)"/>
      <use xlink:href="#DejaVuSans-348" transform="translate(595.280329 0.015625)"/>
      <use xlink:href="#DejaVuSans-353" transform="translate(656.46197 0.015625)"/>
      <use xlink:href="#DejaVuSans-356" transform="translate(717.64361 0.015625)"/>
      <use xlink:href="#DejaVuSans-3" transform="translate(776.335016 0.015625)"/>
      <use xlink:href="#Cmmi10-24" transform="translate(808.122126 0.015625)"/>
      <use xlink:href="#DejaVuSans-c" transform="translate(865.104548 0.015625)"/>
     </g>
    </g>
    <g id="line2d_24">
     <path d="M 255.824759 160.69152 
L 263.474759 160.69152 
L 271.124759 160.69152 
" style="fill: none; stroke-dasharray: 10,5; stroke-dashoffset: 0; stroke: #eb6834; stroke-width: 2"/>
    </g>
    <g id="text_14">
     <!-- $\sin^2 x$ (περίοδος $\pi$) -->
     <g style="fill: #0b0b0b" transform="translate(277.924759 163.66652) scale(0.085 -0.085)">
      <use xlink:href="#Cmr10-52" transform="translate(0 0.084203)"/>
      <use xlink:href="#Cmr10-24" transform="translate(39.404297 0.084203)"/>
      <use xlink:href="#Cmr10-74" transform="translate(67.089844 0.084203)"/>
      <use xlink:href="#Cmr10-31" transform="translate(126.611713 41.373437) scale(0.7)"/>
      <use xlink:href="#Cmmi10-3f" transform="translate(183.999176 0.084203)"/>
      <use xlink:href="#DejaVuSans-3" transform="translate(241.079254 0.084203)"/>
      <use xlink:href="#DejaVuSans-b" transform="translate(272.866363 0.084203)"/>
      <use xlink:href="#DejaVuSans-354" transform="translate(311.880035 0.084203)"/>
      <use xlink:href="#DejaVuSans-349" transform="translate(372.085113 0.084203)"/>
      <use xlink:href="#DejaVuSans-355" transform="translate(426.137848 0.084203)"/>
      <use xlink:href="#DejaVuSans-343" transform="translate(489.61441 0.084203)"/>
      <use xlink:href="#DejaVuSans-353" transform="translate(523.452301 0.084203)"/>
      <use xlink:href="#DejaVuSans-348" transform="translate(584.633941 0.084203)"/>
      <use xlink:href="#DejaVuSans-353" transform="translate(645.815582 0.084203)"/>
      <use xlink:href="#DejaVuSans-356" transform="translate(706.997223 0.084203)"/>
      <use xlink:href="#DejaVuSans-3" transform="translate(765.688629 0.084203)"/>
      <use xlink:href="#Cmmi10-24" transform="translate(797.475738 0.084203)"/>
      <use xlink:href="#DejaVuSans-c" transform="translate(854.45816 0.084203)"/>
     </g>
    </g>
   </g>
  </g>
 </g>
 <defs>
  <clipPath id="p0888d802d5">
   <rect x="16.634759" y="9.45" width="401.76" height="160.776"/>
  </clipPath>
 </defs>
</svg>
